<svg width="80" height="94" viewBox="0 0 80 94" fill="none" xmlns="http://www.w3.org/2000/svg">
<path d="M37.368 78.522C58.0057 78.522 74.7359 61.7918 74.7358 41.1541C74.7358 20.5163 58.0056 3.78613 37.3679 3.78613C16.7302 3.78613 1.07365e-05 20.5163 2.39806e-05 41.1541C3.72247e-05 61.7918 16.7302 78.522 37.368 78.522Z" fill="#EBF5FB"/>
<path d="M18.1334 15.7053C18.2583 15.1637 18.5329 14.6682 18.9257 14.2752C19.3186 13.8822 19.814 13.6075 20.3554 13.4826L24.8148 12.4535C24.8994 12.438 24.9759 12.3934 25.031 12.3273C25.0861 12.2612 25.1163 12.1779 25.1163 12.0919C25.1163 12.0059 25.0861 11.9226 25.031 11.8565C24.9759 11.7904 24.8994 11.7458 24.8148 11.7303L20.3554 10.7021C19.8139 10.5771 19.3185 10.3024 18.9255 9.90943C18.5326 9.51646 18.2578 9.021 18.1325 8.47945L17.1038 4.02027C17.0878 3.93617 17.043 3.86027 16.9771 3.80567C16.9112 3.75107 16.8284 3.72119 16.7428 3.72119C16.6572 3.72119 16.5743 3.75107 16.5084 3.80567C16.4425 3.86027 16.3977 3.93617 16.3818 4.02027L15.3512 8.47761C15.2263 9.01918 14.9518 9.51473 14.5589 9.90773C14.1661 10.3007 13.6707 10.5754 13.1293 10.7003L8.67352 11.7285C8.58891 11.7439 8.5124 11.7886 8.45732 11.8547C8.40224 11.9207 8.37207 12.004 8.37207 12.0901C8.37207 12.1761 8.40224 12.2594 8.45732 12.3255C8.5124 12.3915 8.58891 12.4362 8.67352 12.4516L13.1311 13.4807C13.6723 13.6063 14.1674 13.8814 14.5599 14.2747C14.9524 14.668 15.2266 15.1637 15.3512 15.7053L16.38 20.1663C16.3959 20.2504 16.4407 20.3263 16.5066 20.3809C16.5725 20.4355 16.6554 20.4654 16.7409 20.4654C16.8265 20.4654 16.9094 20.4355 16.9753 20.3809C17.0412 20.3263 17.086 20.2504 17.1019 20.1663L18.1334 15.7053Z" fill="#F7DD7B" stroke="#EDBF0E" stroke-width="1.25" stroke-linecap="round" stroke-linejoin="round"/>
<mask id="mask0_3867_2418" style="mask-type:alpha" maskUnits="userSpaceOnUse" x="0" y="3" width="75" height="76">
<path d="M37.2094 78.1398C57.7595 78.1398 74.4186 61.4807 74.4186 40.9305C74.4186 20.3804 57.7594 3.72119 37.2093 3.72119C16.6592 3.72119 1.06484e-05 20.3804 2.37838e-05 40.9305C3.69192e-05 61.4807 16.6592 78.1398 37.2094 78.1398Z" fill="#EBF5FB"/>
</mask>
<g mask="url(#mask0_3867_2418)">
<path d="M34.8083 79.2544C34.8083 79.6423 34.2124 79.8222 33.8245 79.8222C33.6934 79.8375 33.5605 79.8254 33.4342 79.7867C33.308 79.748 33.1912 79.6835 33.0912 79.5973C32.9912 79.511 32.9102 79.405 32.8533 79.2858C32.7964 79.1667 32.7649 79.037 32.7607 78.905C32.7607 78.0045 34.1251 78.0596 34.1251 77.6987C34.1251 77.5511 34.0543 77.4752 33.8131 77.4752C33.4419 77.4752 33.3056 77.7424 32.9989 77.7424C32.91 77.7345 32.8271 77.6948 32.7652 77.6306C32.7033 77.5664 32.6666 77.4821 32.662 77.393C32.662 77.0384 33.316 76.7868 33.759 76.7868C33.8939 76.7691 34.031 76.7794 34.1618 76.817C34.2926 76.8546 34.4142 76.9187 34.5192 77.0053C34.6241 77.0919 34.7101 77.1992 34.7718 77.3204C34.8336 77.4417 34.8697 77.5744 34.8779 77.7102C34.8779 78.6045 33.5126 78.5504 33.5126 78.9164C33.5126 79.0683 33.6384 79.1348 33.7809 79.1348C34.0367 79.1348 34.3372 78.905 34.4838 78.905C34.5729 78.909 34.6568 78.9479 34.7175 79.0133C34.7782 79.0787 34.8108 79.1652 34.8083 79.2544Z" fill="#B5D9F1"/>
<path d="M32.8616 70.7031C32.8602 70.6472 32.8705 70.5916 32.8919 70.5398C32.9133 70.4881 32.9453 70.4415 32.9859 70.403C33.0265 70.3644 33.0747 70.3348 33.1275 70.3162C33.1803 70.2975 33.2364 70.2901 33.2922 70.2945H34.2426C34.4939 70.279 34.7455 70.3175 34.9807 70.4071C35.2159 70.4968 35.4293 70.6357 35.6065 70.8145C35.7837 70.9933 35.9207 71.2078 36.0083 71.4438C36.0958 71.6798 36.132 71.9318 36.1144 72.1829C36.1423 72.4455 36.1124 72.7111 36.0268 72.961C35.9412 73.2108 35.8019 73.4389 35.6188 73.6293C35.4357 73.8196 35.2131 73.9676 34.9668 74.0628C34.7204 74.158 34.4562 74.1982 34.1927 74.1805H33.2859C33.2307 74.1825 33.1757 74.1732 33.1244 74.153C33.073 74.1328 33.0263 74.1022 32.9873 74.0632C32.9482 74.0242 32.9177 73.9775 32.8975 73.9261C32.8773 73.8747 32.8679 73.8197 32.87 73.7645L32.8616 70.7031ZM33.68 73.4276H34.175C34.9289 73.4276 35.2554 72.9191 35.2554 72.2203C35.2554 71.5662 34.9352 71.0484 34.2301 71.0484H33.68V73.4276Z" fill="#B5D9F1"/>
<path d="M33.6216 63.2033C33.6198 63.1485 33.6294 63.0939 33.6498 63.043C33.6701 62.9921 33.7008 62.9459 33.7399 62.9074C33.779 62.8689 33.8256 62.8389 33.8768 62.8194C33.9281 62.7998 33.9828 62.791 34.0376 62.7936H35.4497C35.5003 62.7912 35.5509 62.7992 35.5983 62.8171C35.6457 62.835 35.6889 62.8625 35.7253 62.8978C35.7617 62.933 35.7904 62.9754 35.8097 63.0223C35.829 63.0691 35.8385 63.1194 35.8376 63.1701C35.8396 63.2211 35.8309 63.2719 35.812 63.3193C35.793 63.3667 35.7643 63.4096 35.7278 63.4452C35.6912 63.4808 35.6475 63.5083 35.5996 63.526C35.5517 63.5436 35.5007 63.5509 35.4497 63.5475H34.44V64.3794H35.3353C35.3866 64.3763 35.438 64.3837 35.4863 64.4013C35.5346 64.4188 35.5788 64.446 35.6161 64.4813C35.6534 64.5166 35.6831 64.5592 35.7033 64.6064C35.7236 64.6536 35.7339 64.7045 35.7336 64.7559C35.7346 64.8075 35.7249 64.8587 35.7049 64.9063C35.685 64.9539 35.6553 64.9968 35.6178 65.0322C35.5803 65.0677 35.5358 65.0949 35.4871 65.1121C35.4385 65.1294 35.3868 65.1362 35.3353 65.1323H34.44V65.9289H35.4009C35.4515 65.9263 35.5021 65.9342 35.5496 65.952C35.5971 65.9699 35.6404 65.9973 35.6768 66.0326C35.7131 66.068 35.7419 66.1104 35.7611 66.1573C35.7804 66.2042 35.7898 66.2546 35.7887 66.3053C35.7908 66.3563 35.782 66.4071 35.7631 66.4544C35.7442 66.5018 35.7155 66.5446 35.6789 66.5801C35.6423 66.6156 35.5986 66.6431 35.5507 66.6606C35.5028 66.6781 35.4517 66.6853 35.4009 66.6817H34.049C33.761 66.6817 33.6247 66.48 33.6247 66.2065L33.6216 63.2033Z" fill="#B5D9F1"/>
<path d="M36.2867 58.7352C36.2923 58.7902 36.2864 58.8458 36.2693 58.8983C36.2522 58.9509 36.2243 58.9993 36.1874 59.0405C36.1505 59.0816 36.1053 59.1145 36.0549 59.1372C36.0045 59.1598 35.9499 59.1717 35.8946 59.172C35.7995 59.1772 35.706 59.1462 35.6329 59.0852C35.5598 59.0243 35.5125 58.9378 35.5005 58.8434C35.4196 58.9584 35.3114 59.0516 35.1856 59.1146C35.0599 59.1775 34.9205 59.2083 34.7799 59.2042C34.5941 59.19 34.4131 59.139 34.2472 59.0542C34.0813 58.9694 33.9339 58.8525 33.8136 58.7103C33.6932 58.5681 33.6023 58.4034 33.5462 58.2258C33.49 58.0482 33.4696 57.8611 33.4863 57.6756C33.4863 56.8947 33.8741 56.1699 34.6988 56.1699C34.8514 56.1593 35.0042 56.1877 35.1428 56.2524C35.2815 56.3172 35.4013 56.4162 35.4911 56.5401H35.5005V56.355C35.5036 56.2686 35.4882 56.1825 35.4553 56.1026C35.4223 56.0227 35.3727 55.9508 35.3096 55.8917C35.2466 55.8326 35.1716 55.7876 35.0897 55.7599C35.0078 55.7322 34.921 55.7224 34.835 55.731C34.3816 55.731 34.1071 55.9754 33.8533 55.9754C33.7708 55.9606 33.6955 55.9189 33.6391 55.8568C33.5826 55.7948 33.5483 55.7158 33.5414 55.6322C33.5414 55.2007 34.4575 55.0426 34.7799 55.0426C34.9763 55.0179 35.1758 55.0369 35.3641 55.0981C35.5524 55.1594 35.7249 55.2614 35.8692 55.397C36.0135 55.5326 36.1261 55.6983 36.199 55.8824C36.2719 56.0665 36.3032 56.2645 36.2908 56.4621L36.2867 58.7352ZM35.5005 57.6642C35.5005 57.2825 35.304 56.8895 34.8839 56.8895C34.4637 56.8895 34.2724 57.2721 34.2724 57.6922C34.2724 58.0572 34.4804 58.4836 34.8839 58.4836C35.3164 58.4836 35.5005 58.0468 35.5005 57.6642Z" fill="#B5D9F1"/>
<path d="M33.7695 50.2997C33.7103 50.2822 33.6587 50.2453 33.6229 50.195C33.5871 50.1446 33.5691 50.0838 33.5719 50.0221C33.5719 49.7923 33.6977 49.6779 33.834 49.6779C33.9294 49.682 34.0226 49.708 34.1064 49.7538L36.2631 50.7479C36.3236 50.7747 36.375 50.8184 36.411 50.8737C36.4471 50.9291 36.4663 50.9938 36.4663 51.0599C36.4663 51.126 36.4471 51.1907 36.411 51.246C36.375 51.3014 36.3236 51.3451 36.2631 51.3719L34.1064 52.3597C34.0236 52.4087 33.9301 52.4369 33.834 52.4419C33.6977 52.4419 33.5719 52.3275 33.5719 52.0977C33.5693 52.0359 33.5872 51.975 33.623 51.9245C33.6588 51.8741 33.7103 51.837 33.7695 51.819L35.5851 51.0609L33.7695 50.2997Z" fill="#B5D9F1"/>
<path d="M34.6458 46.6781C34.6489 46.7311 34.6406 46.7842 34.6215 46.8337C34.6024 46.8833 34.5729 46.9281 34.5349 46.9653C34.497 47.0025 34.4515 47.031 34.4015 47.0491C34.3516 47.0672 34.2984 47.0744 34.2454 47.0701H33.7016C33.6188 47.0701 33.5395 47.0372 33.481 46.9787C33.4225 46.9202 33.3896 46.8409 33.3896 46.7581C33.3896 46.6754 33.4225 46.596 33.481 46.5375C33.5395 46.479 33.6188 46.4462 33.7016 46.4462H33.9574V42.8981H33.7016C33.6188 42.8981 33.5395 42.8652 33.481 42.8067C33.4225 42.7482 33.3896 42.6689 33.3896 42.5861C33.3896 42.5034 33.4225 42.4241 33.481 42.3656C33.5395 42.307 33.6188 42.2742 33.7016 42.2742H34.2454C34.2985 42.2699 34.3518 42.2771 34.4018 42.2952C34.4518 42.3134 34.4974 42.342 34.5353 42.3793C34.5733 42.4166 34.6028 42.4616 34.6219 42.5113C34.6409 42.561 34.6491 42.6142 34.6458 42.6673V46.6781Z" fill="#B5D9F1"/>
<path d="M33.7844 36.9631C33.7787 36.9081 33.7846 36.8525 33.8018 36.7999C33.819 36.7474 33.847 36.699 33.8841 36.6579C33.9211 36.6169 33.9664 36.584 34.0169 36.5616C34.0674 36.5391 34.1221 36.5275 34.1774 36.5275C34.2327 36.5275 34.2874 36.5391 34.338 36.5616C34.3885 36.584 34.4338 36.6169 34.4708 36.6579C34.5079 36.699 34.5359 36.7474 34.5531 36.7999C34.5702 36.8525 34.5762 36.9081 34.5705 36.9631V38.7746H34.7941C34.8424 38.7682 34.8916 38.7724 34.9381 38.787C34.9846 38.8016 35.0274 38.8263 35.0634 38.8592C35.0993 38.8921 35.1277 38.9325 35.1464 38.9775C35.1651 39.0225 35.1737 39.0711 35.1716 39.1198C35.1716 39.3704 34.9969 39.463 34.7941 39.463H34.5705V39.933C34.5762 39.988 34.5702 40.0436 34.5531 40.0962C34.5359 40.1488 34.5079 40.1971 34.4708 40.2382C34.4338 40.2793 34.3885 40.3121 34.338 40.3346C34.2874 40.357 34.2327 40.3687 34.1774 40.3687C34.1221 40.3687 34.0674 40.357 34.0169 40.3346C33.9664 40.3121 33.9211 40.2793 33.8841 40.2382C33.847 40.1971 33.819 40.1488 33.8018 40.0962C33.7846 40.0436 33.7787 39.988 33.7844 39.933V39.463H33.6097C33.5643 39.4641 33.5192 39.456 33.477 39.4392C33.4349 39.4224 33.3966 39.3971 33.3645 39.365C33.3324 39.3329 33.3071 39.2946 33.2903 39.2525C33.2735 39.2103 33.2654 39.1652 33.2665 39.1198C33.2624 39.0736 33.2685 39.0271 33.2842 38.9835C33.3 38.9399 33.3251 38.9003 33.3578 38.8674C33.3905 38.8345 33.43 38.8092 33.4735 38.7931C33.517 38.7771 33.5635 38.7708 33.6097 38.7746H33.7844V36.9631Z" fill="#B5D9F1"/>
<path d="M33.7844 19.2077C33.7787 19.1527 33.7846 19.0971 33.8018 19.0445C33.819 18.9919 33.847 18.9436 33.8841 18.9025C33.9211 18.8614 33.9664 18.8286 34.0169 18.8061C34.0674 18.7837 34.1221 18.772 34.1774 18.772C34.2327 18.772 34.2874 18.7837 34.338 18.8061C34.3885 18.8286 34.4338 18.8614 34.4708 18.9025C34.5079 18.9436 34.5359 18.9919 34.5531 19.0445C34.5702 19.0971 34.5762 19.1527 34.5705 19.2077V21.0202H34.7941C34.8424 21.0136 34.8915 21.0177 34.938 21.0322C34.9845 21.0467 35.0273 21.0712 35.0633 21.104C35.0993 21.1368 35.1277 21.1772 35.1464 21.2222C35.1651 21.2672 35.1737 21.3157 35.1716 21.3644C35.1716 21.616 34.9969 21.7086 34.7941 21.7086H34.5705V22.1786C34.5762 22.2336 34.5702 22.2892 34.5531 22.3418C34.5359 22.3944 34.5079 22.4428 34.4708 22.4838C34.4338 22.5249 34.3885 22.5577 34.338 22.5802C34.2874 22.6026 34.2327 22.6143 34.1774 22.6143C34.1221 22.6143 34.0674 22.6026 34.0169 22.5802C33.9664 22.5577 33.9211 22.5249 33.8841 22.4838C33.847 22.4428 33.819 22.3944 33.8018 22.3418C33.7846 22.2892 33.7787 22.2336 33.7844 22.1786V21.7034H33.6097C33.5642 21.7045 33.519 21.6964 33.4768 21.6795C33.4345 21.6626 33.3962 21.6373 33.3641 21.6051C33.332 21.5729 33.3068 21.5344 33.29 21.4922C33.2732 21.4499 33.2652 21.4047 33.2665 21.3592C33.2626 21.3131 33.2687 21.2667 33.2846 21.2232C33.3004 21.1797 33.3255 21.1402 33.3582 21.1075C33.3909 21.0747 33.4303 21.0494 33.4737 21.0335C33.5172 21.0175 33.5635 21.0112 33.6097 21.015H33.7844V19.2077Z" fill="#B5D9F1"/>
<path d="M34.8323 30.7214C35.295 31.3058 36.1415 32.0576 36.1415 32.8178C36.1421 32.9737 36.1106 33.128 36.0489 33.2712C35.9872 33.4144 35.8966 33.5433 35.7828 33.6499C35.669 33.7565 35.5344 33.8384 35.3875 33.8906C35.2406 33.9428 35.0845 33.9642 34.929 33.9533C34.5963 33.9527 34.2769 33.823 34.038 33.5916C33.799 33.3602 33.6592 33.0452 33.6478 32.7127C33.645 32.6597 33.6533 32.6067 33.6723 32.5571C33.6914 32.5076 33.7206 32.4626 33.7582 32.4251C33.7958 32.3876 33.8409 32.3585 33.8905 32.3396C33.9401 32.3207 33.9931 32.3125 34.0461 32.3155C34.5661 32.3155 34.2697 33.1994 34.8967 33.1994C35.0038 33.1953 35.1049 33.1495 35.1786 33.0718C35.2523 32.994 35.2926 32.8905 35.2908 32.7834C35.2806 32.5988 35.2142 32.4218 35.1006 32.276C34.6846 31.6749 34.1938 31.1841 33.7394 30.6434C33.6679 30.5674 33.6243 30.4696 33.6156 30.3657C33.6156 30.1141 33.8007 30.0049 34.0399 30.0049H35.8607C35.9109 29.999 35.9619 30.0041 36.01 30.0197C36.0581 30.0353 36.1023 30.0611 36.1395 30.0954C36.1767 30.1296 36.2061 30.1715 36.2256 30.2182C36.2452 30.2648 36.2544 30.3152 36.2527 30.3657C36.2527 30.6163 36.0676 30.7255 35.8285 30.7255L34.8323 30.7214Z" fill="#B5D9F1"/>
<path d="M25.2549 76.1506C25.2531 76.0958 25.2627 76.0412 25.2831 75.9903C25.3034 75.9393 25.3341 75.8932 25.3732 75.8547C25.4123 75.8162 25.4589 75.7862 25.5101 75.7666C25.5614 75.747 25.6161 75.7383 25.6709 75.7409H27.083C27.1336 75.7385 27.1842 75.7465 27.2316 75.7644C27.279 75.7823 27.3222 75.8097 27.3586 75.845C27.395 75.8803 27.4237 75.9227 27.443 75.9695C27.4623 76.0164 27.4718 76.0667 27.4709 76.1173C27.4729 76.1683 27.4642 76.2192 27.4453 76.2666C27.4263 76.314 27.3976 76.3569 27.3611 76.3925C27.3245 76.4281 27.2808 76.4556 27.2329 76.4732C27.185 76.4909 27.134 76.4982 27.083 76.4948H26.0733V77.3267H26.9686C27.0199 77.3236 27.0713 77.331 27.1196 77.3485C27.1679 77.3661 27.2121 77.3933 27.2494 77.4286C27.2867 77.4639 27.3164 77.5065 27.3366 77.5537C27.3569 77.6009 27.3672 77.6518 27.3669 77.7031C27.3679 77.7547 27.3582 77.806 27.3382 77.8536C27.3183 77.9012 27.2886 77.9441 27.2511 77.9795C27.2136 78.0149 27.1691 78.0422 27.1204 78.0594C27.0718 78.0766 27.0201 78.0835 26.9686 78.0796H26.0733V78.8761H27.0342C27.0848 78.8735 27.1354 78.8814 27.1829 78.8993C27.2304 78.9171 27.2737 78.9446 27.3101 78.9799C27.3465 79.0152 27.3752 79.0577 27.3944 79.1046C27.4137 79.1515 27.4231 79.2019 27.422 79.2526C27.4241 79.3035 27.4153 79.3543 27.3964 79.4017C27.3775 79.449 27.3488 79.4919 27.3122 79.5274C27.2756 79.5629 27.2319 79.5903 27.184 79.6078C27.1361 79.6253 27.085 79.6326 27.0342 79.629H25.6823C25.3943 79.629 25.2581 79.4273 25.2581 79.1538L25.2549 76.1506Z" fill="#B5D9F1"/>
<path d="M25.8149 63.247C25.7557 63.2294 25.7041 63.1925 25.6683 63.1422C25.6325 63.0919 25.6145 63.0311 25.6173 62.9694C25.6173 62.7396 25.7432 62.6252 25.8794 62.6252C25.9748 62.6293 26.068 62.6553 26.1518 62.7011L28.3085 63.6952C28.369 63.7219 28.4204 63.7656 28.4564 63.821C28.4925 63.8764 28.5117 63.9411 28.5117 64.0072C28.5117 64.0733 28.4925 64.1379 28.4564 64.1933C28.4204 64.2487 28.369 64.2924 28.3085 64.3191L26.1518 65.307C26.069 65.356 25.9755 65.3842 25.8794 65.3892C25.7432 65.3892 25.6173 65.2748 25.6173 65.045C25.6147 64.9832 25.6326 64.9223 25.6684 64.8718C25.7042 64.8213 25.7557 64.7842 25.8149 64.7663L27.6305 64.0082L25.8149 63.247Z" fill="#B5D9F1"/>
<path d="M27.9868 71.7098C27.9925 71.7648 27.9866 71.8204 27.9695 71.873C27.9524 71.9255 27.9245 71.9739 27.8876 72.0151C27.8506 72.0562 27.8055 72.0891 27.7551 72.1118C27.7047 72.1345 27.6501 72.1463 27.5948 72.1466C27.4997 72.1518 27.4062 72.1208 27.3331 72.0599C27.26 71.9989 27.2127 71.9125 27.2007 71.818C27.1198 71.933 27.0116 72.0262 26.8858 72.0892C26.7601 72.1521 26.6207 72.183 26.4801 72.1788C26.2943 72.1646 26.1133 72.1136 25.9474 72.0288C25.7815 71.944 25.6341 71.8271 25.5138 71.6849C25.3934 71.5427 25.3025 71.378 25.2463 71.2004C25.1902 71.0228 25.1698 70.8358 25.1865 70.6502C25.1865 69.8693 25.5743 69.1445 26.399 69.1445C26.5516 69.1339 26.7044 69.1623 26.843 69.2271C26.9817 69.2918 27.1015 69.3908 27.1913 69.5147H27.2007V69.3296C27.2038 69.2432 27.1884 69.1572 27.1555 69.0772C27.1225 68.9973 27.0729 68.9254 27.0098 68.8663C26.9468 68.8072 26.8718 68.7622 26.7899 68.7345C26.708 68.7068 26.6212 68.697 26.5352 68.7056C26.0818 68.7056 25.8073 68.95 25.5535 68.95C25.471 68.9352 25.3957 68.8935 25.3392 68.8314C25.2828 68.7694 25.2485 68.6904 25.2416 68.6069C25.2416 68.1753 26.1577 68.0172 26.4801 68.0172C26.6765 67.9925 26.876 68.0115 27.0643 68.0727C27.2526 68.134 27.4251 68.236 27.5694 68.3716C27.7137 68.5072 27.8263 68.6729 27.8992 68.857C27.9721 69.0411 28.0034 69.2391 27.991 69.4367L27.9868 71.7098ZM27.2007 70.6388C27.2007 70.2571 27.0042 69.8641 26.5841 69.8641C26.1639 69.8641 25.9726 70.2467 25.9726 70.6669C25.9726 71.0318 26.1806 71.4582 26.5841 71.4582C27.0166 71.4582 27.2007 71.0214 27.2007 70.6388Z" fill="#B5D9F1"/>
<path d="M26.9485 59.6527C26.9516 59.7057 26.9434 59.7588 26.9243 59.8083C26.9051 59.8579 26.8756 59.9027 26.8377 59.9399C26.7997 59.9771 26.7542 60.0057 26.7043 60.0237C26.6543 60.0418 26.6011 60.049 26.5482 60.0447H26.0043C25.9216 60.0447 25.8422 60.0118 25.7837 59.9533C25.7252 59.8948 25.6923 59.8155 25.6923 59.7327C25.6923 59.65 25.7252 59.5707 25.7837 59.5121C25.8422 59.4536 25.9216 59.4208 26.0043 59.4208H26.2601V55.8727H26.0043C25.9216 55.8727 25.8422 55.8399 25.7837 55.7813C25.7252 55.7228 25.6923 55.6435 25.6923 55.5608C25.6923 55.478 25.7252 55.3987 25.7837 55.3402C25.8422 55.2817 25.9216 55.2488 26.0043 55.2488H26.5482C26.6012 55.2445 26.6545 55.2517 26.7045 55.2698C26.7546 55.288 26.8001 55.3166 26.8381 55.3539C26.876 55.3912 26.9055 55.4362 26.9246 55.4859C26.9437 55.5356 26.9518 55.5888 26.9485 55.6419V59.6527Z" fill="#B5D9F1"/>
<path d="M26.6061 49.9382C26.6005 49.8832 26.6064 49.8276 26.6236 49.775C26.6408 49.7225 26.6688 49.6741 26.7058 49.633C26.7429 49.592 26.7881 49.5591 26.8387 49.5367C26.8892 49.5142 26.9439 49.5026 26.9992 49.5026C27.0545 49.5026 27.1092 49.5142 27.1598 49.5367C27.2103 49.5591 27.2556 49.592 27.2926 49.633C27.3297 49.6741 27.3577 49.7225 27.3748 49.775C27.392 49.8276 27.398 49.8832 27.3923 49.9382V51.7497H27.6159C27.6642 51.7433 27.7134 51.7475 27.7599 51.7621C27.8064 51.7767 27.8492 51.8013 27.8851 51.8343C27.9211 51.8672 27.9494 51.9076 27.9681 51.9526C27.9868 51.9976 27.9954 52.0462 27.9933 52.0949C27.9933 52.3455 27.8186 52.4381 27.6159 52.4381H27.3923V52.9081C27.398 52.9631 27.392 53.0187 27.3748 53.0713C27.3577 53.1239 27.3297 53.1722 27.2926 53.2133C27.2556 53.2544 27.2103 53.2872 27.1598 53.3097C27.1092 53.3321 27.0545 53.3438 26.9992 53.3438C26.9439 53.3438 26.8892 53.3321 26.8387 53.3097C26.7881 53.2872 26.7429 53.2544 26.7058 53.2133C26.6688 53.1722 26.6408 53.1239 26.6236 53.0713C26.6064 53.0187 26.6005 52.9631 26.6061 52.9081V52.4381H26.4314C26.3861 52.4392 26.3409 52.4311 26.2988 52.4143C26.2566 52.3974 26.2184 52.3722 26.1863 52.3401C26.1542 52.308 26.1289 52.2697 26.1121 52.2276C26.0952 52.1854 26.0871 52.1403 26.0883 52.0949C26.0842 52.0487 26.0902 52.0022 26.106 51.9586C26.1218 51.915 26.1469 51.8754 26.1796 51.8425C26.2123 51.8096 26.2517 51.7843 26.2952 51.7682C26.3388 51.7522 26.3852 51.7459 26.4314 51.7497H26.6061V49.9382Z" fill="#B5D9F1"/>
<path d="M26.6061 32.1833C26.6005 32.1283 26.6064 32.0727 26.6236 32.0201C26.6408 31.9675 26.6688 31.9191 26.7058 31.8781C26.7429 31.837 26.7881 31.8042 26.8387 31.7817C26.8892 31.7592 26.9439 31.7476 26.9992 31.7476C27.0545 31.7476 27.1092 31.7592 27.1597 31.7817C27.2103 31.8042 27.2555 31.837 27.2926 31.8781C27.3296 31.9191 27.3577 31.9675 27.3748 32.0201C27.392 32.0727 27.398 32.1283 27.3923 32.1833V33.9958H27.6159C27.6641 33.9892 27.7133 33.9933 27.7598 34.0078C27.8063 34.0222 27.8491 34.0468 27.8851 34.0796C27.9211 34.1124 27.9495 34.1528 27.9682 34.1978C27.9869 34.2428 27.9955 34.2913 27.9933 34.34C27.9933 34.5916 27.8186 34.6842 27.6159 34.6842H27.3923V35.1542C27.398 35.2092 27.392 35.2648 27.3748 35.3174C27.3577 35.37 27.3296 35.4183 27.2926 35.4594C27.2555 35.5005 27.2103 35.5333 27.1597 35.5558C27.1092 35.5782 27.0545 35.5898 26.9992 35.5898C26.9439 35.5898 26.8892 35.5782 26.8387 35.5558C26.7881 35.5333 26.7429 35.5005 26.7058 35.4594C26.6688 35.4183 26.6408 35.37 26.6236 35.3174C26.6064 35.2648 26.6005 35.2092 26.6061 35.1542V34.679H26.4314C26.386 34.6801 26.3408 34.672 26.2985 34.6551C26.2563 34.6382 26.218 34.6129 26.1859 34.5807C26.1538 34.5484 26.1285 34.51 26.1118 34.4678C26.095 34.4255 26.087 34.3802 26.0883 34.3348C26.0843 34.2887 26.0905 34.2423 26.1063 34.1988C26.1222 34.1553 26.1473 34.1158 26.18 34.083C26.2127 34.0503 26.2521 34.025 26.2955 34.0091C26.3389 33.9931 26.3853 33.9868 26.4314 33.9906H26.6061V32.1833Z" fill="#B5D9F1"/>
<path d="M26.573 43.6676C27.0357 44.2521 27.8822 45.0039 27.8822 45.764C27.8829 45.92 27.8513 46.0743 27.7896 46.2175C27.7279 46.3607 27.6373 46.4896 27.5235 46.5962C27.4097 46.7028 27.2752 46.7847 27.1283 46.8369C26.9813 46.8891 26.8252 46.9105 26.6697 46.8996C26.3371 46.899 26.0176 46.7693 25.7787 46.5379C25.5397 46.3065 25.3999 45.9914 25.3886 45.659C25.3857 45.606 25.3941 45.553 25.4131 45.5034C25.4321 45.4539 25.4613 45.4089 25.4989 45.3714C25.5365 45.3339 25.5816 45.3048 25.6312 45.2859C25.6808 45.267 25.7338 45.2588 25.7868 45.2618C26.3068 45.2618 26.0104 46.1457 26.6375 46.1457C26.7445 46.1416 26.8457 46.0958 26.9193 46.0181C26.993 45.9403 27.0333 45.8368 27.0316 45.7297C27.0213 45.5451 26.9549 45.3681 26.8413 45.2223C26.4253 44.6212 25.9345 44.1304 25.4801 43.5897C25.4087 43.5137 25.3651 43.4159 25.3563 43.312C25.3563 43.0604 25.5414 42.9512 25.7806 42.9512H27.6014C27.6517 42.9453 27.7026 42.9504 27.7507 42.966C27.7988 42.9816 27.843 43.0074 27.8802 43.0417C27.9174 43.0759 27.9468 43.1178 27.9664 43.1645C27.9859 43.2111 27.9951 43.2615 27.9935 43.312C27.9935 43.5626 27.8084 43.6718 27.5692 43.6718L26.573 43.6676Z" fill="#B5D9F1"/>
<path d="M62.7934 71.0307C62.7342 71.0131 62.6826 70.9762 62.6468 70.9259C62.611 70.8756 62.5931 70.8148 62.5958 70.7531C62.5958 70.5232 62.7217 70.4089 62.8579 70.4089C62.9533 70.413 63.0465 70.4389 63.1303 70.4848L65.287 71.4789C65.3475 71.5056 65.3989 71.5493 65.435 71.6047C65.471 71.6601 65.4902 71.7248 65.4902 71.7909C65.4902 71.857 65.471 71.9216 65.435 71.977C65.3989 72.0324 65.3475 72.0761 65.287 72.1028L63.1303 73.0907C63.0475 73.1397 62.954 73.1679 62.8579 73.1729C62.7217 73.1729 62.5958 73.0585 62.5958 72.8287C62.5932 72.7669 62.6112 72.7059 62.6469 72.6555C62.6827 72.605 62.7342 72.5679 62.7934 72.55L64.609 71.7919L62.7934 71.0307Z" fill="#B5D9F1"/>
<path d="M64.9649 79.4945C64.9705 79.5495 64.9646 79.6051 64.9475 79.6576C64.9304 79.7102 64.9025 79.7586 64.8656 79.7997C64.8287 79.8409 64.7836 79.8738 64.7331 79.8965C64.6827 79.9191 64.6281 79.931 64.5728 79.9313C64.4778 79.9365 64.3843 79.9055 64.3111 79.8445C64.238 79.7835 64.1907 79.6971 64.1787 79.6027C64.0978 79.7177 63.9896 79.8109 63.8639 79.8738C63.7381 79.9368 63.5987 79.9676 63.4581 79.9635C63.2723 79.9492 63.0913 79.8982 62.9254 79.8134C62.7595 79.7286 62.6122 79.6118 62.4918 79.4696C62.3715 79.3273 62.2806 79.1627 62.2244 78.985C62.1682 78.8074 62.1478 78.6204 62.1645 78.4349C62.1645 77.6539 62.5524 76.9291 63.377 76.9291C63.5296 76.9185 63.6824 76.947 63.8211 77.0117C63.9597 77.0765 64.0796 77.1755 64.1694 77.2993H64.1787V77.1142C64.1818 77.0279 64.1664 76.9418 64.1335 76.8619C64.1006 76.782 64.0509 76.7101 63.9878 76.6509C63.9248 76.5918 63.8498 76.5469 63.7679 76.5192C63.6861 76.4915 63.5992 76.4816 63.5132 76.4903C63.0598 76.4903 62.7853 76.7347 62.5316 76.7347C62.449 76.7198 62.3737 76.6782 62.3173 76.6161C62.2609 76.5541 62.2265 76.4751 62.2196 76.3915C62.2196 75.96 63.1357 75.8019 63.4581 75.8019C63.6545 75.7772 63.854 75.7961 64.0423 75.8574C64.2306 75.9186 64.4031 76.0207 64.5474 76.1563C64.6917 76.2918 64.8043 76.4576 64.8772 76.6417C64.9501 76.8258 64.9814 77.0237 64.969 77.2213L64.9649 79.4945ZM64.1787 78.4234C64.1787 78.0418 63.9822 77.6487 63.5621 77.6487C63.142 77.6487 62.9506 78.0314 62.9506 78.4515C62.9506 78.8165 63.1586 79.2429 63.5621 79.2429C63.9947 79.2429 64.1787 78.8061 64.1787 78.4234Z" fill="#B5D9F1"/>
<path d="M63.9304 67.4378C63.9336 67.4908 63.9253 67.5439 63.9062 67.5935C63.8871 67.643 63.8575 67.6879 63.8196 67.7251C63.7816 67.7622 63.7362 67.7908 63.6862 67.8089C63.6363 67.827 63.583 67.8341 63.5301 67.8299H62.9862C62.9035 67.8299 62.8241 67.797 62.7656 67.7385C62.7071 67.68 62.6743 67.6006 62.6743 67.5179C62.6743 67.4352 62.7071 67.3558 62.7656 67.2973C62.8241 67.2388 62.9035 67.2059 62.9862 67.2059H63.242V63.6579H62.9862C62.9035 63.6579 62.8241 63.625 62.7656 63.5665C62.7071 63.508 62.6743 63.4286 62.6743 63.3459C62.6743 63.2632 62.7071 63.1838 62.7656 63.1253C62.8241 63.0668 62.9035 63.0339 62.9862 63.0339H63.5301C63.5831 63.0297 63.6365 63.0368 63.6865 63.055C63.7365 63.0731 63.782 63.1018 63.82 63.1391C63.858 63.1764 63.8875 63.2214 63.9065 63.271C63.9256 63.3207 63.9337 63.3739 63.9304 63.427V67.4378Z" fill="#B5D9F1"/>
<path d="M63.5842 57.7224C63.5785 57.6674 63.5845 57.6118 63.6016 57.5592C63.6188 57.5066 63.6468 57.4583 63.6839 57.4172C63.7209 57.3761 63.7662 57.3433 63.8167 57.3208C63.8672 57.2984 63.9219 57.2868 63.9772 57.2868C64.0326 57.2868 64.0872 57.2984 64.1378 57.3208C64.1883 57.3433 64.2336 57.3761 64.2706 57.4172C64.3077 57.4583 64.3357 57.5066 64.3529 57.5592C64.37 57.6118 64.376 57.6674 64.3703 57.7224V59.5339H64.5939C64.6422 59.5274 64.6914 59.5317 64.7379 59.5463C64.7844 59.5609 64.8272 59.5855 64.8632 59.6184C64.8991 59.6513 64.9275 59.6917 64.9462 59.7368C64.9649 59.7818 64.9735 59.8304 64.9714 59.8791C64.9714 60.1297 64.7967 60.2223 64.5939 60.2223H64.3703V60.6923C64.376 60.7473 64.37 60.8029 64.3529 60.8555C64.3357 60.908 64.3077 60.9564 64.2706 60.9975C64.2336 61.0386 64.1883 61.0714 64.1378 61.0939C64.0872 61.1163 64.0326 61.1279 63.9772 61.1279C63.9219 61.1279 63.8672 61.1163 63.8167 61.0939C63.7662 61.0714 63.7209 61.0386 63.6839 60.9975C63.6468 60.9564 63.6188 60.908 63.6016 60.8555C63.5845 60.8029 63.5785 60.7473 63.5842 60.6923V60.2223H63.4095C63.3641 60.2234 63.319 60.2153 63.2768 60.1985C63.2347 60.1816 63.1964 60.1564 63.1643 60.1243C63.1322 60.0922 63.107 60.0539 63.0901 60.0118C63.0733 59.9696 63.0652 59.9245 63.0663 59.8791C63.0622 59.8329 63.0683 59.7864 63.084 59.7428C63.0998 59.6992 63.1249 59.6596 63.1576 59.6267C63.1903 59.5938 63.2298 59.5684 63.2733 59.5524C63.3168 59.5364 63.3633 59.53 63.4095 59.5339H63.5842V57.7224Z" fill="#B5D9F1"/>
<path d="M63.5842 39.9675C63.5785 39.9124 63.5844 39.8568 63.6016 39.8043C63.6188 39.7517 63.6468 39.7033 63.6839 39.6623C63.7209 39.6212 63.7662 39.5884 63.8167 39.5659C63.8672 39.5434 63.9219 39.5318 63.9772 39.5318C64.0325 39.5318 64.0872 39.5434 64.1378 39.5659C64.1883 39.5884 64.2336 39.6212 64.2706 39.6623C64.3077 39.7033 64.3357 39.7517 64.3529 39.8043C64.37 39.8568 64.376 39.9124 64.3703 39.9675V41.78H64.5939C64.6422 41.7734 64.6913 41.7775 64.7378 41.7919C64.7843 41.8064 64.8271 41.8309 64.8631 41.8638C64.8991 41.8966 64.9275 41.9369 64.9462 41.9819C64.9649 42.0269 64.9735 42.0755 64.9714 42.1242C64.9714 42.3758 64.7967 42.4684 64.5939 42.4684H64.3703V42.9384C64.376 42.9934 64.37 43.049 64.3529 43.1016C64.3357 43.1541 64.3077 43.2025 64.2706 43.2436C64.2336 43.2846 64.1883 43.3175 64.1378 43.3399C64.0872 43.3624 64.0325 43.374 63.9772 43.374C63.9219 43.374 63.8672 43.3624 63.8167 43.3399C63.7662 43.3175 63.7209 43.2846 63.6839 43.2436C63.6468 43.2025 63.6188 43.1541 63.6016 43.1016C63.5844 43.049 63.5785 42.9934 63.5842 42.9384V42.4632H63.4095C63.364 42.4643 63.3188 42.4562 63.2766 42.4393C63.2343 42.4224 63.196 42.397 63.1639 42.3648C63.1318 42.3326 63.1066 42.2942 63.0898 42.2519C63.073 42.2097 63.065 42.1644 63.0663 42.119C63.0624 42.0729 63.0685 42.0264 63.0844 41.983C63.1002 41.9395 63.1253 41.9 63.158 41.8672C63.1907 41.8345 63.2301 41.8092 63.2735 41.7932C63.317 41.7773 63.3634 41.771 63.4095 41.7748H63.5842V39.9675Z" fill="#B5D9F1"/>
<path d="M63.551 51.4533C64.0138 52.0377 64.8602 52.7895 64.8602 53.5497C64.8609 53.7056 64.8294 53.86 64.7677 54.0032C64.706 54.1463 64.6154 54.2752 64.5016 54.3818C64.3878 54.4884 64.2532 54.5704 64.1063 54.6226C63.9594 54.6748 63.8033 54.6961 63.6477 54.6852C63.3151 54.6846 62.9957 54.555 62.7567 54.3236C62.5178 54.0922 62.3779 53.7771 62.3666 53.4447C62.3637 53.3916 62.3721 53.3386 62.3911 53.2891C62.4101 53.2395 62.4394 53.1945 62.477 53.157C62.5145 53.1195 62.5596 53.0904 62.6092 53.0715C62.6588 53.0526 62.7119 53.0444 62.7649 53.0474C63.2848 53.0474 62.9884 53.9313 63.6155 53.9313C63.7225 53.9273 63.8237 53.8814 63.8973 53.8037C63.971 53.726 64.0113 53.6225 64.0096 53.5154C63.9993 53.3308 63.9329 53.1537 63.8193 53.0079C63.4033 52.4069 62.9125 51.916 62.4581 51.3753C62.3867 51.2994 62.3431 51.2015 62.3344 51.0977C62.3344 50.846 62.5195 50.7368 62.7586 50.7368H64.5794C64.6297 50.7309 64.6806 50.736 64.7287 50.7516C64.7768 50.7672 64.821 50.7931 64.8582 50.8273C64.8955 50.8616 64.9248 50.9035 64.9444 50.9501C64.9639 50.9968 64.9732 51.0471 64.9715 51.0977C64.9715 51.3483 64.7864 51.4574 64.5472 51.4574L63.551 51.4533Z" fill="#B5D9F1"/>
<path d="M12.5964 41.6087V41.1439C12.5964 40.8548 12.7098 40.7186 12.9895 40.7186C13.2692 40.7186 13.3805 40.8579 13.3805 41.147V41.6087H13.4741C13.5236 41.605 13.5734 41.6115 13.6204 41.6278C13.6673 41.6442 13.7103 41.6701 13.7467 41.7039C13.7832 41.7376 13.8123 41.7786 13.8322 41.8241C13.852 41.8697 13.8623 41.9188 13.8623 41.9685C13.8623 42.0182 13.852 42.0674 13.8322 42.1129C13.8123 42.1584 13.7832 42.1994 13.7467 42.2332C13.7103 42.2669 13.6673 42.2928 13.6204 42.3092C13.5734 42.3256 13.5236 42.3321 13.4741 42.3283H13.3805V44.0067C13.3922 44.0949 13.3847 44.1845 13.3586 44.2695C13.3324 44.3546 13.2882 44.4329 13.2289 44.4993C13.1697 44.5656 13.0968 44.6184 13.0153 44.654C12.9338 44.6896 12.8455 44.7071 12.7566 44.7055C12.643 44.7174 12.5285 44.6938 12.4288 44.6379C12.3292 44.5821 12.2493 44.4967 12.2002 44.3935L10.9773 42.1765C10.9275 42.1063 10.9006 42.0224 10.9004 41.9363C10.9031 41.8897 10.9152 41.8441 10.9361 41.8023C10.957 41.7605 10.9862 41.7235 11.022 41.6934C11.0577 41.6633 11.0992 41.6408 11.1439 41.6273C11.1886 41.6139 11.2356 41.6096 11.282 41.615L12.5964 41.6087ZM12.5964 42.3283H11.8488L12.586 43.8517H12.5964V42.3283Z" fill="#B5D9F1"/>
<path d="M11.0357 34.3733C11.0339 34.3185 11.0435 34.2639 11.0638 34.2129C11.0842 34.162 11.1149 34.1158 11.154 34.0773C11.193 34.0389 11.2397 34.0089 11.2909 33.9893C11.3421 33.9697 11.3969 33.9609 11.4516 33.9636H12.8638C12.9144 33.9611 12.965 33.9691 13.0124 33.987C13.0598 34.0049 13.103 34.0324 13.1394 34.0677C13.1757 34.103 13.2044 34.1453 13.2238 34.1922C13.2431 34.239 13.2526 34.2893 13.2517 34.34C13.2537 34.391 13.2449 34.4418 13.226 34.4893C13.2071 34.5367 13.1784 34.5796 13.1418 34.6151C13.1053 34.6507 13.0616 34.6783 13.0137 34.6959C12.9658 34.7135 12.9147 34.7209 12.8638 34.7175H11.8541L11.8541 35.5494H12.7494C12.8007 35.5462 12.8521 35.5537 12.9003 35.5712C12.9486 35.5887 12.9928 35.616 13.0302 35.6513C13.0675 35.6865 13.0972 35.7291 13.1174 35.7763C13.1376 35.8236 13.1479 35.8744 13.1477 35.9258C13.1487 35.9774 13.1389 36.0286 13.119 36.0762C13.099 36.1238 13.0693 36.1667 13.0318 36.2022C12.9943 36.2376 12.9498 36.2648 12.9012 36.2821C12.8526 36.2993 12.8009 36.3062 12.7494 36.3022H11.8541V37.0988H12.8149C12.8656 37.0962 12.9162 37.1041 12.9637 37.1219C13.0111 37.1398 13.0544 37.1672 13.0908 37.2026C13.1272 37.2379 13.1559 37.2803 13.1752 37.3272C13.1945 37.3741 13.2039 37.4245 13.2028 37.4752C13.2048 37.5262 13.1961 37.577 13.1771 37.6243C13.1582 37.6717 13.1295 37.7145 13.0929 37.7501C13.0563 37.7856 13.0126 37.813 12.9647 37.8305C12.9168 37.848 12.8658 37.8552 12.8149 37.8517H11.4631C11.175 37.8517 11.0388 37.6499 11.0388 37.3764L11.0357 34.3733Z" fill="#B5D9F1"/>
<path d="M11.0868 78.3236C11.0276 78.306 10.976 78.2691 10.9402 78.2188C10.9044 78.1685 10.8864 78.1077 10.8892 78.046C10.8892 77.8162 11.015 77.7018 11.1513 77.7018C11.2467 77.7059 11.3399 77.7319 11.4237 77.7777L13.5804 78.7728C13.6412 78.7992 13.693 78.8428 13.7294 78.8982C13.7658 78.9537 13.7852 79.0185 13.7852 79.0848C13.7852 79.1511 13.7658 79.2159 13.7294 79.2714C13.693 79.3268 13.6412 79.3704 13.5804 79.3968L11.4237 80.3846C11.3409 80.4337 11.2474 80.4619 11.1513 80.4668C11.015 80.4668 10.8892 80.3524 10.8892 80.1226C10.8866 80.0608 10.9045 79.9999 10.9403 79.9494C10.9761 79.899 11.0276 79.8619 11.0868 79.8439L12.9024 79.0858L11.0868 78.3236Z" fill="#B5D9F1"/>
<path d="M11.9754 74.7015C11.9786 74.7545 11.9703 74.8076 11.9512 74.8571C11.9321 74.9067 11.9025 74.9516 11.8646 74.9887C11.8266 75.0259 11.7811 75.0545 11.7312 75.0726C11.6813 75.0906 11.628 75.0978 11.5751 75.0935H11.0312C10.9485 75.0935 10.8691 75.0607 10.8106 75.0022C10.7521 74.9437 10.7193 74.8643 10.7193 74.7816C10.7193 74.6988 10.7521 74.6195 10.8106 74.561C10.8691 74.5025 10.9485 74.4696 11.0312 74.4696H11.287L11.287 70.9215H11.0312C10.9485 70.9215 10.8691 70.8887 10.8106 70.8302C10.7521 70.7717 10.7193 70.6923 10.7193 70.6096C10.7193 70.5268 10.7521 70.4475 10.8106 70.389C10.8691 70.3305 10.9485 70.2976 11.0312 70.2976H11.5751C11.628 70.2934 11.6813 70.3005 11.7312 70.3186C11.7811 70.3367 11.8266 70.3653 11.8646 70.4024C11.9025 70.4396 11.9321 70.4844 11.9512 70.534C11.9703 70.5835 11.9786 70.6366 11.9754 70.6897L11.9754 74.7015Z" fill="#B5D9F1"/>
<path d="M11.1105 64.9875C11.1049 64.9325 11.1108 64.8769 11.128 64.8244C11.1452 64.7718 11.1732 64.7234 11.2102 64.6823C11.2473 64.6413 11.2925 64.6084 11.3431 64.586C11.3936 64.5635 11.4483 64.5519 11.5036 64.5519C11.5589 64.5519 11.6136 64.5635 11.6641 64.586C11.7147 64.6084 11.7599 64.6413 11.797 64.6823C11.834 64.7234 11.8621 64.7718 11.8792 64.8244C11.8964 64.8769 11.9023 64.9325 11.8967 64.9875L11.8967 66.799H12.1203C12.1685 66.7924 12.2177 66.7965 12.2642 66.811C12.3107 66.8255 12.3535 66.85 12.3895 66.8828C12.4255 66.9156 12.4539 66.956 12.4726 67.001C12.4913 67.046 12.4999 67.0945 12.4977 67.1432C12.4977 67.3949 12.323 67.4874 12.1203 67.4874H11.8956V67.9574C11.9013 68.0124 11.8954 68.068 11.8782 68.1206C11.861 68.1732 11.833 68.2216 11.7959 68.2626C11.7589 68.3037 11.7136 68.3365 11.6631 68.359C11.6126 68.3815 11.5579 68.3931 11.5026 68.3931C11.4473 68.3931 11.3926 68.3815 11.342 68.359C11.2915 68.3365 11.2462 68.3037 11.2092 68.2626C11.1721 68.2216 11.1441 68.1732 11.1269 68.1206C11.1098 68.068 11.1038 68.0124 11.1095 67.9574V67.4874H10.9348C10.8894 67.4884 10.8442 67.4802 10.8021 67.4632C10.7599 67.4463 10.7216 67.4209 10.6895 67.3887C10.6575 67.3566 10.6323 67.3182 10.6154 67.276C10.5986 67.2338 10.5905 67.1886 10.5916 67.1432C10.5877 67.0971 10.5939 67.0507 10.6097 67.0072C10.6255 66.9637 10.6507 66.9242 10.6833 66.8915C10.716 66.8587 10.7554 66.8335 10.7989 66.8175C10.8423 66.8015 10.8887 66.7952 10.9348 66.799H11.1095L11.1105 64.9875Z" fill="#B5D9F1"/>
<path d="M12.1592 58.7458C12.622 59.3303 13.4695 60.0821 13.4695 60.8422C13.47 60.9981 13.4384 61.1524 13.3766 61.2955C13.3148 61.4386 13.2242 61.5675 13.1105 61.674C12.9967 61.7806 12.8622 61.8625 12.7154 61.9148C12.5685 61.9671 12.4125 61.9885 12.257 61.9778C11.9242 61.9774 11.6045 61.8479 11.3653 61.6165C11.1261 61.3851 10.9861 61.0698 10.9748 60.7372C10.9718 60.6841 10.98 60.631 10.999 60.5813C11.0179 60.5316 11.0471 60.4865 11.0847 60.4489C11.1224 60.4113 11.1675 60.3821 11.2172 60.3631C11.2668 60.3442 11.32 60.3359 11.3731 60.3389C11.893 60.3389 11.5966 61.2239 12.2237 61.2239C12.3307 61.2198 12.4319 61.174 12.5056 61.0963C12.5792 61.0185 12.6195 60.915 12.6178 60.8079C12.6078 60.623 12.5414 60.4455 12.4275 60.2994C12.0116 59.6994 11.5218 59.2086 11.0663 58.6679C10.9949 58.5919 10.9513 58.4941 10.9426 58.3902C10.9426 58.1386 11.1277 58.0294 11.3668 58.0294H13.1908C13.241 58.0235 13.2919 58.0286 13.3401 58.0442C13.3882 58.0598 13.4323 58.0856 13.4696 58.1199C13.5068 58.1541 13.5362 58.196 13.5557 58.2427C13.5753 58.2893 13.5845 58.3397 13.5828 58.3902C13.5828 58.6408 13.3977 58.75 13.1585 58.75L12.1592 58.7458Z" fill="#B5D9F1"/>
<path d="M11.627 49.8283C11.6213 49.7733 11.6273 49.7177 11.6445 49.6651C11.6616 49.6125 11.6896 49.5642 11.7267 49.5231C11.7637 49.482 11.809 49.4492 11.8595 49.4267C11.9101 49.4043 11.9648 49.3927 12.0201 49.3927C12.0754 49.3927 12.1301 49.4043 12.1806 49.4267C12.2311 49.4492 12.2764 49.482 12.3135 49.5231C12.3505 49.5642 12.3785 49.6125 12.3957 49.6651C12.4129 49.7177 12.4188 49.7733 12.4132 49.8283L12.4132 51.6408H12.6388C12.6871 51.6342 12.7362 51.6383 12.7827 51.6528C12.8293 51.6673 12.872 51.6918 12.908 51.7246C12.9441 51.7574 12.9724 51.7978 12.9911 51.8428C13.0098 51.8878 13.0184 51.9363 13.0163 51.985C13.0163 52.2366 12.8416 52.3292 12.6388 52.3292H12.4152V52.7992C12.4209 52.8542 12.415 52.9098 12.3978 52.9624C12.3806 53.015 12.3526 53.0634 12.3155 53.1044C12.2785 53.1455 12.2332 53.1783 12.1827 53.2008C12.1322 53.2233 12.0775 53.2349 12.0222 53.2349C11.9669 53.2349 11.9122 53.2233 11.8616 53.2008C11.8111 53.1783 11.7658 53.1455 11.7288 53.1044C11.6917 53.0634 11.6637 53.015 11.6465 52.9624C11.6294 52.9098 11.6234 52.8542 11.6291 52.7992V52.324H11.4544C11.409 52.325 11.3638 52.3168 11.3217 52.2998C11.2795 52.2829 11.2412 52.2575 11.2091 52.2253C11.1771 52.1932 11.1518 52.1548 11.135 52.1126C11.1182 52.0704 11.1101 52.0252 11.1112 51.9798C11.1073 51.9337 11.1135 51.8873 11.1293 51.8438C11.1451 51.8003 11.1703 51.7608 11.2029 51.7281C11.2356 51.6953 11.275 51.67 11.3185 51.6541C11.3619 51.6381 11.4083 51.6318 11.4544 51.6356H11.6291L11.627 49.8283Z" fill="#B5D9F1"/>
<path d="M49.1893 74.373C50.2895 74.373 50.6348 75.4909 50.6348 76.3821C50.6348 77.2732 50.2895 78.3911 49.1893 78.3911C48.0891 78.3911 47.7408 77.2712 47.7408 76.3821C47.7408 75.493 48.086 74.373 49.1893 74.373ZM49.1893 75.1145C48.6309 75.1145 48.5945 75.9942 48.5945 76.3821C48.5945 76.798 48.6309 77.6476 49.1893 77.6476C49.7478 77.6476 49.7821 76.7959 49.7821 76.3821C49.7852 75.9942 49.7457 75.1145 49.1893 75.1145Z" fill="#B5D9F1"/>
<path d="M49.1893 67.814C50.2895 67.814 50.6348 68.9329 50.6348 69.822C50.6348 70.7111 50.2895 71.8311 49.1893 71.8311C48.0891 71.8311 47.7408 70.7132 47.7408 69.822C47.7408 68.9308 48.086 67.814 49.1893 67.814ZM49.1893 68.5575C48.6309 68.5575 48.5945 69.4352 48.5945 69.822C48.5945 70.238 48.6309 71.0896 49.1893 71.0896C49.7478 71.0896 49.7821 70.238 49.7821 69.822C49.7852 69.4352 49.7457 68.5575 49.1893 68.5575Z" fill="#B5D9F1"/>
<path d="M48.4468 61.7148C48.444 61.6594 48.4525 61.6039 48.4719 61.5518C48.4912 61.4997 48.5208 61.4521 48.5591 61.4119C48.5974 61.3716 48.6434 61.3396 48.6945 61.3177C48.7455 61.2958 48.8005 61.2845 48.856 61.2845C48.9116 61.2845 48.9665 61.2958 49.0176 61.3177C49.0686 61.3396 49.1147 61.3716 49.1529 61.4119C49.1912 61.4521 49.2209 61.4997 49.2402 61.5518C49.2595 61.6039 49.268 61.6594 49.2652 61.7148V64.8209C49.2697 64.8711 49.2634 64.9217 49.2469 64.9693C49.2303 65.0169 49.2039 65.0605 49.1693 65.0971C49.1347 65.1338 49.0928 65.1627 49.0462 65.1819C48.9997 65.2012 48.9495 65.2103 48.8992 65.2088H48.1234C48.0741 65.2094 48.0251 65.2 47.9795 65.1812C47.9338 65.1625 47.8925 65.1347 47.8578 65.0995C47.8231 65.0644 47.7959 65.0226 47.7778 64.9767C47.7596 64.9308 47.7509 64.8817 47.7522 64.8324C47.7486 64.7824 47.7556 64.7323 47.7729 64.6852C47.7902 64.6382 47.8173 64.5954 47.8525 64.5597C47.8876 64.524 47.9299 64.4962 47.9766 64.4781C48.0234 64.46 48.0734 64.4521 48.1234 64.4549H48.4468V61.7148Z" fill="#B5D9F1"/>
<path d="M49.1893 54.6977C50.2895 54.6977 50.6348 55.8166 50.6348 56.7068C50.6348 57.5969 50.2895 58.7158 49.1893 58.7158C48.0891 58.7158 47.7408 57.5969 47.7408 56.7068C47.7408 55.8166 48.086 54.6977 49.1893 54.6977ZM49.1893 55.4392C48.6309 55.4392 48.5945 56.3189 48.5945 56.7068C48.5945 57.1227 48.6309 57.9723 49.1893 57.9723C49.7478 57.9723 49.7821 57.1217 49.7821 56.7068C49.7852 56.3179 49.7457 55.4392 49.1893 55.4392Z" fill="#B5D9F1"/>
<path d="M48.4468 48.5977C48.444 48.5422 48.4525 48.4867 48.4719 48.4346C48.4912 48.3826 48.5208 48.3349 48.5591 48.2947C48.5974 48.2544 48.6434 48.2224 48.6945 48.2005C48.7455 48.1786 48.8005 48.1673 48.856 48.1673C48.9116 48.1673 48.9665 48.1786 49.0176 48.2005C49.0686 48.2224 49.1147 48.2544 49.1529 48.2947C49.1912 48.3349 49.2209 48.3826 49.2402 48.4346C49.2595 48.4867 49.268 48.5422 49.2652 48.5977V51.7038C49.2697 51.754 49.2634 51.8045 49.2469 51.8521C49.2303 51.8997 49.2039 51.9433 49.1693 51.9799C49.1347 52.0166 49.0928 52.0455 49.0462 52.0647C48.9997 52.084 48.9495 52.0932 48.8992 52.0916H48.1234C48.074 52.0922 48.0249 52.0828 47.9792 52.064C47.9335 52.0451 47.8921 52.0172 47.8574 51.982C47.8227 51.9467 47.7956 51.9048 47.7775 51.8588C47.7594 51.8128 47.7508 51.7636 47.7522 51.7142C47.7487 51.6643 47.7559 51.6142 47.7733 51.5673C47.7906 51.5204 47.8178 51.4778 47.8529 51.4422C47.888 51.4066 47.9303 51.3788 47.9769 51.3608C48.0236 51.3428 48.0735 51.335 48.1234 51.3377H48.4468V48.5977Z" fill="#B5D9F1"/>
<path d="M48.4468 42.0381C48.444 41.9827 48.4525 41.9272 48.4719 41.8751C48.4912 41.8231 48.5208 41.7754 48.5591 41.7352C48.5974 41.6949 48.6434 41.6629 48.6945 41.641C48.7455 41.6191 48.8005 41.6078 48.856 41.6078C48.9116 41.6078 48.9665 41.6191 49.0176 41.641C49.0686 41.6629 49.1147 41.6949 49.1529 41.7352C49.1912 41.7754 49.2209 41.8231 49.2402 41.8751C49.2595 41.9272 49.268 41.9827 49.2652 42.0381V45.1432C49.2697 45.1934 49.2634 45.244 49.2469 45.2916C49.2303 45.3392 49.2039 45.3827 49.1693 45.4194C49.1347 45.456 49.0928 45.4849 49.0462 45.5042C48.9997 45.5234 48.9495 45.5326 48.8992 45.5311H48.1234C48.0741 45.5317 48.0251 45.5223 47.9795 45.5035C47.9338 45.4847 47.8925 45.4569 47.8578 45.4218C47.8231 45.3867 47.7959 45.3449 47.7778 45.299C47.7596 45.2531 47.7509 45.204 47.7522 45.1547C47.7486 45.1047 47.7556 45.0545 47.7729 45.0075C47.7902 44.9605 47.8173 44.9177 47.8525 44.882C47.8876 44.8462 47.9299 44.8184 47.9766 44.8004C48.0234 44.7823 48.0734 44.7744 48.1234 44.7772H48.4468V42.0381Z" fill="#B5D9F1"/>
<path d="M71.6453 66.0023V65.5374C71.6453 65.2484 71.7586 65.1121 72.0383 65.1121C72.3181 65.1121 72.4293 65.2515 72.4293 65.5406V66.0023H72.5229C72.5725 65.9985 72.6223 66.005 72.6692 66.0214C72.7161 66.0378 72.7591 66.0636 72.7956 66.0974C72.832 66.1312 72.8611 66.1721 72.881 66.2177C72.9009 66.2632 72.9111 66.3124 72.9111 66.3621C72.9111 66.4118 72.9009 66.4609 72.881 66.5065C72.8611 66.552 72.832 66.5929 72.7956 66.6267C72.7591 66.6605 72.7161 66.6864 72.6692 66.7028C72.6223 66.7191 72.5725 66.7256 72.5229 66.7219H72.4293V68.4002C72.441 68.4884 72.4335 68.5781 72.4074 68.6631C72.3812 68.7481 72.337 68.8265 72.2778 68.8928C72.2185 68.9592 72.1456 69.012 72.0641 69.0476C71.9826 69.0831 71.8943 69.1007 71.8054 69.099C71.6918 69.111 71.5773 69.0874 71.4776 69.0315C71.378 68.9756 71.2981 68.8902 71.2491 68.7871L70.0262 66.57C69.9763 66.4999 69.9494 66.4159 69.9492 66.3298C69.9519 66.2832 69.9641 66.2376 69.985 66.1958C70.0059 66.1541 70.0351 66.117 70.0708 66.0869C70.1065 66.0569 70.148 66.0344 70.1927 66.0209C70.2375 66.0074 70.2845 66.0032 70.3309 66.0085L71.6453 66.0023ZM71.6453 66.7219H70.8976L71.6349 68.2453H71.6453V66.7219Z" fill="#B5D9F1"/>
<path d="M70.0811 58.7663C70.0793 58.7115 70.0889 58.6569 70.1093 58.606C70.1296 58.5551 70.1603 58.5089 70.1994 58.4704C70.2384 58.4319 70.2851 58.4019 70.3363 58.3824C70.3875 58.3628 70.4423 58.354 70.4971 58.3566H71.9092C71.9598 58.3542 72.0104 58.3622 72.0578 58.3801C72.1052 58.398 72.1484 58.4255 72.1848 58.4607C72.2211 58.496 72.2499 58.5384 72.2692 58.5852C72.2885 58.6321 72.298 58.6824 72.2971 58.7331C72.2991 58.7841 72.2903 58.8349 72.2714 58.8823C72.2525 58.9297 72.2238 58.9726 72.1872 59.0082C72.1507 59.0438 72.107 59.0713 72.0591 59.0889C72.0112 59.1066 71.9601 59.1139 71.9092 59.1105H70.8995V59.9424H71.7948C71.8461 59.9393 71.8975 59.9467 71.9458 59.9643C71.994 59.9818 72.0382 60.009 72.0756 60.0443C72.1129 60.0796 72.1426 60.1222 72.1628 60.1694C72.183 60.2166 72.1933 60.2675 72.1931 60.3189C72.1941 60.3705 72.1843 60.4217 72.1644 60.4693C72.1444 60.5169 72.1148 60.5598 72.0773 60.5952C72.0398 60.6307 71.9953 60.6579 71.9466 60.6751C71.898 60.6924 71.8463 60.6992 71.7948 60.6953H70.8995V61.4919H71.8603C71.911 61.4893 71.9616 61.4972 72.0091 61.515C72.0566 61.5329 72.0998 61.5603 72.1362 61.5956C72.1726 61.6309 72.2013 61.6734 72.2206 61.7203C72.2399 61.7672 72.2493 61.8176 72.2482 61.8683C72.2502 61.9192 72.2415 61.9701 72.2226 62.0174C72.2036 62.0648 72.1749 62.1076 72.1383 62.1431C72.1017 62.1786 72.0581 62.206 72.0102 62.2236C71.9623 62.2411 71.9112 62.2483 71.8603 62.2447H70.5085C70.2204 62.2447 70.0842 62.043 70.0842 61.7695L70.0811 58.7663Z" fill="#B5D9F1"/>
<path d="M72.75 54.2968C72.7557 54.3517 72.7498 54.4073 72.7327 54.4599C72.7156 54.5124 72.6877 54.5608 72.6508 54.602C72.6138 54.6431 72.5687 54.6761 72.5183 54.6987C72.4679 54.7214 72.4133 54.7332 72.358 54.7335C72.2629 54.7387 72.1694 54.7077 72.0963 54.6468C72.0231 54.5858 71.9758 54.4994 71.9639 54.4049C71.883 54.5199 71.7748 54.6131 71.649 54.6761C71.5232 54.7391 71.3838 54.7699 71.2432 54.7657C71.0575 54.7515 70.8764 54.7005 70.7106 54.6157C70.5447 54.5309 70.3973 54.414 70.277 54.2718C70.1566 54.1296 70.0657 53.9649 70.0095 53.7873C69.9533 53.6097 69.933 53.4227 69.9496 53.2371C69.9496 52.4562 70.3375 51.7314 71.1621 51.7314C71.3148 51.7208 71.4676 51.7492 71.6062 51.814C71.7448 51.8787 71.8647 51.9777 71.9545 52.1016H71.9639V51.9165C71.967 51.8301 71.9516 51.7441 71.9186 51.6642C71.8857 51.5842 71.836 51.5123 71.773 51.4532C71.7099 51.3941 71.635 51.3492 71.5531 51.3214C71.4712 51.2937 71.3844 51.2839 71.2984 51.2926C70.845 51.2926 70.5704 51.5369 70.3167 51.5369C70.2342 51.5221 70.1588 51.4804 70.1024 51.4184C70.046 51.3563 70.0117 51.2773 70.0048 51.1938C70.0048 50.7622 70.9209 50.6042 71.2432 50.6042C71.4397 50.5794 71.6392 50.5984 71.8275 50.6596C72.0158 50.7209 72.1882 50.8229 72.3326 50.9585C72.4769 51.0941 72.5895 51.2598 72.6624 51.4439C72.7353 51.6281 72.7666 51.826 72.7542 52.0236L72.75 54.2968ZM71.9639 53.2257C71.9639 52.8441 71.7673 52.451 71.3472 52.451C70.9271 52.451 70.7358 52.8337 70.7358 53.2538C70.7358 53.6188 70.9438 54.0451 71.3472 54.0451C71.7798 54.0451 71.9639 53.6084 71.9639 53.2257Z" fill="#B5D9F1"/>
<path d="M70.2329 45.8627C70.1737 45.8452 70.1221 45.8083 70.0863 45.7579C70.0504 45.7076 70.0325 45.6468 70.0353 45.5851C70.0353 45.3553 70.1611 45.2409 70.2973 45.2409C70.3928 45.245 70.486 45.271 70.5698 45.3168L72.7265 46.3109C72.787 46.3376 72.8383 46.3814 72.8744 46.4367C72.9105 46.4921 72.9297 46.5568 72.9297 46.6229C72.9297 46.689 72.9105 46.7537 72.8744 46.809C72.8383 46.8644 72.787 46.9081 72.7265 46.9348L70.5698 47.9227C70.4869 47.9717 70.3935 47.9999 70.2973 48.0049C70.1611 48.0049 70.0353 47.8905 70.0353 47.6607C70.0326 47.5989 70.0506 47.538 70.0864 47.4875C70.1221 47.4371 70.1737 47.3999 70.2329 47.382L72.0485 46.6239L70.2329 45.8627Z" fill="#B5D9F1"/>
<path d="M70.6758 74.2209C70.6702 74.1659 70.6761 74.1103 70.6933 74.0577C70.7105 74.0051 70.7385 73.9567 70.7755 73.9157C70.8126 73.8746 70.8578 73.8418 70.9084 73.8193C70.9589 73.7968 71.0136 73.7852 71.0689 73.7852C71.1242 73.7852 71.1789 73.7968 71.2294 73.8193C71.28 73.8418 71.3252 73.8746 71.3623 73.9157C71.3993 73.9567 71.4274 74.0051 71.4445 74.0577C71.4617 74.1103 71.4676 74.1659 71.462 74.2209V76.0334H71.6876C71.7359 76.0268 71.785 76.0309 71.8316 76.0454C71.8781 76.0598 71.9209 76.0844 71.9569 76.1172C71.9929 76.15 72.0212 76.1904 72.0399 76.2354C72.0586 76.2803 72.0672 76.3289 72.0651 76.3776C72.0651 76.6292 71.8904 76.7218 71.6876 76.7218H71.4641V77.1918C71.4697 77.2468 71.4638 77.3024 71.4466 77.355C71.4294 77.4076 71.4014 77.4559 71.3644 77.497C71.3273 77.5381 71.2821 77.5709 71.2315 77.5934C71.181 77.6158 71.1263 77.6274 71.071 77.6274C71.0157 77.6274 70.961 77.6158 70.9105 77.5934C70.8599 77.5709 70.8147 77.5381 70.7776 77.497C70.7406 77.4559 70.7125 77.4076 70.6954 77.355C70.6782 77.3024 70.6722 77.2468 70.6779 77.1918V76.7166H70.5032C70.4578 76.7176 70.4126 76.7093 70.3705 76.6924C70.3283 76.6754 70.29 76.6501 70.258 76.6179C70.2259 76.5857 70.2007 76.5474 70.1838 76.5052C70.167 76.463 70.1589 76.4178 70.1601 76.3724C70.1561 76.3263 70.1623 76.2799 70.1781 76.2364C70.194 76.1929 70.2191 76.1534 70.2518 76.1206C70.2844 76.0879 70.3239 76.0626 70.3673 76.0467C70.4107 76.0307 70.4571 76.0244 70.5032 76.0282H70.6779L70.6758 74.2209Z" fill="#B5D9F1"/>
</g>
<path d="M55.2929 82.498C55.2337 82.4804 55.1821 82.4435 55.1463 82.3932C55.1105 82.3429 55.0926 82.282 55.0954 82.2203C55.0954 81.9905 55.2212 81.8761 55.3574 81.8761C55.4528 81.8803 55.546 81.9062 55.6299 81.9521L57.7866 82.9462C57.847 82.9729 57.8984 83.0166 57.9345 83.072C57.9705 83.1274 57.9897 83.192 57.9897 83.2581C57.9897 83.3242 57.9705 83.3889 57.9345 83.4443C57.8984 83.4997 57.847 83.5434 57.7866 83.5701L55.6299 84.558C55.547 84.607 55.4535 84.6352 55.3574 84.6401C55.2212 84.6401 55.0954 84.5258 55.0954 84.2959C55.0927 84.2341 55.1107 84.1732 55.1464 84.1228C55.1822 84.0723 55.2337 84.0352 55.2929 84.0173L57.1086 83.2592L55.2929 82.498Z" fill="#B5D9F1"/>
<path d="M56.1687 78.8753C56.1719 78.9283 56.1636 78.9814 56.1445 79.031C56.1254 79.0805 56.0958 79.1254 56.0579 79.1626C56.0199 79.1997 55.9744 79.2283 55.9245 79.2464C55.8746 79.2645 55.8213 79.2716 55.7684 79.2674H55.2245C55.1418 79.2674 55.0624 79.2345 55.0039 79.176C54.9454 79.1175 54.9125 79.0381 54.9125 78.9554C54.9125 78.8727 54.9454 78.7933 55.0039 78.7348C55.0624 78.6763 55.1418 78.6434 55.2245 78.6434H55.4803V75.0954H55.2245C55.1418 75.0954 55.0624 75.0625 55.0039 75.004C54.9454 74.9455 54.9125 74.8661 54.9125 74.7834C54.9125 74.7007 54.9454 74.6213 55.0039 74.5628C55.0624 74.5043 55.1418 74.4714 55.2245 74.4714H55.7684C55.8214 74.4672 55.8747 74.4743 55.9248 74.4925C55.9748 74.5106 56.0203 74.5393 56.0583 74.5766C56.0962 74.6139 56.1258 74.6589 56.1448 74.7085C56.1639 74.7582 56.172 74.8114 56.1687 74.8645V78.8753Z" fill="#B5D9F1"/>
<path d="M55.3117 69.1609C55.306 69.1059 55.312 69.0503 55.3292 68.9977C55.3463 68.9451 55.3744 68.8967 55.4114 68.8557C55.4485 68.8146 55.4937 68.7818 55.5443 68.7593C55.5948 68.7368 55.6495 68.7252 55.7048 68.7252C55.7601 68.7252 55.8148 68.7368 55.8653 68.7593C55.9159 68.7818 55.9611 68.8146 55.9982 68.8557C56.0352 68.8967 56.0632 68.9451 56.0804 68.9977C56.0976 69.0503 56.1035 69.1059 56.0979 69.1609V70.9723H56.3214C56.3698 70.9659 56.4189 70.9702 56.4654 70.9848C56.512 70.9994 56.5547 71.024 56.5907 71.0569C56.6267 71.0898 56.655 71.1302 56.6737 71.1752C56.6924 71.2203 56.701 71.2689 56.6989 71.3176C56.6989 71.5682 56.5242 71.6607 56.3214 71.6607H56.0979V72.1308C56.1035 72.1858 56.0976 72.2414 56.0804 72.2939C56.0632 72.3465 56.0352 72.3949 55.9982 72.436C55.9611 72.477 55.9159 72.5099 55.8653 72.5323C55.8148 72.5548 55.7601 72.5664 55.7048 72.5664C55.6495 72.5664 55.5948 72.5548 55.5443 72.5323C55.4937 72.5099 55.4485 72.477 55.4114 72.436C55.3744 72.3949 55.3463 72.3465 55.3292 72.2939C55.312 72.2414 55.306 72.1858 55.3117 72.1308V71.6607H55.137C55.0916 71.6619 55.0465 71.6538 55.0044 71.6369C54.9622 71.6201 54.9239 71.5949 54.8918 71.5628C54.8597 71.5307 54.8345 71.4924 54.8176 71.4502C54.8008 71.4081 54.7927 71.363 54.7939 71.3176C54.7898 71.2714 54.7958 71.2249 54.8116 71.1813C54.8273 71.1377 54.8524 71.098 54.8851 71.0651C54.9178 71.0323 54.9573 71.0069 55.0008 70.9909C55.0443 70.9748 55.0908 70.9685 55.137 70.9723H55.3117V69.1609Z" fill="#B5D9F1"/>
<path d="M55.3117 51.4054C55.306 51.3504 55.312 51.2948 55.3292 51.2423C55.3463 51.1897 55.3743 51.1413 55.4114 51.1002C55.4484 51.0592 55.4937 51.0263 55.5442 51.0039C55.5948 50.9814 55.6495 50.9698 55.7048 50.9698C55.7601 50.9698 55.8148 50.9814 55.8653 51.0039C55.9159 51.0263 55.9611 51.0592 55.9982 51.1002C56.0352 51.1413 56.0632 51.1897 56.0804 51.2423C56.0976 51.2948 56.1035 51.3504 56.0979 51.4054V53.2179H56.3214C56.3697 53.2114 56.4188 53.2154 56.4654 53.2299C56.5119 53.2444 56.5547 53.2689 56.5907 53.3018C56.6267 53.3346 56.655 53.3749 56.6737 53.4199C56.6924 53.4649 56.701 53.5135 56.6989 53.5621C56.6989 53.8138 56.5242 53.9063 56.3214 53.9063H56.0979V54.3764C56.1035 54.4314 56.0976 54.487 56.0804 54.5396C56.0632 54.5921 56.0352 54.6405 55.9982 54.6816C55.9611 54.7226 55.9159 54.7555 55.8653 54.7779C55.8148 54.8004 55.7601 54.812 55.7048 54.812C55.6495 54.812 55.5948 54.8004 55.5442 54.7779C55.4937 54.7555 55.4484 54.7226 55.4114 54.6816C55.3743 54.6405 55.3463 54.5921 55.3292 54.5396C55.312 54.487 55.306 54.4314 55.3117 54.3764V53.9011H55.137C55.0915 53.9023 55.0463 53.8942 55.0041 53.8773C54.9619 53.8604 54.9235 53.835 54.8914 53.8028C54.8593 53.7706 54.8341 53.7322 54.8173 53.6899C54.8005 53.6477 54.7926 53.6024 54.7938 53.5569C54.7899 53.5108 54.7961 53.4644 54.8119 53.421C54.8278 53.3775 54.8529 53.338 54.8856 53.3052C54.9182 53.2724 54.9576 53.2472 55.0011 53.2312C55.0445 53.2153 55.0909 53.209 55.137 53.2127H55.3117V51.4054Z" fill="#B5D9F1"/>
<path d="M56.3596 62.9201C56.8224 63.5045 57.6688 64.2563 57.6688 65.0165C57.6695 65.1724 57.638 65.3268 57.5763 65.47C57.5145 65.6131 57.424 65.742 57.3102 65.8486C57.1964 65.9552 57.0618 66.0372 56.9149 66.0894C56.768 66.1416 56.6118 66.1629 56.4563 66.152C56.1237 66.1514 55.8043 66.0218 55.5653 65.7904C55.3264 65.559 55.1865 65.2439 55.1752 64.9115C55.1723 64.8584 55.1807 64.8054 55.1997 64.7559C55.2187 64.7063 55.248 64.6613 55.2855 64.6238C55.3231 64.5863 55.3682 64.5572 55.4178 64.5383C55.4674 64.5194 55.5205 64.5112 55.5735 64.5142C56.0934 64.5142 55.797 65.3981 56.4241 65.3981C56.5311 65.3941 56.6323 65.3482 56.7059 65.2705C56.7796 65.1928 56.8199 65.0893 56.8182 64.9822C56.8079 64.7976 56.7415 64.6205 56.6279 64.4747C56.2119 63.8737 55.7211 63.3828 55.2667 62.8421C55.1953 62.7662 55.1517 62.6683 55.143 62.5644C55.143 62.3128 55.328 62.2036 55.5672 62.2036H57.388C57.4383 62.1977 57.4892 62.2028 57.5373 62.2184C57.5854 62.234 57.6296 62.2599 57.6668 62.2941C57.704 62.3284 57.7334 62.3703 57.753 62.4169C57.7725 62.4636 57.7818 62.5139 57.7801 62.5644C57.7801 62.8151 57.595 62.9242 57.3558 62.9242L56.3596 62.9201Z" fill="#B5D9F1"/>
<path d="M41.4027 83.5566C41.3999 83.5011 41.4084 83.4457 41.4277 83.3936C41.447 83.3415 41.4767 83.2939 41.515 83.2536C41.5532 83.2134 41.5993 83.1813 41.6503 83.1594C41.7014 83.1375 41.7563 83.1262 41.8119 83.1262C41.8674 83.1262 41.9224 83.1375 41.9734 83.1594C42.0245 83.1813 42.0705 83.2134 42.1088 83.2536C42.1471 83.2939 42.1768 83.3415 42.1961 83.3936C42.2154 83.4457 42.2239 83.5011 42.2211 83.5566V86.6627C42.2258 86.7129 42.2198 86.7635 42.2035 86.8112C42.1872 86.8588 42.1608 86.9025 42.1263 86.9392C42.0918 86.9759 42.0498 87.0048 42.0032 87.024C41.9566 87.0432 41.9064 87.0523 41.8561 87.0506H41.0824C41.0328 87.0514 40.9836 87.0422 40.9377 87.0235C40.8918 87.0048 40.8502 86.9769 40.8154 86.9416C40.7806 86.9063 40.7533 86.8643 40.7352 86.8182C40.7171 86.772 40.7086 86.7227 40.7101 86.6731C40.7068 86.6232 40.7141 86.5731 40.7316 86.5262C40.7491 86.4793 40.7763 86.4367 40.8115 86.4011C40.8467 86.3655 40.8891 86.3378 40.9358 86.3198C40.9825 86.3018 41.0324 86.2939 41.0824 86.2967H41.4027V83.5566Z" fill="#B5D9F1"/>
<path d="M41.3143 50.3422C41.3115 50.2868 41.32 50.2313 41.3393 50.1792C41.3586 50.1271 41.3883 50.0795 41.4266 50.0393C41.4649 49.999 41.5109 49.967 41.562 49.9451C41.613 49.9232 41.668 49.9119 41.7235 49.9119C41.779 49.9119 41.834 49.9232 41.885 49.9451C41.9361 49.967 41.9821 49.999 42.0204 50.0393C42.0587 50.0795 42.0884 50.1271 42.1077 50.1792C42.127 50.2313 42.1355 50.2868 42.1327 50.3422V53.4483C42.1375 53.4985 42.1315 53.5491 42.1151 53.5968C42.0988 53.6445 42.0725 53.6881 42.0379 53.7248C42.0034 53.7615 41.9614 53.7905 41.9148 53.8097C41.8682 53.8289 41.8181 53.8379 41.7677 53.8362H40.994C40.9445 53.8371 40.8952 53.8279 40.8493 53.8092C40.8034 53.7904 40.7618 53.7626 40.727 53.7273C40.6922 53.692 40.6649 53.65 40.6468 53.6038C40.6287 53.5577 40.6202 53.5083 40.6218 53.4587C40.6184 53.4088 40.6258 53.3587 40.6432 53.3118C40.6607 53.265 40.688 53.2223 40.7231 53.1867C40.7583 53.1511 40.8007 53.1234 40.8474 53.1054C40.8941 53.0874 40.9441 53.0796 40.994 53.0823H41.3143V50.3422Z" fill="#B5D9F1"/>
<path d="M42.1473 76.5395C43.2506 76.5395 43.5938 77.6584 43.5938 78.5486C43.5938 79.4387 43.2506 80.5576 42.1473 80.5576C41.044 80.5576 40.7008 79.4377 40.7008 78.5486C40.7008 77.6595 41.045 76.5395 42.1473 76.5395ZM42.1473 77.281C41.5909 77.281 41.5525 78.1607 41.5525 78.5486C41.5525 78.9645 41.5909 79.8141 42.1473 79.8141C42.7036 79.8141 42.7421 78.9624 42.7421 78.5486C42.7421 78.1607 42.7036 77.281 42.1473 77.281Z" fill="#B5D9F1"/>
<path d="M42.0628 43.3252C43.1661 43.3252 43.5093 44.4441 43.5093 45.3342C43.5093 46.2244 43.1661 47.3433 42.0628 47.3433C40.9595 47.3433 40.6163 46.2233 40.6163 45.3342C40.6163 44.4451 40.9605 43.3252 42.0628 43.3252ZM42.0628 44.0666C41.5065 44.0666 41.468 44.9463 41.468 45.3342C41.468 45.7502 41.5065 46.5997 42.0628 46.5997C42.6191 46.5997 42.6576 45.7481 42.6576 45.3342C42.6576 44.9463 42.6191 44.0666 42.0628 44.0666Z" fill="#B5D9F1"/>
<path d="M42.1473 69.9815C43.2506 69.9815 43.5938 71.0994 43.5938 71.9895C43.5938 72.8796 43.2506 73.9985 42.1473 73.9985C41.044 73.9985 40.7008 72.8796 40.7008 71.9895C40.7008 71.0994 41.045 69.9815 42.1473 69.9815ZM42.1473 70.7229C41.5909 70.7229 41.5525 71.6016 41.5525 71.9895C41.5525 72.4054 41.5909 73.255 42.1473 73.255C42.7036 73.255 42.7421 72.4044 42.7421 71.9895C42.7421 71.6016 42.7036 70.7229 42.1473 70.7229Z" fill="#B5D9F1"/>
<path d="M42.0628 36.7676C43.1661 36.7676 43.5093 37.8855 43.5093 38.7756C43.5093 39.6658 43.1661 40.7847 42.0628 40.7847C40.9595 40.7847 40.6163 39.6658 40.6163 38.7756C40.6163 37.8855 40.9605 36.7676 42.0628 36.7676ZM42.0628 37.5091C41.5065 37.5091 41.468 38.3877 41.468 38.7756C41.468 39.1916 41.5065 40.0412 42.0628 40.0412C42.6191 40.0412 42.6576 39.1905 42.6576 38.7756C42.6576 38.3877 42.6191 37.5091 42.0628 37.5091Z" fill="#B5D9F1"/>
<path d="M41.4027 63.8808C41.3999 63.8253 41.4084 63.7699 41.4277 63.7178C41.447 63.6657 41.4767 63.6181 41.515 63.5779C41.5532 63.5376 41.5993 63.5056 41.6503 63.4837C41.7014 63.4618 41.7563 63.4505 41.8119 63.4505C41.8674 63.4505 41.9224 63.4618 41.9734 63.4837C42.0245 63.5056 42.0705 63.5376 42.1088 63.5779C42.1471 63.6181 42.1768 63.6657 42.1961 63.7178C42.2154 63.7699 42.2239 63.8253 42.2211 63.8808V66.9869C42.2258 67.0371 42.2198 67.0877 42.2035 67.1354C42.1872 67.1831 42.1608 67.2267 42.1263 67.2634C42.0918 67.3001 42.0498 67.329 42.0032 67.3482C41.9566 67.3674 41.9064 67.3765 41.8561 67.3748H41.0824C41.0329 67.3757 40.9838 67.3665 40.938 67.3478C40.8921 67.3292 40.8506 67.3014 40.8158 67.2662C40.781 67.231 40.7537 67.1891 40.7355 67.1431C40.7173 67.0971 40.7087 67.0478 40.7101 66.9984C40.7067 66.9483 40.7139 66.8982 40.7313 66.8511C40.7487 66.8041 40.7759 66.7613 40.8111 66.7256C40.8463 66.6899 40.8887 66.6621 40.9355 66.6441C40.9823 66.626 41.0323 66.6181 41.0824 66.6209H41.4027V63.8808Z" fill="#B5D9F1"/>
<path d="M41.3143 30.6669C41.3115 30.6115 41.32 30.556 41.3393 30.5039C41.3586 30.4519 41.3883 30.4042 41.4266 30.364C41.4649 30.3237 41.5109 30.2917 41.562 30.2698C41.613 30.2479 41.668 30.2366 41.7235 30.2366C41.779 30.2366 41.834 30.2479 41.885 30.2698C41.9361 30.2917 41.9821 30.3237 42.0204 30.364C42.0587 30.4042 42.0884 30.4519 42.1077 30.5039C42.127 30.556 42.1355 30.6115 42.1327 30.6669V33.7731C42.1375 33.8232 42.1315 33.8738 42.1151 33.9215C42.0988 33.9692 42.0725 34.0128 42.0379 34.0495C42.0034 34.0862 41.9614 34.1152 41.9148 34.1344C41.8682 34.1536 41.8181 34.1626 41.7677 34.1609H40.994C40.9446 34.1618 40.8954 34.1526 40.8496 34.1339C40.8037 34.1153 40.7622 34.0875 40.7274 34.0523C40.6926 34.0171 40.6653 33.9753 40.6471 33.9292C40.629 33.8832 40.6203 33.834 40.6218 33.7845C40.6183 33.7345 40.6255 33.6843 40.6429 33.6373C40.6603 33.5903 40.6875 33.5475 40.7227 33.5118C40.7579 33.4761 40.8003 33.4483 40.8471 33.4302C40.8939 33.4122 40.944 33.4042 40.994 33.407H41.3143V30.6669Z" fill="#B5D9F1"/>
<path d="M41.4027 57.3233C41.3999 57.2678 41.4084 57.2123 41.4277 57.1602C41.447 57.1082 41.4767 57.0606 41.515 57.0203C41.5532 56.9801 41.5993 56.948 41.6503 56.9261C41.7014 56.9042 41.7563 56.8929 41.8119 56.8929C41.8674 56.8929 41.9224 56.9042 41.9734 56.9261C42.0245 56.948 42.0705 56.9801 42.1088 57.0203C42.1471 57.0606 42.1768 57.1082 42.1961 57.1602C42.2154 57.2123 42.2239 57.2678 42.2211 57.3233V60.4283C42.2258 60.4785 42.2198 60.5291 42.2035 60.5768C42.1872 60.6245 42.1608 60.6681 42.1263 60.7048C42.0918 60.7415 42.0498 60.7704 42.0032 60.7896C41.9566 60.8089 41.9064 60.8179 41.8561 60.8162H41.0824C41.0329 60.8172 40.9837 60.8081 40.9378 60.7895C40.8919 60.7709 40.8503 60.7432 40.8154 60.7079C40.7806 60.6727 40.7533 60.6308 40.7352 60.5847C40.7171 60.5386 40.7086 60.4893 40.7101 60.4398C40.7066 60.3898 40.7139 60.3396 40.7313 60.2927C40.7487 60.2457 40.7759 60.203 40.8111 60.1674C40.8464 60.1318 40.8888 60.104 40.9356 60.0861C40.9823 60.0682 41.0324 60.0604 41.0824 60.0633H41.4027V57.3233Z" fill="#B5D9F1"/>
<path d="M41.3143 24.1089C41.3115 24.0534 41.32 23.998 41.3393 23.9459C41.3586 23.8938 41.3883 23.8462 41.4266 23.8059C41.4649 23.7657 41.5109 23.7336 41.562 23.7117C41.613 23.6898 41.668 23.6786 41.7235 23.6786C41.779 23.6786 41.834 23.6898 41.885 23.7117C41.9361 23.7336 41.9821 23.7657 42.0204 23.8059C42.0587 23.8462 42.0884 23.8938 42.1077 23.9459C42.127 23.998 42.1355 24.0534 42.1327 24.1089V27.214C42.1375 27.2642 42.1315 27.3148 42.1151 27.3624C42.0988 27.4101 42.0725 27.4538 42.0379 27.4905C42.0034 27.5272 41.9614 27.5561 41.9148 27.5753C41.8682 27.5945 41.8181 27.6036 41.7677 27.6018H40.994C40.9445 27.6029 40.8953 27.5938 40.8494 27.5752C40.8035 27.5566 40.7619 27.5288 40.727 27.4936C40.6922 27.4584 40.6649 27.4164 40.6468 27.3703C40.6287 27.3242 40.6202 27.2749 40.6218 27.2254C40.6183 27.1754 40.6255 27.1253 40.6429 27.0783C40.6603 27.0314 40.6875 26.9886 40.7228 26.953C40.758 26.9174 40.8004 26.8897 40.8472 26.8718C40.894 26.8538 40.944 26.846 40.994 26.849H41.3143V24.1089Z" fill="#B5D9F1"/>
<path d="M18.7318 66.1958C18.729 66.1403 18.7375 66.0848 18.7568 66.0327C18.7761 65.9807 18.8058 65.933 18.8441 65.8928C18.8823 65.8525 18.9284 65.8205 18.9794 65.7986C19.0305 65.7767 19.0854 65.7654 19.141 65.7654C19.1965 65.7654 19.2515 65.7767 19.3025 65.7986C19.3536 65.8205 19.3996 65.8525 19.4379 65.8928C19.4762 65.933 19.5059 65.9807 19.5252 66.0327C19.5445 66.0848 19.553 66.1403 19.5502 66.1958V69.3019C19.5549 69.352 19.5489 69.4027 19.5326 69.4503C19.5163 69.498 19.4899 69.5416 19.4554 69.5784C19.4209 69.6151 19.3789 69.644 19.3323 69.6632C19.2857 69.6824 19.2355 69.6914 19.1852 69.6897H18.4115C18.3619 69.6906 18.3127 69.6814 18.2668 69.6627C18.2209 69.6439 18.1793 69.6161 18.1445 69.5808C18.1097 69.5455 18.0824 69.5035 18.0643 69.4573C18.0462 69.4112 18.0377 69.3618 18.0392 69.3123C18.0359 69.2623 18.0432 69.2123 18.0607 69.1654C18.0782 69.1185 18.1054 69.0758 18.1406 69.0402C18.1758 69.0047 18.2182 68.9769 18.2649 68.9589C18.3116 68.9409 18.3615 68.9331 18.4115 68.9358H18.7318V66.1958Z" fill="#B5D9F1"/>
<path d="M19.4808 59.1787C20.5841 59.1787 20.9272 60.2976 20.9272 61.1877C20.9272 62.0779 20.5841 63.1968 19.4808 63.1968C18.3775 63.1968 18.0343 62.0768 18.0343 61.1877C18.0343 60.2986 18.3785 59.1787 19.4808 59.1787ZM19.4808 59.9201C18.9244 59.9201 18.886 60.7999 18.886 61.1877C18.886 61.6037 18.9244 62.4533 19.4808 62.4533C20.0371 62.4533 20.0756 61.6016 20.0756 61.1877C20.0756 60.7999 20.0371 59.9201 19.4808 59.9201Z" fill="#B5D9F1"/>
<path d="M19.4808 52.6216C20.5841 52.6216 20.9272 53.7395 20.9272 54.6296C20.9272 55.5198 20.5841 56.6387 19.4808 56.6387C18.3775 56.6387 18.0343 55.5198 18.0343 54.6296C18.0343 53.7395 18.3785 52.6216 19.4808 52.6216ZM19.4808 53.3631C18.9244 53.3631 18.886 54.2418 18.886 54.6296C18.886 55.0456 18.9244 55.8952 19.4808 55.8952C20.0371 55.8952 20.0756 55.0445 20.0756 54.6296C20.0756 54.2418 20.0371 53.3631 19.4808 53.3631Z" fill="#B5D9F1"/>
<path d="M18.8163 79.7348C18.8135 79.6793 18.822 79.6239 18.8413 79.5718C18.8606 79.5197 18.8903 79.4721 18.9285 79.4319C18.9668 79.3916 19.0129 79.3596 19.0639 79.3377C19.115 79.3158 19.1699 79.3045 19.2255 79.3045C19.281 79.3045 19.336 79.3158 19.387 79.3377C19.438 79.3596 19.4841 79.3916 19.5224 79.4319C19.5606 79.4721 19.5903 79.5197 19.6096 79.5718C19.6289 79.6239 19.6374 79.6793 19.6346 79.7348V82.8409C19.6394 82.8911 19.6334 82.9417 19.6171 82.9894C19.6007 83.0371 19.5744 83.0807 19.5399 83.1174C19.5053 83.1541 19.4634 83.183 19.4168 83.2022C19.3702 83.2215 19.32 83.2305 19.2697 83.2288H18.496C18.4465 83.2297 18.3974 83.2205 18.3515 83.2018C18.3057 83.1832 18.2641 83.1554 18.2293 83.1202C18.1945 83.085 18.1672 83.0431 18.1491 82.9971C18.1309 82.9511 18.1223 82.9018 18.1237 82.8524C18.1202 82.8023 18.1274 82.7522 18.1449 82.7051C18.1623 82.6581 18.1895 82.6153 18.2247 82.5796C18.2599 82.5439 18.3023 82.5161 18.3491 82.4981C18.3958 82.48 18.4459 82.4721 18.496 82.4749H18.8163V79.7348Z" fill="#B5D9F1"/>
<path d="M18.7318 46.5205C18.729 46.465 18.7375 46.4095 18.7568 46.3574C18.7761 46.3054 18.8058 46.2578 18.8441 46.2175C18.8823 46.1773 18.9284 46.1452 18.9794 46.1233C19.0305 46.1014 19.0854 46.0901 19.141 46.0901C19.1965 46.0901 19.2515 46.1014 19.3025 46.1233C19.3536 46.1452 19.3996 46.1773 19.4379 46.2175C19.4762 46.2578 19.5059 46.3054 19.5252 46.3574C19.5445 46.4095 19.553 46.465 19.5502 46.5205V49.6266C19.5549 49.6767 19.5489 49.7274 19.5326 49.775C19.5163 49.8227 19.4899 49.8664 19.4554 49.9031C19.4209 49.9398 19.3789 49.9687 19.3323 49.9879C19.2857 50.0071 19.2355 50.0161 19.1852 50.0144H18.4115C18.362 50.0153 18.3129 50.0061 18.2671 49.9875C18.2212 49.9688 18.1797 49.941 18.1449 49.9059C18.1101 49.8707 18.0828 49.8288 18.0646 49.7828C18.0465 49.7367 18.0378 49.6875 18.0392 49.638C18.0358 49.588 18.043 49.5378 18.0604 49.4908C18.0778 49.4438 18.105 49.401 18.1402 49.3653C18.1754 49.3296 18.2178 49.3018 18.2646 49.2837C18.3114 49.2657 18.3614 49.2578 18.4115 49.2605H18.7318V46.5205Z" fill="#B5D9F1"/>
<path d="M18.8163 73.1763C18.8135 73.1208 18.822 73.0654 18.8413 73.0133C18.8606 72.9612 18.8903 72.9136 18.9285 72.8733C18.9668 72.8331 19.0129 72.801 19.0639 72.7791C19.115 72.7572 19.1699 72.7459 19.2255 72.7459C19.281 72.7459 19.336 72.7572 19.387 72.7791C19.438 72.801 19.4841 72.8331 19.5224 72.8733C19.5606 72.9136 19.5903 72.9612 19.6096 73.0133C19.6289 73.0654 19.6374 73.1208 19.6346 73.1763V76.2814C19.6394 76.3315 19.6334 76.3821 19.6171 76.4298C19.6007 76.4775 19.5744 76.5211 19.5399 76.5578C19.5053 76.5945 19.4634 76.6235 19.4168 76.6427C19.3702 76.6619 19.32 76.6709 19.2697 76.6692H18.496C18.4465 76.6702 18.3973 76.6612 18.3514 76.6426C18.3055 76.6239 18.2638 76.5962 18.229 76.561C18.1942 76.5257 18.1669 76.4838 18.1488 76.4377C18.1307 76.3916 18.1221 76.3423 18.1237 76.2928C18.1202 76.2428 18.1274 76.1927 18.1448 76.1457C18.1623 76.0987 18.1895 76.056 18.2247 76.0204C18.2599 75.9848 18.3024 75.9571 18.3491 75.9391C18.3959 75.9212 18.446 75.9134 18.496 75.9164H18.8163V73.1763Z" fill="#B5D9F1"/>
<path d="M18.7318 39.9624C18.729 39.9069 18.7375 39.8515 18.7568 39.7994C18.7761 39.7473 18.8058 39.6997 18.8441 39.6595C18.8823 39.6192 18.9284 39.5872 18.9794 39.5653C19.0305 39.5434 19.0854 39.5321 19.141 39.5321C19.1965 39.5321 19.2515 39.5434 19.3025 39.5653C19.3536 39.5872 19.3996 39.6192 19.4379 39.6595C19.4762 39.6997 19.5059 39.7473 19.5252 39.7994C19.5445 39.8515 19.553 39.9069 19.5502 39.9624V43.0675C19.5549 43.1177 19.5489 43.1683 19.5326 43.216C19.5163 43.2636 19.4899 43.3073 19.4554 43.344C19.4209 43.3807 19.3789 43.4096 19.3323 43.4288C19.2857 43.448 19.2355 43.4571 19.1852 43.4554H18.4115C18.362 43.4564 18.3128 43.4473 18.2669 43.4287C18.221 43.4101 18.1794 43.3823 18.1445 43.3471C18.1097 43.3119 18.0824 43.2699 18.0643 43.2238C18.0462 43.1777 18.0377 43.1284 18.0392 43.0789C18.0357 43.029 18.043 42.9788 18.0604 42.9318C18.0778 42.8849 18.105 42.8422 18.1402 42.8065C18.1755 42.7709 18.2179 42.7432 18.2647 42.7253C18.3114 42.7073 18.3615 42.6996 18.4115 42.7025H18.7318V39.9624Z" fill="#B5D9F1"/>
<path d="M3.58205 68.6845C3.76114 68.682 3.93895 68.7152 4.10513 68.782C4.27131 68.8488 4.42255 68.948 4.55007 69.0738C4.67759 69.1996 4.77884 69.3494 4.84794 69.5147C4.91705 69.6799 4.95262 69.8572 4.9526 70.0364C4.96188 70.3499 4.84684 70.6544 4.63258 70.8834C4.41831 71.1125 4.12219 71.2476 3.80874 71.2593C3.69111 71.2607 3.57439 71.2385 3.46558 71.1937L3.45414 71.2041C3.63404 71.46 3.98968 71.8094 4.20701 72.0776C4.26971 72.1371 4.31071 72.2158 4.32348 72.3012C4.31037 72.4005 4.26554 72.493 4.19565 72.5647C4.12576 72.6365 4.03455 72.6838 3.93561 72.6995C3.87802 72.7035 3.82051 72.6905 3.77026 72.662C3.70856 72.6232 3.65013 72.5794 3.59556 72.531C2.86958 71.8757 2.38167 70.9979 2.20837 70.0353C2.20471 69.855 2.23791 69.6758 2.30594 69.5087C2.37398 69.3417 2.47541 69.1903 2.60402 69.0638C2.73263 68.9373 2.88572 68.8385 3.0539 68.7732C3.22207 68.708 3.40179 68.6778 3.58205 68.6845ZM3.58205 70.6052C3.65445 70.6055 3.72612 70.5906 3.79245 70.5616C3.85879 70.5326 3.91834 70.4901 3.96729 70.4367C4.01623 70.3834 4.0535 70.3204 4.07669 70.2518C4.09989 70.1832 4.1085 70.1105 4.10198 70.0384C4.09292 69.9381 4.05489 69.8426 3.99253 69.7634C3.93017 69.6843 3.84617 69.625 3.75073 69.5927C3.65529 69.5604 3.55253 69.5566 3.45494 69.5816C3.35735 69.6067 3.26914 69.6595 3.20103 69.7337C3.13292 69.808 3.08784 69.9004 3.07129 69.9998C3.05473 70.0992 3.0674 70.2012 3.10777 70.2935C3.14813 70.3858 3.21444 70.4644 3.29864 70.5198C3.38284 70.5751 3.4813 70.6048 3.58205 70.6052Z" fill="#B5D9F1"/>
<path d="M4.9364 64.6896C4.94205 64.7446 4.93614 64.8002 4.91904 64.8528C4.90195 64.9053 4.87404 64.9537 4.83712 64.9949C4.8002 65.036 4.75507 65.0689 4.70465 65.0916C4.65423 65.1143 4.59964 65.1261 4.54436 65.1264C4.44929 65.1316 4.35577 65.1006 4.28264 65.0397C4.20951 64.9787 4.16221 64.8923 4.15025 64.7978C4.06567 64.9156 3.95293 65.0103 3.82233 65.0734C3.69173 65.1364 3.54742 65.1657 3.40258 65.1586C3.04484 65.0945 2.72132 64.9059 2.48934 64.6261C2.25736 64.3463 2.13188 63.9935 2.13512 63.63C2.13836 63.2666 2.27011 62.9161 2.50704 62.6405C2.74397 62.3649 3.07079 62.182 3.42962 62.1243C3.69447 62.1271 3.94977 62.2236 4.15025 62.3967V61.4359C4.14458 61.3809 4.15052 61.3253 4.1677 61.2727C4.18487 61.2201 4.21289 61.1717 4.24994 61.1307C4.28699 61.0896 4.33225 61.0568 4.38279 61.0343C4.43332 61.0118 4.48802 61.0002 4.54332 61.0002C4.59863 61.0002 4.65332 61.0118 4.70386 61.0343C4.7544 61.0568 4.79965 61.0896 4.8367 61.1307C4.87375 61.1717 4.90177 61.2201 4.91894 61.2727C4.93611 61.3253 4.94206 61.3809 4.9364 61.4359L4.9364 64.6896ZM4.15025 63.6623C4.15025 63.2806 3.96515 62.8439 3.53256 62.8439C3.12493 62.8439 2.92112 63.2692 2.92112 63.6352C2.92112 64.0013 3.12909 64.438 3.53256 64.438C3.93604 64.438 4.15025 64.046 4.15025 63.6623Z" fill="#B5D9F1"/>
<path d="M2.23713 56.0357C2.23146 55.9807 2.23741 55.9251 2.25458 55.8726C2.27176 55.82 2.29977 55.7716 2.33682 55.7305C2.37387 55.6895 2.41914 55.6566 2.46967 55.6342C2.52021 55.6117 2.57489 55.6001 2.6302 55.6001C2.68551 55.6001 2.7402 55.6117 2.79074 55.6342C2.84128 55.6566 2.88654 55.6895 2.92359 55.7305C2.96064 55.7716 2.98865 55.82 3.00583 55.8726C3.023 55.9251 3.02895 55.9807 3.02328 56.0357L3.02328 57.4063C3.02328 57.7183 3.1647 57.946 3.48603 57.946C3.76991 57.946 3.94461 57.7235 3.94461 57.4063L3.94461 56.0357C3.93894 55.9807 3.94489 55.9251 3.96206 55.8726C3.97923 55.82 4.00725 55.7716 4.0443 55.7305C4.08135 55.6895 4.12661 55.6566 4.17715 55.6342C4.22769 55.6117 4.28238 55.6001 4.33769 55.6001C4.39299 55.6001 4.44768 55.6117 4.49821 55.6342C4.54875 55.6566 4.59401 55.6895 4.63106 55.7305C4.66811 55.7716 4.69613 55.82 4.7133 55.8726C4.73048 55.9251 4.73642 55.9807 4.73076 56.0357L4.73076 57.4063C4.72161 57.473 4.72676 57.5409 4.74585 57.6055C4.76494 57.6701 4.79755 57.7299 4.8415 57.7809C4.88546 57.832 4.93975 57.8731 5.00079 57.9015C5.06184 57.93 5.12824 57.9451 5.19558 57.946C5.47843 57.946 5.65313 57.7235 5.65313 57.4063L5.65313 56.0357C5.64746 55.9807 5.6534 55.9251 5.67058 55.8726C5.68775 55.82 5.71577 55.7716 5.75282 55.7305C5.78987 55.6895 5.83513 55.6566 5.88566 55.6342C5.9362 55.6117 5.99089 55.6001 6.0462 55.6001C6.10151 55.6001 6.1562 55.6117 6.20674 55.6342C6.25728 55.6566 6.30253 55.6895 6.33958 55.7305C6.37663 55.7716 6.40465 55.82 6.42182 55.8726C6.43899 55.9251 6.44494 55.9807 6.43927 56.0357L6.43927 57.5425C6.45068 57.6858 6.4306 57.8298 6.38043 57.9645C6.33026 58.0992 6.25121 58.2212 6.14884 58.3221C6.04647 58.423 5.92326 58.5002 5.78787 58.5484C5.65247 58.5966 5.50817 58.6146 5.36508 58.6011C5.20683 58.5937 5.05167 58.5547 4.90877 58.4863C4.76588 58.4179 4.63816 58.3215 4.53318 58.2028C4.43833 58.3283 4.31532 58.4297 4.17406 58.4989C4.03281 58.5681 3.87727 58.6031 3.72 58.6011C3.58251 58.6011 3.44657 58.5719 3.32113 58.5157C3.19568 58.4594 3.08354 58.3772 2.99208 58.2746C2.98263 58.3612 2.93949 58.4406 2.87197 58.4957C2.80445 58.5507 2.71798 58.577 2.63124 58.5689C2.57602 58.5684 2.52149 58.5565 2.47115 58.5338C2.4208 58.5111 2.37575 58.4781 2.33886 58.437C2.30197 58.3959 2.27406 58.3476 2.2569 58.2951C2.23974 58.2426 2.23371 58.1871 2.23921 58.1321L2.23713 56.0357Z" fill="#B5D9F1"/>
<path d="M2.11453 51.0153C2.09852 50.7584 2.13516 50.501 2.2222 50.2588C2.30924 50.0166 2.44484 49.7947 2.62069 49.6068C2.79655 49.4189 3.00894 49.2689 3.24484 49.1659C3.48074 49.063 3.73518 49.0094 3.99255 49.0083C4.39706 49.0083 5.22168 49.129 5.22168 49.6531C5.21822 49.7487 5.17923 49.8397 5.11231 49.9081C5.0454 49.9766 4.95537 50.0176 4.8598 50.0233C4.63727 50.0233 4.45217 49.7945 3.99255 49.7945C3.84364 49.7997 3.69745 49.8358 3.56331 49.9007C3.42918 49.9656 3.31006 50.0577 3.21356 50.1712C3.11706 50.2848 3.04531 50.4172 3.0029 50.56C2.96048 50.7028 2.94833 50.853 2.96723 51.0008C2.96723 51.6663 3.31663 52.2392 3.99255 52.2392C4.45217 52.2392 4.604 52.0489 4.82445 52.0489C4.87093 52.0499 4.91674 52.0601 4.95917 52.0791C5.0016 52.0981 5.03977 52.1254 5.0714 52.1595C5.10304 52.1936 5.12749 52.2337 5.1433 52.2774C5.15912 52.3211 5.16597 52.3675 5.16345 52.4139C5.16345 52.8954 4.3877 53.0254 3.98943 53.0254C3.73182 53.0247 3.47709 52.9712 3.24098 52.8681C3.00487 52.7651 2.79239 52.6148 2.61668 52.4264C2.44097 52.238 2.30575 52.0156 2.21938 51.7729C2.13301 51.5302 2.09732 51.2723 2.11453 51.0153Z" fill="#B5D9F1"/>
<path d="M2.53413 43.0595C2.49947 43.0015 2.48047 42.9356 2.47902 42.8681C2.48934 42.7573 2.54249 42.6549 2.62715 42.5826C2.71182 42.5104 2.82134 42.474 2.9324 42.4813C3.17781 42.4813 3.24437 42.5905 3.39099 42.8972L4.74282 45.6477C4.80984 45.7577 4.85273 45.8807 4.86865 46.0086C4.86784 46.1124 4.82631 46.2117 4.753 46.2852C4.67968 46.3587 4.58044 46.4005 4.47662 46.4016H2.50085C2.44849 46.4086 2.39523 46.404 2.34488 46.3879C2.29454 46.3719 2.24837 46.3449 2.20969 46.3089C2.17102 46.2729 2.14079 46.2288 2.1212 46.1798C2.1016 46.1307 2.09311 46.0779 2.09634 46.0252C2.09387 45.9726 2.10287 45.9201 2.12272 45.8714C2.14256 45.8226 2.17277 45.7788 2.21126 45.7429C2.24974 45.7069 2.29558 45.6798 2.34558 45.6634C2.39559 45.647 2.44857 45.6416 2.50085 45.6477H3.89845L2.53413 43.0595Z" fill="#B5D9F1"/>
<path d="M3.16462 36.676L4.91265 39.0989C4.98844 39.1999 5.03095 39.322 5.03432 39.4483C5.03289 39.5052 5.01953 39.5612 4.99509 39.6126C4.97066 39.6641 4.93569 39.7098 4.89246 39.7468C4.84922 39.7839 4.7987 39.8115 4.74414 39.8277C4.68958 39.844 4.6322 39.8487 4.57573 39.8414H2.57709C2.47743 39.8428 2.38128 39.8046 2.30974 39.7352C2.2382 39.6658 2.19709 39.5708 2.19545 39.4712C2.19442 39.4222 2.20385 39.3736 2.22311 39.3286C2.24237 39.2835 2.27102 39.2431 2.30715 39.2101C2.34327 39.177 2.38603 39.152 2.43259 39.1368C2.47914 39.1216 2.5284 39.1164 2.57709 39.1218H4.01108L2.25473 36.6656C2.18642 36.5756 2.14788 36.4665 2.1445 36.3536C2.1445 36.1238 2.31296 35.9606 2.60413 35.9606H4.74835C4.8477 35.9582 4.94408 35.9945 5.0172 36.0618C5.09033 36.1291 5.13448 36.2222 5.14038 36.3214C5.14227 36.372 5.13315 36.4223 5.11366 36.469C5.09417 36.5157 5.06476 36.5576 5.02748 36.5918C4.9902 36.6261 4.94593 36.6518 4.89774 36.6672C4.84954 36.6826 4.79857 36.6874 4.74835 36.6812L3.16462 36.676Z" fill="#B5D9F1"/>
<path d="M4.22134 31.7999C4.22134 32.1878 3.62653 32.3677 3.23866 32.3677C3.10748 32.3829 2.97459 32.3707 2.84836 32.3319C2.72214 32.2931 2.60531 32.2286 2.50526 32.1425C2.40521 32.0563 2.3241 31.9503 2.26706 31.8312C2.21001 31.7121 2.17827 31.5825 2.17382 31.4505C2.17382 30.55 3.53918 30.6041 3.53918 30.2443C3.53918 30.0966 3.46847 30.0207 3.22722 30.0207C2.85598 30.0207 2.71976 30.2879 2.413 30.2879C2.32417 30.2801 2.24118 30.2404 2.17928 30.1762C2.11738 30.112 2.08073 30.0276 2.07607 29.9386C2.07607 29.584 2.73016 29.3333 3.1721 29.3333C3.84906 29.3333 4.29102 29.7316 4.29102 30.2547C4.29102 31.15 2.92669 31.0959 2.92669 31.462C2.92669 31.6138 3.05252 31.6803 3.19498 31.6803C3.45079 31.6803 3.75132 31.4505 3.89794 31.4505C3.98686 31.4548 4.07053 31.4939 4.13099 31.5592C4.19146 31.6245 4.2239 31.711 4.22134 31.7999Z" fill="#B5D9F1"/>
<path d="M2.25884 23.2468C2.25715 23.1916 2.26697 23.1367 2.28771 23.0855C2.30844 23.0343 2.33962 22.988 2.37925 22.9496C2.41888 22.9111 2.46609 22.8813 2.51787 22.8622C2.56965 22.843 2.62487 22.8348 2.67999 22.8381H4.08694C4.13759 22.8356 4.18822 22.8434 4.23569 22.8613C4.28316 22.8792 4.32644 22.9066 4.36284 22.9419C4.39923 22.9772 4.42795 23.0197 4.44722 23.0666C4.46648 23.1135 4.47588 23.1639 4.47481 23.2146C4.47684 23.2655 4.4681 23.3164 4.44916 23.3637C4.43023 23.4111 4.40153 23.4539 4.36493 23.4894C4.32833 23.5249 4.28466 23.5523 4.23676 23.5698C4.18886 23.5874 4.13781 23.5946 4.08694 23.591H3.07721V24.4229H3.97359C4.02482 24.4198 4.07614 24.4272 4.12438 24.4447C4.17261 24.4623 4.21673 24.4895 4.25398 24.5248C4.29123 24.5601 4.32083 24.6027 4.34093 24.65C4.36103 24.6972 4.37121 24.748 4.37083 24.7994C4.37198 24.8509 4.36234 24.9022 4.34252 24.9498C4.3227 24.9975 4.29314 25.0404 4.25573 25.076C4.21833 25.1115 4.17391 25.1389 4.12532 25.1562C4.07673 25.1736 4.02505 25.1806 3.97359 25.1768H3.07721L3.07721 25.9723H4.03807C4.08877 25.9699 4.13942 25.9779 4.18689 25.9959C4.23436 26.0139 4.27764 26.0414 4.31401 26.0768C4.35039 26.1122 4.37909 26.1547 4.39835 26.2017C4.4176 26.2486 4.427 26.2991 4.42594 26.3498C4.4278 26.4007 4.41895 26.4515 4.39996 26.4987C4.38097 26.546 4.35226 26.5888 4.3157 26.6243C4.27914 26.6598 4.23554 26.6872 4.18771 26.7047C4.13988 26.7223 4.0889 26.7296 4.03807 26.7262H2.68622C2.39818 26.7262 2.26195 26.5245 2.26195 26.251L2.25884 23.2468Z" fill="#B5D9F1"/>
<path opacity="0.15" d="M40.3146 67.3737C40.568 67.6533 41.6996 67.1164 43.4604 65.881C45.2213 64.6456 47.4672 62.813 49.7041 60.7863C51.941 58.7596 53.9856 56.7049 55.3882 55.0741C56.7908 53.4432 57.4364 52.37 57.1831 52.0903C56.9297 51.8107 55.7981 52.3476 54.0373 53.583C52.2764 54.8184 50.0305 56.651 47.7936 58.6777C45.5567 60.7044 43.5121 62.7591 42.1095 64.39C40.7069 66.0208 40.0613 67.094 40.3146 67.3737Z" fill="#40526D"/>
<path d="M36.9621 28.1461C36.576 27.72 36.0365 27.4647 35.4622 27.4364C34.8879 27.4081 34.3259 27.6091 33.8998 27.9951L32.9902 28.8193C31.2371 28.197 29.3482 28.0611 27.5241 28.4261C25.7001 28.7912 24.0089 29.6435 22.6303 30.8925C21.2518 32.1415 20.2373 33.7406 19.6946 35.52C19.1519 37.2993 19.1013 39.1924 19.5482 40.9982L18.638 41.8228C18.2119 42.2089 17.9566 42.7484 17.9283 43.3227C17.9 43.8969 18.101 44.459 18.4871 44.885L37.4097 65.7702C37.7958 66.1963 38.3353 66.4516 38.9095 66.4799C39.4838 66.5082 40.0458 66.3072 40.4719 65.9212L55.7337 52.0934C55.9447 51.9023 56.116 51.6714 56.2378 51.4141C56.3595 51.1568 56.4294 50.8779 56.4434 50.5936C56.4574 50.3092 56.4153 50.0249 56.3195 49.7568C56.2236 49.4888 56.0759 49.2422 55.8847 49.0312L36.9621 28.1461ZM29.0806 32.3615L23.4578 37.456C23.2448 37.6489 22.9639 37.7494 22.6769 37.7352C22.3898 37.7211 22.1202 37.5935 21.9272 37.3805C21.7342 37.1675 21.6338 36.8866 21.6479 36.5996C21.6621 36.3125 21.7897 36.0429 22.0027 35.8499L27.6255 30.7554C27.8384 30.5625 28.1193 30.462 28.4064 30.4762C28.6934 30.4903 28.9631 30.6179 29.1561 30.8309C29.349 31.0439 29.4495 31.3248 29.4353 31.6118C29.4212 31.8989 29.2936 32.1685 29.0806 32.3615Z" fill="#3598DB"/>
<path d="M21.6216 43.5093L35.2773 31.1367L52.7444 50.4153L39.0886 62.7878L21.6216 43.5093Z" fill="#DAECF8"/>
<path d="M31.4465 54.3531L32.4812 33.6701L22.2916 42.9022C22.114 43.0631 22.0076 43.2879 21.9958 43.5272C21.984 43.7665 22.0678 44.0007 22.2287 44.1783L31.4465 54.3531Z" fill="white"/>
<path d="M20.724 42.1318C20.9529 41.9243 21.1235 41.6607 21.2192 41.367C21.3148 41.0733 21.332 40.7598 21.2691 40.4574C20.9078 38.9721 20.9442 37.4179 21.3745 35.9512C21.8049 34.4845 22.6141 33.1571 23.7207 32.1026C24.8789 31.1053 26.2794 30.4308 27.7812 30.1468C29.283 29.8629 30.8331 29.9796 32.2755 30.4852C32.5702 30.5776 32.884 30.5913 33.1857 30.5251C33.4874 30.4588 33.7665 30.3148 33.9954 30.1074L36.5407 27.8013C36.1405 27.5371 35.6638 27.4132 35.1856 27.4493C34.7074 27.4853 34.2546 27.6792 33.8985 28.0004L32.9888 28.8246C31.2358 28.2023 29.3469 28.0664 27.5228 28.4314C25.6987 28.7964 24.0076 29.6487 22.629 30.8978C21.2505 32.1468 20.236 33.7459 19.6933 35.5252C19.1506 37.3046 19.1 39.1977 19.5469 41.0034L18.6367 41.8281C18.282 42.1509 18.0446 42.5824 17.9617 43.0547C17.8788 43.5271 17.9551 44.0136 18.1787 44.4379L20.724 42.1318Z" fill="#6CB4E4"/>
<path d="M21.6216 43.5093L35.2773 31.1367L52.7444 50.4153L39.0886 62.7878L21.6216 43.5093Z" stroke="#40526D" stroke-width="1.25" stroke-linejoin="round"/>
<path d="M36.9621 28.1461C36.576 27.72 36.0365 27.4647 35.4622 27.4364C34.8879 27.4081 34.3259 27.6091 33.8998 27.9951L32.9902 28.8193C31.2371 28.197 29.3482 28.0611 27.5241 28.4261C25.7001 28.7912 24.0089 29.6435 22.6303 30.8925C21.2518 32.1415 20.2373 33.7406 19.6946 35.52C19.1519 37.2993 19.1013 39.1924 19.5482 40.9982L18.638 41.8228C18.2119 42.2089 17.9566 42.7484 17.9283 43.3227C17.9 43.8969 18.101 44.459 18.4871 44.885L37.4097 65.7702C37.7958 66.1963 38.3353 66.4516 38.9096 66.4799C39.4838 66.5082 40.0458 66.3072 40.4719 65.9212L55.7337 52.0934C55.9447 51.9023 56.116 51.6714 56.2378 51.4141C56.3595 51.1568 56.4294 50.8779 56.4434 50.5936C56.4574 50.3092 56.4153 50.0249 56.3195 49.7568C56.2236 49.4888 56.0759 49.2422 55.8847 49.0312L36.9621 28.1461ZM29.0806 32.3615L23.4578 37.456C23.2448 37.6489 22.9639 37.7494 22.6769 37.7352C22.3898 37.7211 22.1202 37.5935 21.9272 37.3805C21.7342 37.1675 21.6338 36.8866 21.6479 36.5996C21.6621 36.3125 21.7897 36.0429 22.0027 35.8499L27.6255 30.7554C27.8384 30.5625 28.1193 30.462 28.4064 30.4762C28.6934 30.4903 28.9631 30.6179 29.1561 30.8309C29.349 31.0439 29.4495 31.3248 29.4353 31.6118C29.4212 31.8989 29.2936 32.1685 29.0806 32.3615Z" stroke="#40526D" stroke-width="1.25" stroke-linejoin="round"/>
<path d="M38.606 55.7969L45.8353 49.2468" stroke="#40526D" stroke-width="1.25" stroke-linecap="round" stroke-linejoin="round"/>
<path d="M41.6724 55.9473L45.6886 52.3084" stroke="#40526D" stroke-width="1.25" stroke-linecap="round" stroke-linejoin="round"/>
<path d="M24.4143 33.6689L23.6863 32.8653C22.1421 31.161 21.3382 28.9132 21.4514 26.6162C21.5645 24.3192 22.5854 22.1612 24.2896 20.6169C25.1335 19.8523 26.1198 19.2614 27.1921 18.8779C28.2644 18.4945 29.4017 18.326 30.5391 18.382C31.6765 18.4381 32.7917 18.7177 33.8211 19.2048C34.8505 19.6918 35.7738 20.3769 36.5385 21.2208L50.0026 36.0814C50.6782 36.827 51.6223 37.2737 52.6272 37.3233C53.6322 37.3728 54.6156 37.0211 55.3613 36.3455C56.1069 35.67 56.5536 34.7259 56.6032 33.7209C56.6527 32.716 56.301 31.7326 55.6254 30.9869L42.8893 16.9299C41.7312 15.6517 40.1129 14.8859 38.3901 14.8009C36.6674 14.7158 34.9815 15.3186 33.7032 16.4765L27.2768 22.299C26.3389 23.1487 25.6691 24.2535 25.3496 25.4781C25.03 26.7027 25.0746 27.9939 25.4778 29.1935" stroke="#40526D" stroke-width="1.25" stroke-linejoin="round"/>
<rect x="27.4502" y="45.7632" width="12.456" height="12.456" rx="2.076" transform="rotate(-42.18 27.4502 45.7632)" fill="#40526D"/>
<g clip-path="url(#clip0_3867_2418)">
<path d="M37.3619 45.9687C37.7387 46.3845 38.2529 46.6015 38.7728 46.6134L39.2852 47.1789L35.7911 50.3449C35.759 50.374 35.7171 50.3896 35.6746 50.3884C35.6322 50.3872 35.5926 50.3692 35.5647 50.3383L35.2486 49.9895C34.4143 49.0687 34.8761 48.2352 35.2942 47.5092L35.4214 47.2796C35.432 47.2573 35.433 47.2098 35.3952 47.1339C35.2985 46.9422 35.1449 46.7863 34.9544 46.6864C34.5073 46.6554 34.0128 46.5573 33.3385 45.8132C32.6032 45.0016 32.8517 44.137 33.4256 43.617C33.9995 43.097 34.894 42.9259 35.6293 43.7375C36.3035 44.4816 36.361 44.9927 36.3417 45.4337C36.4207 45.6278 36.557 45.7918 36.7331 45.9047C36.8049 45.9498 36.8586 45.9604 36.8755 45.945L37.1192 45.8343L37.128 45.8306C37.1582 45.8177 37.1886 45.8047 37.2191 45.7917C37.2628 45.8527 37.3104 45.9118 37.3619 45.9687Z" fill="white"/>
<path fill-rule="evenodd" clip-rule="evenodd" d="M39.4486 46.0365L39.3495 45.9271C39.0484 46.0532 38.7124 46.0688 38.401 45.9711C38.0896 45.8734 37.8227 45.6688 37.6477 45.3934C37.4726 45.1179 37.4006 44.7895 37.4443 44.466C37.488 44.1425 37.6447 43.8448 37.8866 43.6256C38.1286 43.4064 38.4402 43.2797 38.7664 43.268C39.0926 43.2563 39.4124 43.3602 39.6693 43.5615C39.9262 43.7628 40.1036 44.0485 40.1702 44.368C40.2368 44.6875 40.1883 45.0203 40.0332 45.3076L41.1712 46.5634C41.1815 46.5745 41.1893 46.5876 41.1942 46.6019C41.1992 46.6162 41.201 46.6314 41.1997 46.6465L41.1756 47.1351C41.1753 47.1502 41.1719 47.1651 41.1657 47.1789C41.1594 47.1927 41.1504 47.205 41.1392 47.2152C41.128 47.2254 41.1148 47.2331 41.1005 47.238C41.0862 47.2429 41.071 47.2447 41.0559 47.2435L40.5673 47.2196C40.5522 47.2194 40.5373 47.216 40.5235 47.2097C40.5098 47.2034 40.4975 47.1943 40.4875 47.183L40.2877 46.9626L40.0093 46.9473C39.9942 46.947 39.9793 46.9436 39.9655 46.9374C39.9517 46.9311 39.9394 46.9221 39.9292 46.9109C39.9191 46.8997 39.9113 46.8866 39.9064 46.8722C39.9016 46.8579 39.8997 46.8427 39.9009 46.8277L39.9131 46.5491L39.8233 46.45L39.5448 46.4347C39.5297 46.4344 39.5148 46.4311 39.501 46.4248C39.4872 46.4186 39.4749 46.4095 39.4647 46.3983C39.4546 46.3871 39.4468 46.374 39.442 46.3596C39.4371 46.3453 39.4352 46.3301 39.4365 46.3151L39.4486 46.0365ZM38.8913 44.7343C39.0329 44.606 39.0437 44.3872 38.9153 44.2456C38.787 44.104 38.5682 44.0932 38.4266 44.2215C38.285 44.3499 38.2742 44.5687 38.4025 44.7103C38.5309 44.8519 38.7497 44.8626 38.8913 44.7343Z" fill="white"/>
</g>
<path d="M74.8759 38.1186C74.9533 37.7831 75.1234 37.476 75.3669 37.2326C75.6104 36.9891 75.9174 36.8189 76.2529 36.7416L79.0172 36.1035C79.0677 36.0917 79.1126 36.0631 79.1448 36.0225C79.177 35.9819 79.1945 35.9316 79.1945 35.8798C79.1945 35.828 79.177 35.7776 79.1448 35.737C79.1126 35.6964 79.0677 35.6679 79.0172 35.656L76.2529 35.018C75.9171 34.9406 75.6099 34.7704 75.3662 34.5267C75.1226 34.2831 74.9523 33.9758 74.875 33.64L74.2378 30.8776C74.2264 30.8267 74.1979 30.7812 74.1572 30.7486C74.1164 30.716 74.0658 30.6982 74.0136 30.6982C73.9614 30.6982 73.9108 30.716 73.8701 30.7486C73.8293 30.7812 73.8009 30.8267 73.7894 30.8776L73.1523 33.64C73.0753 33.9754 72.9057 34.2824 72.6627 34.526C72.4197 34.7696 72.1132 34.9401 71.7781 35.018L69.0147 35.656C68.9643 35.6679 68.9193 35.6964 68.8871 35.737C68.8549 35.7776 68.8374 35.828 68.8374 35.8798C68.8374 35.9316 68.8549 35.9819 68.8871 36.0225C68.9193 36.0631 68.9643 36.0917 69.0147 36.1035L71.7772 36.7416C72.1128 36.8189 72.42 36.989 72.6636 37.2325C72.9073 37.4759 73.0776 37.783 73.1551 38.1186L73.7922 40.8829C73.8037 40.9338 73.8321 40.9793 73.8729 41.0119C73.9136 41.0445 73.9642 41.0622 74.0164 41.0622C74.0686 41.0622 74.1193 41.0445 74.16 41.0119C74.2007 40.9793 74.2292 40.9338 74.2406 40.8829L74.8759 38.1186Z" fill="#F7DD7B" stroke="#EDBF0E" stroke-width="1.25" stroke-linecap="round" stroke-linejoin="round"/>
<defs>
<clipPath id="clip0_3867_2418">
<rect width="8.30398" height="8.30398" fill="white" transform="translate(30.7671 45.5591) rotate(-42.18)"/>
</clipPath>
</defs>
</svg>
