<svg width="36" height="36" viewBox="0 0 36 36" fill="none" xmlns="http://www.w3.org/2000/svg">
<rect width="36" height="36" rx="3" fill="#6F73D2"/>
<g clip-path="url(#clip0_380_19967)">
<path d="M9.28571 15.2857V23.2857H12.7143V15.2857H9.28571ZM16.1429 15.2857V23.2857H19.5714V15.2857H16.1429ZM7 29H28.7143V25.5714H7V29ZM23 15.2857V23.2857H26.4286V15.2857H23ZM17.8571 5L7 10.7143V13H28.7143V10.7143L17.8571 5Z" fill="white"/>
<path d="M44.1429 25.8571V19.496L38.0331 8.55886H41.0503L45.5509 16.68H45.7269L50.1771 8.55886H53.1189L46.984 19.496V25.8571H44.1429Z" fill="white"/>
<path d="M58.8968 26.0583C57.824 26.0583 56.9273 25.9912 56.2065 25.8571C55.5025 25.723 54.941 25.5135 54.5219 25.2286C54.1197 24.9269 53.8179 24.5246 53.6168 24.0217C53.4324 23.5189 53.3067 22.8903 53.2397 22.136C53.1894 21.3817 53.1642 20.4766 53.1642 19.4206C53.1642 18.3813 53.1894 17.4846 53.2397 16.7303C53.3067 15.976 53.4324 15.3474 53.6168 14.8446C53.8179 14.3417 54.1197 13.9478 54.5219 13.6629C54.941 13.3611 55.5025 13.1516 56.2065 13.0343C56.9273 12.9002 57.824 12.8331 58.8968 12.8331C59.9863 12.8331 60.8831 12.9002 61.5871 13.0343C62.3078 13.1516 62.8694 13.3611 63.2717 13.6629C63.6907 13.9478 63.9924 14.3417 64.1768 14.8446C64.3779 15.3474 64.5037 15.976 64.5539 16.7303C64.621 17.4846 64.6545 18.3813 64.6545 19.4206C64.6545 20.4766 64.621 21.3817 64.5539 22.136C64.5037 22.8903 64.3779 23.5189 64.1768 24.0217C63.9924 24.5246 63.6907 24.9269 63.2717 25.2286C62.8694 25.5135 62.3078 25.723 61.5871 25.8571C60.8831 25.9912 59.9863 26.0583 58.8968 26.0583ZM58.8968 23.8206C59.6678 23.8206 60.2629 23.7703 60.6819 23.6697C61.101 23.5691 61.3943 23.368 61.5619 23.0663C61.7463 22.7646 61.8553 22.3204 61.8888 21.7337C61.9391 21.147 61.9642 20.376 61.9642 19.4206C61.9642 18.4651 61.9391 17.7025 61.8888 17.1326C61.8553 16.5459 61.7463 16.1017 61.5619 15.8C61.3943 15.4983 61.101 15.3055 60.6819 15.2217C60.2629 15.1211 59.6678 15.0709 58.8968 15.0709C58.1425 15.0709 57.5558 15.1211 57.1368 15.2217C56.7178 15.3055 56.416 15.4983 56.2317 15.8C56.064 16.1017 55.9551 16.5459 55.9048 17.1326C55.8713 17.7025 55.8545 18.4651 55.8545 19.4206C55.8545 20.376 55.8713 21.147 55.9048 21.7337C55.9551 22.3204 56.064 22.7646 56.2317 23.0663C56.416 23.368 56.7178 23.5691 57.1368 23.6697C57.5558 23.7703 58.1425 23.8206 58.8968 23.8206Z" fill="white"/>
<path d="M72.328 26.0583C71.4396 26.0583 70.7105 25.9577 70.1406 25.7566C69.5874 25.5387 69.16 25.2202 68.8583 24.8011C68.5733 24.3821 68.3806 23.8625 68.28 23.2423C68.1794 22.6221 68.1291 21.893 68.1291 21.0549V13.0343H70.7943V19.9989C70.7943 20.837 70.8194 21.5074 70.8697 22.0103C70.9368 22.4964 71.0625 22.8651 71.2468 23.1166C71.4312 23.3512 71.6994 23.5021 72.0514 23.5691C72.4202 23.6362 72.9063 23.6697 73.5097 23.6697C74.1802 23.6697 74.7166 23.5859 75.1188 23.4183C75.5211 23.2507 75.8145 22.9992 75.9988 22.664C76.2 22.3288 76.3257 21.9097 76.376 21.4069C76.4263 20.904 76.4514 20.3173 76.4514 19.6469V13.0343H79.1417V25.8571H76.6777L76.5771 24.1474H76.4011C76.2168 24.5497 75.9486 24.8933 75.5966 25.1783C75.2613 25.4632 74.8255 25.6811 74.2891 25.832C73.7527 25.9829 73.099 26.0583 72.328 26.0583Z" fill="white"/>
<path d="M83.1068 25.8571V13.0343H85.5457L85.6462 15.3474H85.8474C86.0653 14.677 86.367 14.1573 86.7525 13.7886C87.138 13.4198 87.6074 13.1684 88.1605 13.0343C88.7137 12.9002 89.3422 12.8331 90.0462 12.8331V15.448C88.9064 15.448 88.0264 15.6156 87.4062 15.9509C86.8028 16.2861 86.3754 16.8225 86.1239 17.56C85.8893 18.2808 85.7719 19.2278 85.7719 20.4011V25.8571H83.1068Z" fill="white"/>
<path d="M92.985 25.8571V8.55886H101.207C102.347 8.55886 103.26 8.73486 103.947 9.08686C104.635 9.42209 105.137 9.91657 105.456 10.5703C105.774 11.2072 105.934 11.9867 105.934 12.9086C105.934 13.6796 105.825 14.3417 105.607 14.8949C105.406 15.448 105.087 15.9006 104.651 16.2526C104.215 16.5878 103.654 16.8309 102.967 16.9817V17.0823C103.771 17.2331 104.4 17.493 104.852 17.8617C105.322 18.2305 105.649 18.6998 105.833 19.2697C106.017 19.8396 106.11 20.5101 106.11 21.2811C106.11 21.9349 106.034 22.5467 105.883 23.1166C105.732 23.6697 105.473 24.1474 105.104 24.5497C104.752 24.952 104.257 25.2705 103.62 25.5051C102.983 25.7398 102.171 25.8571 101.182 25.8571H92.985ZM95.8261 23.4686H100.327C101.098 23.4686 101.693 23.3931 102.112 23.2423C102.531 23.0747 102.824 22.8065 102.992 22.4377C103.176 22.0522 103.268 21.541 103.268 20.904C103.268 20.2503 103.176 19.739 102.992 19.3703C102.807 18.9848 102.497 18.7166 102.062 18.5657C101.643 18.3981 101.064 18.3143 100.327 18.3143H95.8261V23.4686ZM95.8261 15.9006H100.226C100.913 15.9006 101.458 15.8168 101.86 15.6491C102.279 15.4815 102.59 15.2217 102.791 14.8697C102.992 14.501 103.092 14.0316 103.092 13.4617C103.092 12.8248 103.009 12.3303 102.841 11.9783C102.673 11.6095 102.388 11.3497 101.986 11.1989C101.584 11.048 100.997 10.9726 100.226 10.9726H95.8261V15.9006Z" fill="white"/>
<path d="M112.991 26.0583C112.12 26.0583 111.382 25.941 110.779 25.7063C110.192 25.4716 109.748 25.0861 109.446 24.5497C109.145 23.9966 108.994 23.2507 108.994 22.312C108.994 21.323 109.111 20.5436 109.346 19.9737C109.58 19.387 109.983 18.968 110.553 18.7166C111.122 18.4651 111.927 18.3394 112.966 18.3394C113.134 18.3394 113.377 18.3478 113.695 18.3646C114.031 18.3646 114.408 18.373 114.827 18.3897C115.263 18.3897 115.69 18.3981 116.109 18.4149C116.545 18.4149 116.939 18.4232 117.291 18.44V17.8366C117.291 17.1829 117.249 16.6716 117.165 16.3029C117.081 15.9341 116.905 15.6659 116.637 15.4983C116.386 15.3139 116.017 15.1966 115.531 15.1463C115.045 15.096 114.416 15.0709 113.645 15.0709C113.276 15.0709 112.841 15.0876 112.338 15.1211C111.852 15.1379 111.374 15.163 110.905 15.1966C110.435 15.2301 110.075 15.272 109.823 15.3223V13.2103C110.511 13.0762 111.265 12.984 112.086 12.9337C112.908 12.8667 113.729 12.8331 114.55 12.8331C115.506 12.8331 116.302 12.8918 116.939 13.0091C117.593 13.1265 118.121 13.3109 118.523 13.5623C118.925 13.8137 119.227 14.1406 119.428 14.5429C119.629 14.9451 119.772 15.4312 119.855 16.0011C119.939 16.5543 119.981 17.1912 119.981 17.912V25.8571H117.517L117.417 24.1977H117.266C116.981 24.7341 116.595 25.1448 116.109 25.4297C115.64 25.6979 115.129 25.8655 114.575 25.9326C114.022 26.0164 113.494 26.0583 112.991 26.0583ZM114.173 23.896C114.592 23.896 114.969 23.8709 115.305 23.8206C115.657 23.7535 115.958 23.653 116.21 23.5189C116.478 23.368 116.687 23.1669 116.838 22.9154C116.989 22.6305 117.098 22.3036 117.165 21.9349C117.249 21.5661 117.291 21.1303 117.291 20.6274V20.1749H113.62C113.067 20.1749 112.639 20.2168 112.338 20.3006C112.053 20.3844 111.86 20.5604 111.759 20.8286C111.659 21.0968 111.609 21.5074 111.609 22.0606C111.609 22.5802 111.667 22.9741 111.785 23.2423C111.902 23.4937 112.145 23.6697 112.514 23.7703C112.899 23.8541 113.452 23.896 114.173 23.896Z" fill="white"/>
<path d="M123.964 25.8571V13.0343H126.428L126.503 14.744H126.705C126.906 14.325 127.174 13.9813 127.509 13.7131C127.844 13.4282 128.28 13.2103 128.817 13.0594C129.353 12.9086 130.007 12.8331 130.778 12.8331C131.683 12.8331 132.412 12.9421 132.965 13.16C133.518 13.3611 133.937 13.6712 134.222 14.0903C134.507 14.5093 134.7 15.029 134.801 15.6491C134.918 16.2693 134.977 16.9985 134.977 17.8366V25.8571H132.286V18.8926C132.286 18.0545 132.253 17.3924 132.186 16.9063C132.135 16.4034 132.018 16.0347 131.834 15.8C131.649 15.5486 131.373 15.3893 131.004 15.3223C130.652 15.2552 130.174 15.2217 129.571 15.2217C128.9 15.2217 128.364 15.3055 127.962 15.4731C127.576 15.6408 127.283 15.8922 127.082 16.2274C126.897 16.5627 126.772 16.9817 126.705 17.4846C126.654 17.9874 126.629 18.5741 126.629 19.2446V25.8571H123.964Z" fill="white"/>
<path d="M138.942 25.8571V7.176H141.607V18.2891H142.939L147.038 13.0343H149.979L145.076 19.2194L150.055 25.8571H147.012L142.939 20.5269H141.607V25.8571H138.942Z" fill="white"/>
</g>
<defs>
<clipPath id="clip0_380_19967">
<rect width="29" height="36" fill="white" transform="translate(3.5)"/>
</clipPath>
</defs>
</svg>