<svg width="44" height="43" viewBox="0 0 44 43" fill="none" xmlns="http://www.w3.org/2000/svg">
<path fill-rule="evenodd" clip-rule="evenodd" d="M27.2185 13.3496C27.2185 13.7699 27.1892 14.1999 27.1502 14.6201C21.1008 15.8221 16.3219 20.5912 15.1199 26.6406C7.22349 27.4028 0.499817 21.1385 0.499817 13.3496C0.499817 5.99071 6.49053 0 13.8592 0C21.2279 0 27.2185 5.99071 27.2185 13.3496ZM23.1579 11.1448C23.1579 10.6051 22.715 10.1623 22.1749 10.1623C21.6347 10.1623 21.1919 10.6051 21.1919 11.1448C21.1919 11.6845 21.6347 12.1278 22.1749 12.1278C22.715 12.1278 23.1579 11.6845 23.1579 11.1448ZM14.8405 4.49139C14.8405 3.9517 14.3977 3.50839 13.8575 3.50839C13.3173 3.50839 12.8755 3.9517 12.8755 4.49139C12.8755 5.03109 13.3173 5.4744 13.8575 5.4744C14.3977 5.4744 14.8405 5.03109 14.8405 4.49139ZM4.5581 11.1448C4.5581 11.6845 5.00093 12.1278 5.54111 12.1278C6.08128 12.1278 6.52316 11.6845 6.52316 11.1448C6.52316 10.6051 6.08128 10.1623 5.54111 10.1623C5.00093 10.1623 4.5581 10.6051 4.5581 11.1448ZM8.7163 20.8484C8.7163 21.3881 9.15913 21.8309 9.69931 21.8309C10.2395 21.8309 10.6823 21.3881 10.6823 20.8484C10.6823 20.3087 10.2395 19.8654 9.69931 19.8654C9.15913 19.8654 8.7163 20.3087 8.7163 20.8484ZM9.96963 13.3594C9.96963 15.4996 11.7189 17.249 13.8592 17.249C15.9994 17.249 17.7487 15.4996 17.7487 13.3594C17.7487 11.2191 15.9994 9.4796 13.8592 9.4796C11.7189 9.4796 9.96963 11.2191 9.96963 13.3594ZM16.7716 29.6309C16.7716 22.272 22.7721 16.2813 30.1408 16.2813C37.5094 16.2813 43.5001 22.272 43.5001 29.6309C43.5001 37.0093 37.5094 43 30.1408 43C22.7721 43 16.7716 37.0093 16.7716 29.6309ZM31.1184 20.769C31.1184 20.2293 30.6765 19.7865 30.1363 19.7865C29.5962 19.7865 29.1533 20.2293 29.1533 20.769C29.1533 21.3087 29.5962 21.752 30.1363 21.752C30.6765 21.752 31.1184 21.3087 31.1184 20.769ZM20.836 27.4229C20.836 27.9626 21.2788 28.4054 21.819 28.4054C22.3592 28.4054 22.802 27.9626 22.802 27.4229C22.802 26.8832 22.3592 26.4399 21.819 26.4399C21.2788 26.4399 20.836 26.8832 20.836 27.4229ZM24.9942 37.126C24.9942 37.6657 25.437 38.109 25.9772 38.109C26.5174 38.109 26.9602 37.6657 26.9602 37.126C26.9602 36.5863 26.5174 36.1435 25.9772 36.1435C25.437 36.1435 24.9942 36.5863 24.9942 37.126ZM26.2512 29.6309C26.2512 31.7809 27.9907 33.5302 30.1408 33.5302C32.281 33.5302 34.0205 31.7809 34.0205 29.6309C34.0205 27.4907 32.281 25.7511 30.1408 25.7511C27.9907 25.7511 26.2512 27.4907 26.2512 29.6309ZM34.4205 37.126C34.4205 37.6657 34.8634 38.109 35.4035 38.109C35.9437 38.109 36.3865 37.6657 36.3865 37.126C36.3865 36.5863 35.9437 36.1435 35.4035 36.1435C34.8634 36.1435 34.4205 36.5863 34.4205 37.126ZM37.4697 27.4229C37.4697 27.9626 37.9126 28.4054 38.4527 28.4054C38.9929 28.4054 39.4357 27.9626 39.4357 27.4229C39.4357 26.8832 38.9929 26.4399 38.4527 26.4399C37.9126 26.4399 37.4697 26.8832 37.4697 27.4229Z" fill="#C85743"/>
</svg>
