<svg width="36" height="49" viewBox="0 0 36 49" fill="none" xmlns="http://www.w3.org/2000/svg">
<path d="M24.674 21.986C25.496 21.478 25.924 20.568 25.794 19.61C25.66 18.652 25 17.894 24.072 17.628L22.494 17.176C22.324 17.128 22.206 16.976 22.202 16.8L22.156 15.16C22.128 14.194 21.554 13.368 20.658 13.002C19.768 12.638 18.776 12.83 18.082 13.502L16.902 14.642C16.776 14.766 16.584 14.788 16.43 14.706L14.988 13.93C14.138 13.47 13.134 13.55 12.37 14.146C11.608 14.74 11.278 15.692 11.514 16.628L11.912 18.22C11.954 18.388 11.88 18.57 11.732 18.66L10.338 19.52C9.51401 20.026 9.08401 20.936 9.21601 21.894C9.34601 22.852 10.006 23.612 10.936 23.88L12.512 24.33C12.682 24.378 12.8 24.53 12.804 24.706L12.85 26.346C12.878 27.31 13.452 28.138 14.348 28.502C14.648 28.624 14.96 28.684 15.266 28.684C15.874 28.684 16.466 28.45 16.926 28.004L18.104 26.864C18.232 26.74 18.424 26.716 18.576 26.8L20.02 27.58C20.876 28.042 21.874 27.956 22.638 27.362C23.4 26.768 23.728 25.818 23.494 24.882L23.096 23.288C23.054 23.118 23.126 22.942 23.278 22.848L24.674 21.986ZM16.984 22.504C15.88 22.504 14.984 21.606 14.984 20.504C14.984 19.402 15.88 18.504 16.984 18.504C18.088 18.504 18.984 19.402 18.984 20.504C18.984 21.606 18.088 22.504 16.984 22.504Z" fill="#C85743"/>
<path d="M7.23801 21.3041C7.31601 19.8841 8.03001 18.5901 9.29001 17.8161L9.68601 17.5701L9.57401 17.1161C9.14401 15.3961 9.74601 13.6541 11.144 12.5681C11.926 11.9601 12.856 11.6361 13.838 11.6361C14.258 11.6361 14.672 11.7141 15.078 11.8341L15.342 10.8641C15.596 9.93207 15.29 8.97607 14.54 8.36607C13.784 7.75007 12.782 7.65007 11.926 8.09007L10.466 8.83807C10.31 8.92007 10.118 8.89007 9.99801 8.76407L8.84401 7.59807C8.16401 6.91207 7.18201 6.70007 6.27801 7.04607C5.37601 7.39007 4.78401 8.20607 4.73601 9.17207L4.65601 10.8081C4.64401 10.9841 4.52401 11.1341 4.35401 11.1801L2.76801 11.5961C1.83201 11.8421 1.15601 12.5881 1.00401 13.5441C0.85401 14.4981 1.26401 15.4161 2.07401 15.9401L3.45001 16.8301C3.60001 16.9241 3.66801 17.1041 3.62001 17.2741L3.19001 18.8581C2.93601 19.7901 3.24401 20.7481 3.99601 21.3581C4.74601 21.9681 5.74801 22.0701 6.60801 21.6301L7.23801 21.3041ZM5.98401 13.5041C5.98401 12.4021 6.88001 11.5041 7.98401 11.5041C9.08801 11.5041 9.98401 12.4021 9.98401 13.5041C9.98401 14.6061 9.08801 15.5041 7.98401 15.5041C6.88001 15.5041 5.98401 14.6081 5.98401 13.5041Z" fill="#C85743"/>
<path d="M34.078 15.3941C34.068 15.3881 34.06 15.3841 34.052 15.3781L32.676 14.4881C32.528 14.3921 32.46 14.2141 32.506 14.0421L32.938 12.4581C33.192 11.5261 32.884 10.5681 32.134 9.96009C31.38 9.35009 30.382 9.24408 29.52 9.68808L28.06 10.4361C27.908 10.5141 27.714 10.4861 27.592 10.3601L26.438 9.19409C25.756 8.50809 24.768 8.29209 23.872 8.64209C22.97 8.98609 22.378 9.80208 22.33 10.7681L22.286 11.6601C23.408 12.4441 24.116 13.6801 24.156 15.1041L24.168 15.5761L24.624 15.7061C25.38 15.9221 26.016 16.3381 26.536 16.8641C26.2 16.5061 25.986 16.0321 25.986 15.5041C25.986 14.4021 26.882 13.5041 27.986 13.5041C29.09 13.5041 29.986 14.4021 29.986 15.5041C29.986 16.6061 29.09 17.5041 27.986 17.5041C27.488 17.5041 27.046 17.3021 26.696 17.0001C27.266 17.6361 27.652 18.4341 27.776 19.3341C27.966 20.7181 27.498 22.0321 26.564 22.9861L27.286 23.7161C27.75 24.1841 28.356 24.4321 28.982 24.4321C29.274 24.4321 29.568 24.3801 29.854 24.2681C30.756 23.9241 31.348 23.1081 31.396 22.1421L31.478 20.5061C31.488 20.3301 31.608 20.1801 31.778 20.1341L33.494 19.6721C34.314 19.3321 34.886 18.5181 34.988 17.5521C35.08 16.6601 34.74 15.8501 34.078 15.3941Z" fill="#C85743"/>
<path d="M25.53 24.792L25.476 24.82C25.716 26.392 25.146 27.942 23.868 28.938C23.076 29.552 22.146 29.874 21.166 29.874C20.444 29.874 19.716 29.688 19.068 29.338L18.654 29.114L18.316 29.44C17.488 30.242 16.404 30.684 15.266 30.684C14.696 30.684 14.134 30.574 13.596 30.356C11.954 29.688 10.9 28.174 10.85 26.402L10.84 25.93L10.388 25.802C9.10002 25.434 8.09802 24.546 7.58002 23.376L7.52002 23.408C7.20202 23.572 6.86402 23.694 6.52002 23.776L8.82802 26.662C11.508 30.01 12.984 34.218 12.984 38.506V47.504C12.984 48.056 13.432 48.504 13.984 48.504H19.984C20.536 48.504 20.984 48.056 20.984 47.504V40.468C20.984 35.056 23.304 29.89 27.348 26.296L27.502 26.158C26.896 25.938 26.334 25.6 25.864 25.124L25.53 24.792Z" fill="#C85743"/>
<path d="M15.516 12.0041C15.656 12.0621 15.804 12.0961 15.94 12.1701L16.352 12.3941L16.692 12.0661C16.974 11.7941 17.294 11.5801 17.628 11.3941C18.274 11.0341 18.992 10.8241 19.746 10.8241C20.318 10.8241 20.878 10.9361 21.416 11.1541C21.454 11.1701 21.484 11.1981 21.522 11.2161C23.112 5.77408 26.646 2.26208 26.686 2.22208C27.08 1.83608 27.086 1.20408 26.702 0.80808C26.318 0.41208 25.684 0.40608 25.29 0.79008C25.12 0.95608 21.832 4.26408 19.992 9.54408C20.91 4.34808 20.986 1.65808 20.986 1.52008C20.994 0.96808 20.552 0.51408 20.002 0.50608C19.436 0.41208 18.996 0.93808 18.986 1.49008C18.986 1.52808 18.912 4.82408 17.64 11.2841C18.408 4.54608 14.862 0.96208 14.684 0.79008C14.29 0.40608 13.66 0.41208 13.274 0.80608C12.888 1.19808 12.894 1.83008 13.284 2.21808C13.436 2.37008 16.626 5.65808 15.516 12.0041Z" fill="#C85743"/>
</svg>
