<svg width="46" height="39" viewBox="0 0 46 39" fill="none" xmlns="http://www.w3.org/2000/svg">
<path fill-rule="evenodd" clip-rule="evenodd" d="M2.75 25.5H22.25C22.6642 25.5 23 25.1642 23 24.75C23 20.2425 20.7138 16.5 12.5 16.5C4.28622 16.5 2 20.2425 2 24.75C2 25.1642 2.33579 25.5 2.75 25.5ZM22.25 34.5H2.75C2.33579 34.5 2 34.8358 2 35.25V37.5C2 38.3284 2.67157 39 3.5 39H21.5C22.3284 39 23 38.3284 23 37.5V35.25C23 34.8358 22.6642 34.5 22.25 34.5ZM45.4886 12.588L45.113 11.0888C45.029 10.7549 44.7287 10.5209 44.3844 10.5211H39.52L40.2575 1.6941C40.2915 1.28128 39.9844 0.919062 39.5716 0.885049C39.5714 0.885031 39.5712 0.885013 39.5709 0.884995L38.0735 0.760495C37.6605 0.725768 37.2975 1.03223 37.2625 1.44517L36.5043 10.5211H25.6149C25.2707 10.5209 24.9705 10.7549 24.8868 11.0888L24.5112 12.588C24.4145 12.9857 24.6585 13.3864 25.0562 13.483C25.0899 13.4912 25.1241 13.4971 25.1586 13.5004H44.8407C45.2482 13.4603 45.546 13.0975 45.5059 12.69C45.5025 12.6556 45.4967 12.6216 45.4886 12.588V12.588ZM43.2417 15.0004H26.7411C26.3269 15.0004 25.9911 15.3362 25.991 15.7504C25.991 15.7712 25.9919 15.7921 25.9936 15.8128L27.8126 37.625C27.8774 38.4025 28.5273 39.0005 29.3075 39.0004H40.6752C41.4552 39.0004 42.105 38.4027 42.17 37.6254L43.9895 15.8128C44.024 15.4001 43.7173 15.0375 43.3045 15.003C43.2836 15.0013 43.2627 15.0004 43.2417 15.0004V15.0004ZM22.25 27H18.5C14.0488 27 11.9113 30 11 30C10.0887 30 7.95103 27 3.5 27H2.75C1.09325 27 0.5 28.3431 0.5 30C0.5 31.6569 1.0931 33 2.75 33H22.25C23.9068 33 24.5 31.6569 24.5 30C24.5 28.3431 23.9067 27 22.25 27Z" fill="#C85743"/>
</svg>
