<svg width="36" height="35" viewBox="0 0 36 35" fill="none" xmlns="http://www.w3.org/2000/svg">
<path fill-rule="evenodd" clip-rule="evenodd" d="M3.375 14.1H32.625C33.2463 14.1 33.75 13.5926 33.75 12.9667C33.75 6.15533 30.3207 0.5 18 0.5C5.67934 0.5 2.25 6.15533 2.25 12.9667C2.25 13.5926 2.75368 14.1 3.375 14.1ZM32.625 27.7H3.375C2.75368 27.7 2.25 28.2074 2.25 28.8333V32.2333C2.25 33.4852 3.25736 34.5 4.5 34.5H31.5C32.7426 34.5 33.75 33.4852 33.75 32.2333V28.8333C33.75 28.2074 33.2463 27.7 32.625 27.7ZM32.625 16.3667H27C20.3232 16.3667 17.117 20.9 15.75 20.9C14.383 20.9 11.1765 16.3667 4.5 16.3667H3.375C0.889875 16.3667 0 18.3962 0 20.9C0 23.4038 0.88965 25.4333 3.375 25.4333H32.625C35.1102 25.4333 36 23.4038 36 20.9C36 18.3962 35.1101 16.3667 32.625 16.3667Z" fill="#C85743"/>
</svg>
