<svg width="41" height="41" viewBox="0 0 41 41" fill="none" xmlns="http://www.w3.org/2000/svg">
<path d="M20.1366 0.233034C20.1366 0.233034 31.8833 -0.294101 38.1112 11.5131H19.1371C19.1371 11.5131 15.5563 11.3977 12.4975 15.7417C11.6189 17.565 10.6744 19.4432 11.7343 23.1447C10.2075 20.558 3.62842 9.10232 3.62842 9.10232C3.62842 9.10232 8.26892 0.699814 20.1365 0.233034H20.1366Z" fill="#EF3F36"/>
<path d="M37.5019 30.207C37.5019 30.207 32.0814 40.6468 18.7476 40.1306C20.3951 37.2803 28.2372 23.6992 28.2372 23.6992C28.2372 23.6992 30.132 20.6568 27.8968 15.8351C26.7599 14.1601 25.6011 12.4082 21.8669 11.4745C24.8709 11.4472 38.0786 11.4745 38.0786 11.4745C38.0786 11.4745 43.0265 19.6958 37.5019 30.207Z" fill="#FCD900"/>
<path d="M2.85451 30.29C2.85451 30.29 -3.4775 20.3774 3.63976 9.08643C5.28183 11.9367 13.124 25.5178 13.124 25.5178C13.124 25.5178 14.8155 28.681 20.104 29.1531C22.1196 29.005 24.2174 28.8786 26.8975 26.1163C25.4199 28.7305 18.7913 40.1532 18.7913 40.1532C18.7913 40.1532 9.19183 40.329 2.85436 30.29H2.85451Z" fill="#61BC5B"/>
<path d="M18.7422 40.2299L21.4111 29.0927C21.4111 29.0927 24.3437 28.8619 26.8041 26.1655C25.2773 28.8511 18.7422 40.2299 18.7422 40.2299Z" fill="#5AB055"/>
<path d="M11.1963 20.355C11.1963 15.4455 15.1779 11.4639 20.0874 11.4639C24.9969 11.4639 28.9785 15.4455 28.9785 20.355C28.9785 25.2647 24.9969 29.2461 20.0874 29.2461C15.1779 29.2406 11.1963 25.2647 11.1963 20.355Z" fill="white"/>
<path d="M12.6846 20.355C12.6846 16.2692 15.9962 12.9521 20.0875 12.9521C24.1733 12.9521 27.4904 16.2637 27.4904 20.355C27.4904 24.4409 24.1789 27.7579 20.0875 27.7579C16.0016 27.7579 12.6846 24.4409 12.6846 20.355Z" fill="url(#paint0_linear_3581_136634)"/>
<path d="M38.0729 11.4805L27.0839 14.7041C27.0839 14.7041 25.4254 12.2712 21.8613 11.4805C24.9532 11.464 38.0729 11.4805 38.0729 11.4805Z" fill="#EACA05"/>
<path d="M11.5202 22.738C9.97681 20.0635 3.62842 9.10205 3.62842 9.10205L11.7672 17.1529C11.7672 17.1529 10.9324 18.8718 11.2455 21.3321L11.52 22.738H11.5202Z" fill="#DF3A32"/>
<defs>
<linearGradient id="paint0_linear_3581_136634" x1="20.0872" y1="13.0567" x2="20.0872" y2="27.3123" gradientUnits="userSpaceOnUse">
<stop stop-color="#86BBE5"/>
<stop offset="1" stop-color="#1072BA"/>
</linearGradient>
</defs>
</svg>
