<svg width="42" height="29" viewBox="0 0 42 29" fill="none" xmlns="http://www.w3.org/2000/svg">
<path fill-rule="evenodd" clip-rule="evenodd" d="M33.459 15H32.837C32.0633 21.6352 28.56 24 23.2513 24H18.752C12.7087 24 9.00249 20.94 9.00249 12V1.5C9.00249 0.671572 9.67406 0 10.5025 0H39C39.8284 -3.62117e-08 40.5 0.671572 40.5 1.5V6.19995C40.5 12.7562 37.8233 15 33.459 15ZM37.4994 3.375C37.4994 3.16789 37.3315 3 37.1244 3H33.3756C33.1685 3 33.0006 3.16789 33.0006 3.375V11.625C33.0006 11.8321 33.1685 12 33.3756 12H33.4595C35.3531 12 37.4994 12 37.4994 6.2001V3.375ZM42 26.2369C42.0085 27.4795 37.8347 28.5 36 28.5H5.99934C4.16491 28.5 -0.00868642 27.4795 1.35806e-05 26.2369C0.00799846 25.8265 0.343767 25.4984 0.754214 25.5H41.2457C41.6562 25.4985 41.9919 25.8265 42 26.2369Z" fill="#C85743"/>
</svg>
