<svg width="41" height="41" viewBox="0 0 41 41" fill="none" xmlns="http://www.w3.org/2000/svg">
<path d="M36.3582 29.9975C35.8244 30.2764 35.274 30.5222 34.71 30.7334C32.9148 31.4045 31.013 31.7464 29.0962 31.7426C21.6966 31.7426 15.2509 26.6573 15.2509 20.1315C15.2604 19.2562 15.5035 18.3993 15.9551 17.6492C16.4068 16.8992 17.0506 16.2832 17.8201 15.8647C11.1273 16.146 9.40723 23.1139 9.40723 27.1963C9.40723 38.7387 20.0547 39.9089 22.3487 39.9089C23.5856 39.9089 25.4511 39.5496 26.5708 39.1965L26.7756 39.1277C31.0841 37.6396 34.7571 34.7303 37.1901 30.8787C37.2646 30.7614 37.2979 30.6226 37.2846 30.4843C37.2714 30.346 37.2124 30.216 37.117 30.115C37.0216 30.0139 36.8952 29.9475 36.7578 29.9262C36.6203 29.905 36.4797 29.93 36.3582 29.9975Z" fill="url(#paint0_linear_3581_136619)"/>
<path opacity="0.35" d="M36.3582 29.9975C35.8244 30.2764 35.274 30.5222 34.71 30.7334C32.9148 31.4045 31.013 31.7464 29.0962 31.7426C21.6966 31.7426 15.2509 26.6573 15.2509 20.1315C15.2604 19.2562 15.5035 18.3993 15.9551 17.6492C16.4068 16.8992 17.0506 16.2832 17.8201 15.8647C11.1273 16.146 9.40723 23.1139 9.40723 27.1963C9.40723 38.7387 20.0547 39.9089 22.3487 39.9089C23.5856 39.9089 25.4511 39.5496 26.5708 39.1965L26.7756 39.1277C31.0841 37.6396 34.7571 34.7303 37.1901 30.8787C37.2646 30.7614 37.2979 30.6226 37.2846 30.4843C37.2714 30.346 37.2124 30.216 37.117 30.115C37.0216 30.0139 36.8952 29.9475 36.7578 29.9262C36.6203 29.905 36.4797 29.93 36.3582 29.9975Z" fill="url(#paint1_radial_3581_136619)"/>
<path d="M16.7582 37.9471C15.3634 37.0822 14.1547 35.9489 13.2023 34.6131C12.1167 33.1271 11.3697 31.4219 11.0136 29.6169C10.6575 27.812 10.701 25.9511 11.141 24.1647C11.581 22.3783 12.4068 20.7097 13.5606 19.276C14.7144 17.8423 16.1682 16.6781 17.82 15.8652C18.3078 15.6355 19.1413 15.22 20.25 15.2403C21.0311 15.2459 21.8003 15.4323 22.4972 15.7846C23.1942 16.137 23.8 16.6459 24.2672 17.2713C24.8987 18.1137 25.2469 19.1342 25.2618 20.1866C25.2618 20.1538 29.0867 7.75049 12.7519 7.75049C5.88711 7.75049 0.242027 14.2591 0.242027 19.9694C0.214949 22.9901 0.86185 25.9788 2.13571 28.7184C4.21755 33.1563 7.85813 36.6759 12.3661 38.6087C16.8741 40.5415 21.9356 40.7531 26.5894 39.2032C24.9599 39.7165 23.2384 39.8706 21.5435 39.6548C19.8487 39.439 18.2208 38.8585 16.7723 37.9533L16.7582 37.9471Z" fill="url(#paint2_linear_3581_136619)"/>
<path opacity="0.41" d="M16.7582 37.9471C15.3634 37.0822 14.1547 35.9489 13.2023 34.6131C12.1167 33.1271 11.3697 31.4219 11.0136 29.6169C10.6575 27.812 10.701 25.9511 11.141 24.1647C11.581 22.3783 12.4068 20.7097 13.5606 19.276C14.7144 17.8423 16.1682 16.6781 17.82 15.8652C18.3078 15.6355 19.1413 15.22 20.25 15.2403C21.0311 15.2459 21.8003 15.4323 22.4972 15.7846C23.1942 16.137 23.8 16.6459 24.2672 17.2713C24.8987 18.1137 25.2469 19.1342 25.2618 20.1866C25.2618 20.1538 29.0867 7.75049 12.7519 7.75049C5.88711 7.75049 0.242027 14.2591 0.242027 19.9694C0.214949 22.9901 0.86185 25.9788 2.13571 28.7184C4.21755 33.1563 7.85813 36.6759 12.3661 38.6087C16.8741 40.5415 21.9356 40.7531 26.5894 39.2032C24.9599 39.7165 23.2384 39.8706 21.5435 39.6548C19.8487 39.439 18.2208 38.8585 16.7723 37.9533L16.7582 37.9471Z" fill="url(#paint3_radial_3581_136619)"/>
<path d="M24.0455 23.4862C23.9188 23.6503 23.5294 23.8768 23.5294 24.3705C23.5294 24.7783 23.7953 25.1704 24.2675 25.5001C26.5162 27.0624 30.7554 26.8562 30.7664 26.8562C32.4326 26.8522 34.0672 26.4017 35.4998 25.5516C36.945 24.7085 38.1445 23.5026 38.9792 22.0534C39.8139 20.6042 40.2548 18.9621 40.2583 17.2901C40.2989 13.7889 39.0073 11.461 38.485 10.4299C35.1714 3.95407 28.0189 0.229492 20.2409 0.229492C14.9808 0.228973 9.93189 2.29722 6.18618 5.98692C2.44048 9.67662 0.299068 14.6912 0.225098 19.946C0.300157 14.2373 5.97964 9.62687 12.735 9.62687C13.2823 9.62687 16.4035 9.67999 19.3027 11.2001C21.8578 12.5406 23.1964 14.1592 24.1268 15.7637C25.0932 17.4307 25.2652 19.5367 25.2652 20.3756C25.2652 21.2146 24.8367 22.4582 24.0455 23.4862Z" fill="url(#paint4_radial_3581_136619)"/>
<path d="M24.0455 23.4862C23.9188 23.6503 23.5294 23.8768 23.5294 24.3705C23.5294 24.7783 23.7953 25.1704 24.2675 25.5001C26.5162 27.0624 30.7554 26.8562 30.7664 26.8562C32.4326 26.8522 34.0672 26.4017 35.4998 25.5516C36.945 24.7085 38.1445 23.5026 38.9792 22.0534C39.8139 20.6042 40.2548 18.9621 40.2583 17.2901C40.2989 13.7889 39.0073 11.461 38.485 10.4299C35.1714 3.95407 28.0189 0.229492 20.2409 0.229492C14.9808 0.228973 9.93189 2.29722 6.18618 5.98692C2.44048 9.67662 0.299068 14.6912 0.225098 19.946C0.300157 14.2373 5.97964 9.62687 12.735 9.62687C13.2823 9.62687 16.4035 9.67999 19.3027 11.2001C21.8578 12.5406 23.1964 14.1592 24.1268 15.7637C25.0932 17.4307 25.2652 19.5367 25.2652 20.3756C25.2652 21.2146 24.8367 22.4582 24.0455 23.4862Z" fill="url(#paint5_radial_3581_136619)"/>
<defs>
<linearGradient id="paint0_linear_3581_136619" x1="9.40723" y1="27.8899" x2="37.2949" y2="27.8899" gradientUnits="userSpaceOnUse">
<stop stop-color="#0C59A4"/>
<stop offset="1" stop-color="#114A8B"/>
</linearGradient>
<radialGradient id="paint1_radial_3581_136619" cx="0" cy="0" r="1" gradientUnits="userSpaceOnUse" gradientTransform="translate(24.81 28.1095) scale(14.9149 14.1564)">
<stop offset="0.72" stop-opacity="0"/>
<stop offset="0.95" stop-opacity="0.53"/>
<stop offset="1"/>
</radialGradient>
<linearGradient id="paint2_linear_3581_136619" x1="24.1093" y1="15.8043" x2="6.70793" y2="34.7756" gradientUnits="userSpaceOnUse">
<stop stop-color="#1B9DE2"/>
<stop offset="0.16" stop-color="#1595DF"/>
<stop offset="0.67" stop-color="#0680D7"/>
<stop offset="1" stop-color="#0078D4"/>
</linearGradient>
<radialGradient id="paint3_radial_3581_136619" cx="0" cy="0" r="1" gradientUnits="userSpaceOnUse" gradientTransform="translate(11.2639 31.321) rotate(-81.3767) scale(22.4082 18.1192)">
<stop offset="0.76" stop-opacity="0"/>
<stop offset="0.95" stop-opacity="0.5"/>
<stop offset="1"/>
</radialGradient>
<radialGradient id="paint4_radial_3581_136619" cx="0" cy="0" r="1" gradientUnits="userSpaceOnUse" gradientTransform="translate(4.2693 7.63128) rotate(92.2927) scale(31.6514 67.4717)">
<stop stop-color="#35C1F1"/>
<stop offset="0.11" stop-color="#34C1ED"/>
<stop offset="0.23" stop-color="#2FC2DF"/>
<stop offset="0.31" stop-color="#2BC3D2"/>
<stop offset="0.67" stop-color="#36C752"/>
</radialGradient>
<radialGradient id="paint5_radial_3581_136619" cx="0" cy="0" r="1" gradientUnits="userSpaceOnUse" gradientTransform="translate(37.766 12.3228) rotate(73.7259) scale(15.2087 12.3772)">
<stop stop-color="#66EB6E"/>
<stop offset="1" stop-color="#66EB6E" stop-opacity="0"/>
</radialGradient>
</defs>
</svg>
