<svg width="39" height="39" viewBox="0 0 39 39" fill="none" xmlns="http://www.w3.org/2000/svg">
<path fill-rule="evenodd" clip-rule="evenodd" d="M19.622 30.0554C18.0913 30.0609 16.5958 29.5975 15.3371 28.7275C14.0785 27.8576 13.1172 26.6231 12.5832 25.1905H26.6602C26.1263 26.6231 25.1653 27.8576 23.9067 28.7276C22.6481 29.5975 21.1526 30.061 19.622 30.0554ZM28.2109 22.7957H11.0331C10.8593 22.7956 10.6875 22.8333 10.5298 22.9063C10.3721 22.9792 10.2321 23.0856 10.1198 23.218C10.0074 23.3505 9.92527 23.5058 9.87912 23.6731C9.83298 23.8405 9.82391 24.0159 9.85255 24.1871C10.2396 26.4953 11.4335 28.5917 13.2221 30.1038C15.0107 31.6159 17.2783 32.4456 19.6217 32.4456C21.9651 32.4456 24.2326 31.6159 26.0212 30.1038C27.8099 28.5917 29.0038 26.4953 29.3908 24.1871C29.4192 24.016 29.4099 23.8408 29.3637 23.6735C29.3175 23.5063 29.2355 23.3512 29.1232 23.2188C29.011 23.0864 28.8712 22.98 28.7137 22.907C28.5562 22.8339 28.3846 22.796 28.2109 22.7957ZM23.5134 14.1003C23.5133 13.452 23.7382 12.8238 24.1499 12.3226C24.5616 11.8214 25.1346 11.4783 25.7712 11.3518C26.4078 11.2252 27.0686 11.323 27.6411 11.6285C28.2136 11.934 28.6623 12.4284 28.9108 13.0272C29.1592 13.6261 29.1921 14.2925 29.0037 14.9128C28.8153 15.5332 28.4174 16.0691 27.8777 16.4293C27.338 16.7894 26.6899 16.9516 26.0439 16.888C25.398 16.8245 24.7941 16.5392 24.3351 16.0808C24.0746 15.8208 23.8679 15.512 23.7269 15.1722C23.5859 14.8324 23.5134 14.4681 23.5134 14.1003ZM10.1217 14.1003C10.1219 13.4524 10.347 12.8246 10.7587 12.3239C11.1703 11.8232 11.7431 11.4805 12.3794 11.3542C13.0157 11.228 13.6761 11.326 14.2482 11.6315C14.8203 11.9371 15.2686 12.4312 15.5167 13.0299C15.7648 13.6285 15.7975 14.2945 15.609 14.9144C15.4206 15.5344 15.0227 16.0699 14.4832 16.4297C13.9438 16.7896 13.2961 16.9515 12.6505 16.8879C12.0049 16.8242 11.4013 16.539 10.9427 16.0808C10.4171 15.5553 10.1219 14.843 10.1217 14.1003ZM19.622 36.2101C23.5031 36.215 27.2658 34.8755 30.2687 32.4199C33.2715 29.9643 35.3287 26.5446 36.0895 22.7438C36.8502 18.943 36.2675 14.9963 34.4407 11.5765C32.6139 8.15674 29.656 5.47556 26.0713 3.99001C22.4865 2.50445 18.4969 2.3065 14.7823 3.42988C11.0678 4.55326 7.85839 6.92844 5.70114 10.1505C3.54389 13.3726 2.57236 17.2422 2.95216 21.0996C3.33195 24.957 5.03957 28.5635 7.78392 31.3042C10.923 34.4416 15.1809 36.2062 19.622 36.2101ZM19.622 0.358569C15.1868 0.352491 10.8867 1.88277 7.45475 4.68857C4.0228 7.49436 1.67143 11.402 0.801449 15.7454C-0.0685358 20.0887 0.596716 24.599 2.68381 28.5074C4.7709 32.4157 8.15064 35.4803 12.2469 37.1786C16.3432 38.8769 20.9025 39.1039 25.1476 37.8208C29.3927 36.5378 33.0609 33.8241 35.5268 30.1424C37.9928 26.4608 39.1039 22.0389 38.6707 17.6307C38.2376 13.2224 36.287 9.10061 33.1515 5.96786C29.5647 2.38057 24.6982 0.362894 19.622 0.358569Z" fill="#A9ABB6"/>
</svg>
