<svg width="39" height="39" viewBox="0 0 39 39" fill="none" xmlns="http://www.w3.org/2000/svg">
<path fill-rule="evenodd" clip-rule="evenodd" d="M26.3175 16.8978C26.9348 16.8978 27.5349 16.6943 28.0246 16.319C28.5143 15.9437 28.8663 15.4175 29.0261 14.8221C29.1858 14.2266 29.1443 13.5951 28.9081 13.0255C28.6718 12.456 28.254 11.9802 27.7194 11.672C27.1847 11.3638 26.5632 11.2404 25.9512 11.3209C25.3392 11.4015 24.7709 11.6814 24.3345 12.1174C23.898 12.5534 23.6178 13.121 23.5373 13.7322C23.4568 14.3434 23.5806 14.9641 23.8893 15.4979C24.1355 15.9235 24.4895 16.2769 24.9157 16.5226C25.3419 16.7683 25.8254 16.8977 26.3175 16.8978ZM12.9251 16.8978C13.5424 16.8978 14.1425 16.6943 14.6322 16.319C15.1219 15.9437 15.4739 15.4175 15.6337 14.8221C15.7934 14.2266 15.7519 13.5951 15.5157 13.0255C15.2794 12.456 14.8616 11.9802 14.327 11.672C13.7923 11.3638 13.1708 11.2404 12.5588 11.3209C11.9468 11.4015 11.3785 11.6814 10.9421 12.1174C10.5056 12.5534 10.2254 13.121 10.1449 13.7322C10.0644 14.3434 10.1882 14.9641 10.4969 15.4979C10.7431 15.9235 11.0971 16.2769 11.5233 16.5226C11.9495 16.7683 12.433 16.8977 12.9251 16.8978ZM36.3724 19.4774C36.3773 23.3537 35.0359 27.1117 32.5769 30.1108C30.1178 33.11 26.6934 35.1646 22.8873 35.9244C19.0812 36.6843 15.129 36.1023 11.7045 34.2777C8.27992 32.4532 5.59497 29.499 4.10732 25.9187C2.61967 22.3384 2.42139 18.3536 3.54629 14.6437C4.6712 10.9337 7.04964 7.72825 10.2762 5.57361C13.5027 3.41897 17.3777 2.44856 21.2405 2.82781C25.1033 3.20706 28.7148 4.91249 31.4594 7.65338C34.602 10.7883 36.3692 15.0414 36.3724 19.4774V19.4774ZM38.7639 19.4774C38.7684 23.9058 37.2349 28.1987 34.4248 31.6245C31.6147 35.0502 27.702 37.3966 23.3536 38.2639C19.0052 39.1311 14.4902 38.4655 10.5782 36.3804C6.66617 34.2953 3.59927 30.9199 1.90023 26.8294C0.201197 22.7389 -0.0248164 18.1865 1.26071 13.9483C2.54625 9.71 5.26376 6.04813 8.95005 3.5868C12.6364 1.12548 17.0633 0.0170543 21.4763 0.450451C25.8893 0.883849 30.0152 2.83224 33.1508 5.96354C36.742 9.54666 38.7611 14.4076 38.7639 19.4774V19.4774ZM29.4897 25.7478C29.49 25.5909 29.4593 25.4355 29.3993 25.2905C29.3393 25.1455 29.2513 25.0137 29.1402 24.9027C29.0292 24.7918 28.8973 24.7038 28.7521 24.6438C28.607 24.5838 28.4514 24.553 28.2943 24.5532H10.9469C10.7874 24.5494 10.6288 24.5774 10.4803 24.6357C10.3319 24.6939 10.1966 24.7813 10.0824 24.8925C9.96826 25.0038 9.87754 25.1368 9.8156 25.2836C9.75366 25.4304 9.72175 25.5881 9.72175 25.7474C9.72175 25.9067 9.75366 26.0644 9.8156 26.2112C9.87754 26.358 9.96826 26.491 10.0824 26.6023C10.1966 26.7135 10.3319 26.8009 10.4803 26.8592C10.6288 26.9174 10.7874 26.9455 10.9469 26.9416H28.295C28.4521 26.9421 28.6078 26.9115 28.753 26.8517C28.8983 26.7918 29.0302 26.7039 29.1413 26.593C29.2524 26.482 29.3404 26.3502 29.4004 26.2052C29.4603 26.0601 29.4909 25.9047 29.4904 25.7478H29.4897Z" fill="#A9ABB6"/>
</svg>
