<svg width="40" height="39" viewBox="0 0 40 39" fill="none" xmlns="http://www.w3.org/2000/svg">
<path fill-rule="evenodd" clip-rule="evenodd" d="M29.8193 25.75C29.8199 25.907 29.7893 26.0626 29.7294 26.2078C29.6695 26.3529 29.5814 26.4848 29.4702 26.5959C29.359 26.7069 29.227 26.7949 29.0816 26.8547C28.9362 26.9145 28.7804 26.9451 28.6232 26.9445H11.2751C10.963 26.9369 10.6662 26.8078 10.4482 26.5847C10.2301 26.3615 10.1081 26.0621 10.1081 25.7503C10.1081 25.4385 10.2301 25.1391 10.4482 24.916C10.6662 24.6929 10.963 24.5637 11.2751 24.5561H28.6232C28.7803 24.5559 28.9359 24.5865 29.0811 24.6464C29.2263 24.7063 29.3582 24.7942 29.4693 24.9051C29.5805 25.016 29.6686 25.1477 29.7286 25.2927C29.7887 25.4377 29.8195 25.5931 29.8193 25.75ZM10.5276 14.2901C10.2271 14.1899 9.97843 13.9753 9.83566 13.6929C9.69288 13.4105 9.6676 13.0832 9.76532 12.7823C10.0422 11.9478 10.5754 11.2217 11.289 10.7071C12.0027 10.1925 12.8605 9.9155 13.7408 9.9155C14.621 9.9155 15.4789 10.1925 16.1925 10.7071C16.9062 11.2217 17.4393 11.9478 17.7163 12.7823C17.7662 12.931 17.7862 13.088 17.775 13.2445C17.7639 13.4009 17.7219 13.5536 17.6515 13.6937C17.581 13.8339 17.4835 13.9587 17.3645 14.0611C17.2455 14.1634 17.1074 14.2412 16.9582 14.2901C16.8369 14.3323 16.7094 14.3537 16.5809 14.3536C16.3298 14.3532 16.0852 14.2734 15.8821 14.1258C15.6791 13.9782 15.528 13.7702 15.4505 13.5316C15.3311 13.1742 15.1021 12.8635 14.796 12.6433C14.4899 12.4231 14.1223 12.3046 13.745 12.3046C13.3678 12.3046 13.0001 12.4231 12.6941 12.6433C12.388 12.8635 12.159 13.1742 12.0395 13.5316C11.9903 13.6804 11.9122 13.8181 11.8097 13.9367C11.7071 14.0553 11.5821 14.1526 11.4419 14.2229C11.3017 14.2932 11.1489 14.3352 10.9924 14.3465C10.8359 14.3578 10.6787 14.3381 10.5297 14.2887L10.5276 14.2901ZM30.1323 12.7823C30.1857 12.932 30.2087 13.0909 30.1997 13.2497C30.1908 13.4084 30.1502 13.5637 30.0804 13.7066C30.0105 13.8494 29.9127 13.9769 29.7928 14.0815C29.6729 14.186 29.5333 14.2656 29.3822 14.3156C29.231 14.3655 29.0714 14.3848 28.9128 14.3722C28.7541 14.3597 28.5995 14.3156 28.4581 14.2426C28.3167 14.1695 28.1913 14.069 28.0894 13.9469C27.9874 13.8248 27.911 13.6836 27.8644 13.5316C27.745 13.1742 27.516 12.8635 27.2099 12.6433C26.9038 12.4231 26.5362 12.3046 26.1589 12.3046C25.7817 12.3046 25.414 12.4231 25.108 12.6433C24.8019 12.8635 24.5729 13.1742 24.4534 13.5316C24.3749 13.7705 24.2228 13.9786 24.0187 14.1259C23.8147 14.2733 23.5692 14.3525 23.3174 14.3522C23.1902 14.3516 23.0639 14.3302 22.9436 14.2887C22.7944 14.2398 22.6563 14.162 22.5374 14.0597C22.4184 13.9573 22.3208 13.8325 22.2504 13.6923C22.1799 13.5522 22.1379 13.3995 22.1268 13.2431C22.1157 13.0866 22.1357 12.9295 22.1856 12.7809C22.4617 11.9462 22.9943 11.2198 23.7077 10.7049C24.421 10.19 25.2788 9.91278 26.1589 9.91278C27.0391 9.91278 27.8969 10.19 28.6102 10.7049C29.3236 11.2198 29.8562 11.9462 30.1323 12.7809V12.7823ZM19.9523 36.2072C23.8341 36.2124 27.5976 34.8729 30.6012 32.417C33.6047 29.9612 35.6624 26.541 36.4235 22.7395C37.1847 18.938 36.602 14.9906 34.775 11.5701C32.948 8.14965 29.9896 5.46787 26.4043 3.98194C22.8189 2.49601 18.8285 2.29792 15.1133 3.42144C11.3981 4.54495 8.18804 6.92052 6.03036 10.1432C3.87268 13.3659 2.90095 17.2361 3.28082 21.0942C3.66069 24.9523 5.36864 28.5595 8.11352 31.3007C11.2513 34.4392 15.5086 36.2048 19.9495 36.2094L19.9523 36.2072ZM19.9523 0.358564C15.5173 0.353371 11.2176 1.88445 7.78638 4.69082C4.35512 7.49719 2.00462 11.4051 1.13553 15.7485C0.266439 20.0919 0.93256 24.6019 3.02035 28.5097C5.10813 32.4175 8.48835 35.4812 12.5848 37.1787C16.6813 38.8761 21.2404 39.1022 25.4851 37.8184C29.7298 36.5345 33.3973 33.8203 35.8624 30.1382C38.3276 26.4562 39.4378 22.0343 39.0038 17.6263C38.5698 13.2183 36.6185 9.09706 33.4825 5.96503C29.8952 2.37847 25.0283 0.361799 19.9523 0.358564Z" fill="#A9ABB6"/>
</svg>
