<svg width="39" height="39" viewBox="0 0 39 39" fill="none" xmlns="http://www.w3.org/2000/svg">
<path fill-rule="evenodd" clip-rule="evenodd" d="M9.86407 14.288C9.71499 14.2389 9.57706 14.1609 9.45817 14.0585C9.33929 13.9562 9.24179 13.8314 9.17125 13.6913C9.1007 13.5513 9.0585 13.3987 9.04707 13.2424C9.03563 13.086 9.05517 12.929 9.10459 12.7802C9.38151 11.9457 9.91466 11.2196 10.6283 10.705C11.342 10.1904 12.1998 9.91338 13.0801 9.91338C13.9603 9.91338 14.8182 10.1904 15.5318 10.705C16.2455 11.2196 16.7786 11.9457 17.0555 12.7802C17.155 13.0812 17.1307 13.4095 16.9879 13.6926C16.845 13.9758 16.5954 14.1907 16.2939 14.2901C15.9924 14.3894 15.6638 14.3651 15.3802 14.2225C15.0967 14.0798 14.8815 13.8306 14.782 13.5295C14.6628 13.1722 14.434 12.8615 14.1281 12.6413C13.8222 12.4211 13.4547 12.3026 13.0776 12.3026C12.7005 12.3026 12.333 12.4211 12.0271 12.6413C11.7212 12.8615 11.4924 13.1722 11.3732 13.5295C11.2947 13.7683 11.1426 13.9762 10.9387 14.1236C10.7348 14.271 10.4895 14.3502 10.2378 14.35C10.1097 14.3494 9.98248 14.328 9.86125 14.2865L9.86407 14.288ZM29.4694 12.7802C29.5188 12.929 29.5384 13.086 29.5269 13.2424C29.5155 13.3987 29.4733 13.5513 29.4028 13.6913C29.3322 13.8314 29.2347 13.9562 29.1158 14.0585C28.997 14.1609 28.859 14.2389 28.7099 14.288C28.5888 14.3298 28.4616 14.3513 28.3334 14.3515C28.0824 14.3504 27.8381 14.2704 27.6352 14.1229C27.4323 13.9753 27.281 13.7677 27.203 13.5295C27.0837 13.1722 26.855 12.8615 26.5491 12.6413C26.2431 12.4211 25.8756 12.3026 25.4985 12.3026C25.1215 12.3026 24.7539 12.4211 24.448 12.6413C24.1421 12.8615 23.9134 13.1722 23.7941 13.5295C23.6944 13.8303 23.4792 14.0792 23.1957 14.2215C22.9122 14.3638 22.5838 14.3879 22.2826 14.2883C21.9814 14.1888 21.7321 13.9738 21.5896 13.6907C21.4471 13.4076 21.423 13.0795 21.5227 12.7787C21.7995 11.944 22.3326 11.2177 23.0463 10.7028C23.7601 10.188 24.6181 9.91091 25.4985 9.91091C26.379 9.91091 27.237 10.188 27.9508 10.7028C28.6645 11.2177 29.1976 11.944 29.4744 12.7787L29.4694 12.7802ZM28.9869 26.3927C27.9453 28.0181 26.5109 29.3556 24.8159 30.282C23.1208 31.2084 21.2196 31.694 19.2874 31.694C17.3551 31.694 15.4539 31.2084 13.7588 30.282C12.0638 29.3556 10.6294 28.0181 9.58783 26.3927C9.50308 26.2606 9.44521 26.1131 9.41754 25.9586C9.38987 25.8042 9.39293 25.6458 9.42655 25.4925C9.46018 25.3392 9.5237 25.1941 9.6135 25.0653C9.70329 24.9365 9.81761 24.8267 9.94991 24.7421C10.0822 24.6574 10.2299 24.5996 10.3846 24.572C10.5392 24.5444 10.6978 24.5474 10.8513 24.581C11.0048 24.6146 11.1502 24.678 11.2791 24.7677C11.408 24.8574 11.518 24.9715 11.6028 25.1037C12.4285 26.3912 13.5652 27.4506 14.9083 28.1844C16.2514 28.9182 17.7578 29.3028 19.2888 29.3028C20.8197 29.3028 22.3261 28.9182 23.6692 28.1844C25.0124 27.4506 26.1491 26.3912 26.9748 25.1037C27.1504 24.8473 27.4192 24.6694 27.724 24.6076C28.0288 24.5458 28.3457 24.6051 28.6075 24.7728C28.8694 24.9404 29.0555 25.2034 29.1264 25.5058C29.1974 25.8082 29.1476 26.1264 28.9876 26.3927H28.9869ZM19.2874 36.2072C23.1679 36.2116 26.9298 34.8718 29.9319 32.4162C32.934 29.9606 34.9905 26.5413 35.7508 22.7409C36.511 18.9406 35.928 14.9946 34.1012 11.5755C32.2743 8.1564 29.3167 5.47586 25.7324 3.99079C22.1481 2.50572 18.159 2.30804 14.4451 3.43146C10.7312 4.55488 7.52237 6.92986 5.36557 10.1516C3.20877 13.3733 2.23751 17.2423 2.61734 21.0991C2.99718 24.9559 4.70459 28.5618 7.44855 31.3021C10.588 34.4394 14.8461 36.2037 19.2874 36.2072ZM19.2874 0.358567C14.8521 0.352816 10.5521 1.88343 7.12034 4.6895C3.6886 7.49558 1.33753 11.4034 0.46789 15.7469C-0.401745 20.0904 0.263888 24.6006 2.35133 28.5088C4.43876 32.417 7.81879 35.4813 11.9153 37.1792C16.0117 38.8772 20.571 39.1038 24.816 37.8203C29.0611 36.5369 32.729 33.8228 35.1946 30.1409C37.6602 26.459 38.7709 22.037 38.3373 17.6287C37.9037 13.2205 35.9527 9.09889 32.8168 5.96645C29.2297 2.38006 24.3631 0.363397 19.2874 0.359975V0.358567Z" fill="#A9ABB6"/>
</svg>
