<svg width="39" height="39" viewBox="0 0 39 39" fill="none" xmlns="http://www.w3.org/2000/svg">
<path fill-rule="evenodd" clip-rule="evenodd" d="M28.4732 27.0369C28.5521 27.2313 28.5784 27.443 28.5493 27.6507C28.5203 27.8584 28.4371 28.0548 28.3079 28.2202C28.1789 28.3857 28.0086 28.5143 27.814 28.5932C27.6194 28.6721 27.4074 28.6985 27.1994 28.6696C26.9915 28.6402 26.795 28.557 26.6294 28.4281C26.4638 28.2992 26.3349 28.1292 26.2555 27.9351C25.8817 27.017 25.3295 26.1819 24.6308 25.4781C23.9321 24.7742 23.1007 24.2156 22.1847 23.8343C21.2686 23.4529 20.2859 23.2565 19.2933 23.2565C18.3008 23.2565 17.3181 23.4529 16.402 23.8343C15.486 24.2157 14.6547 24.7744 13.956 25.4782C13.2573 26.1821 12.7051 27.0171 12.3311 27.9351C12.2736 28.0826 12.1872 28.2172 12.0771 28.3311C11.967 28.4449 11.8353 28.5358 11.6896 28.5983C11.5441 28.6607 11.3876 28.6936 11.2293 28.6953C11.0709 28.697 10.9138 28.6674 10.767 28.6082C10.6201 28.5488 10.4866 28.4608 10.3742 28.3494C10.2617 28.238 10.1726 28.1053 10.112 27.9591C10.0508 27.8131 10.0193 27.6563 10.0193 27.498C10.0193 27.3397 10.0508 27.183 10.112 27.0369C10.6049 25.8257 11.3331 24.724 12.2547 23.7955C13.1763 22.867 14.273 22.1301 15.4814 21.6273C16.6894 21.1243 17.9853 20.8653 19.294 20.8653C20.6028 20.8653 21.8987 21.1243 23.1067 21.6273C24.3151 22.1302 25.4117 22.8671 26.3333 23.7956C27.2549 24.7241 27.9832 25.8258 28.4761 27.0369H28.4732ZM28.7933 14.0974C28.7932 14.8402 28.498 15.5525 27.9723 16.078C27.4462 16.6029 26.7329 16.8978 25.9892 16.8979C25.6209 16.8979 25.2561 16.8255 24.9158 16.6847C24.5756 16.5439 24.2664 16.3375 24.006 16.0773C23.7456 15.8172 23.5391 15.5084 23.3983 15.1686C23.2574 14.8287 23.185 14.4645 23.1851 14.0967C23.1851 13.729 23.2576 13.3649 23.3986 13.0251C23.5396 12.6854 23.7463 12.3768 24.0068 12.1169C24.2671 11.8568 24.5763 11.6505 24.9166 11.5098C25.2569 11.3691 25.6216 11.2968 25.9899 11.297C26.7334 11.297 27.4465 11.5919 27.9723 12.1169C28.2328 12.3769 28.4394 12.6857 28.5803 13.0255C28.7211 13.3654 28.7935 13.7296 28.7933 14.0974ZM9.7934 14.0974C9.79315 13.7296 9.86554 13.3654 10.0064 13.0255C10.1473 12.6857 10.3539 12.3769 10.6144 12.1169C11.1404 11.5918 11.8537 11.2969 12.5975 11.297C12.9664 11.2965 13.3317 11.3686 13.6726 11.5093C14.0135 11.65 14.3233 11.8565 14.5842 12.1169C14.8447 12.3769 15.0514 12.6857 15.1923 13.0255C15.3333 13.3653 15.4059 13.7296 15.4058 14.0974C15.4059 14.4653 15.3333 14.8295 15.1923 15.1694C15.0514 15.5092 14.8447 15.8179 14.5842 16.078C14.0583 16.6029 13.3453 16.8979 12.6017 16.8979C11.858 16.898 11.1446 16.6031 10.6186 16.078C10.3581 15.8179 10.1514 15.5092 10.0104 15.1694C9.86944 14.8295 9.79689 14.4653 9.79693 14.0974H9.7934ZM19.2937 36.2072C22.6074 36.2067 25.8465 35.2245 28.6011 33.3849C31.356 31.5481 33.5034 28.9365 34.7717 25.8805C36.0399 22.8235 36.3719 19.4596 35.7255 16.2142C35.0798 12.9687 33.4846 9.98745 31.1417 7.64781C28.7997 5.30869 25.816 3.71542 22.5676 3.06936C19.318 2.42354 15.9496 2.75478 12.8886 4.02117C9.82738 5.28703 7.21104 7.43142 5.37071 10.1829C3.52891 12.9337 2.54544 16.1683 2.54472 19.4774C2.54941 23.9133 4.31548 28.1662 7.45559 31.3035C10.5956 34.44 14.8533 36.2043 19.2944 36.2093L19.2937 36.2072ZM19.2937 0.358551C14.2165 0.35896 9.34736 2.37334 5.75717 5.95867C2.16739 9.54427 0.150613 14.407 0.150391 19.4774C0.150426 24.5481 2.16721 29.4111 5.75717 32.9969C9.34736 36.5822 14.2165 38.5966 19.2937 38.597C24.3709 38.5966 29.24 36.5822 32.8302 32.9969C36.4203 29.4114 38.4373 24.5487 38.4377 19.4781C38.4321 14.409 36.4131 9.54922 32.8239 5.96502C29.2351 2.38063 24.3692 0.364339 19.2937 0.358551Z" fill="#A9ABB6"/>
</svg>
