<svg width="40" height="41" viewBox="0 0 40 41" fill="none" xmlns="http://www.w3.org/2000/svg">
<path d="M37.8233 13.6485C36.981 11.6216 35.2723 9.43324 33.9342 8.74145C34.8886 10.5898 35.5509 12.5748 35.8976 14.6259L35.9011 14.6584C33.7092 9.19364 29.9921 6.99023 26.9564 2.19226C26.8028 1.94966 26.6493 1.70656 26.4997 1.44995C26.4142 1.30339 26.3456 1.17134 26.2861 1.04979C26.1602 0.805964 26.0632 0.548283 25.997 0.281971C25.9971 0.269682 25.9926 0.25779 25.9845 0.248565C25.9764 0.239339 25.9652 0.233425 25.953 0.23195C25.941 0.228673 25.9284 0.228673 25.9165 0.23195C25.9139 0.23195 25.9099 0.236452 25.9069 0.237453C25.9039 0.238453 25.8974 0.242955 25.8929 0.244956L25.9004 0.23195C21.0309 3.08312 19.3788 8.36129 19.2267 11.0014C17.2821 11.1351 15.4228 11.8517 13.8915 13.0577C13.7317 12.9224 13.5648 12.7958 13.3913 12.6786C12.9496 11.1324 12.9307 9.49604 13.3368 7.94012C11.5485 8.80644 9.95953 10.0345 8.67036 11.5466H8.66136C7.89304 10.5727 7.94706 7.36138 7.99108 6.69061C7.76379 6.78196 7.54682 6.89715 7.34381 7.03425C6.66556 7.51833 6.03149 8.06151 5.44904 8.65742C4.78531 9.33036 4.17911 10.0577 3.63679 10.8318V10.8348V10.8313C2.3904 12.5983 1.50636 14.5947 1.03572 16.7052L1.00971 16.8333C0.973195 17.0039 0.841641 17.8582 0.819131 18.0438C0.819131 18.0583 0.81613 18.0718 0.814629 18.0863C0.644928 18.9683 0.539773 19.8616 0.5 20.7589L0.5 20.8589C0.50425 25.7131 2.32927 30.389 5.61436 33.9627C8.89946 37.5363 13.4056 39.7476 18.2422 40.1595C23.0789 40.5714 27.8941 39.154 31.7362 36.1874C35.5783 33.2208 38.1678 28.9208 38.9928 24.1373C39.0253 23.8872 39.0519 23.6396 39.0809 23.387C39.4802 20.0867 39.0479 16.739 37.8233 13.6485ZM15.4792 28.8237C15.5697 28.8672 15.6547 28.9143 15.7478 28.9558L15.7613 28.9643C15.6672 28.9193 15.5732 28.8724 15.4792 28.8237ZM35.9026 14.6629V14.6444L35.9061 14.6649L35.9026 14.6629Z" fill="url(#paint0_linear_3581_136606)"/>
<path d="M37.8233 13.6482C36.981 11.6214 35.2723 9.433 33.9342 8.74121C34.8886 10.5895 35.5509 12.5745 35.8976 14.6256V14.6441L35.9011 14.6646C37.3953 18.9406 37.1792 23.6287 35.2978 27.749C33.0759 32.5165 27.6977 37.403 19.2792 37.1654C10.183 36.9078 2.17219 30.158 0.674572 21.3174C0.40196 19.9233 0.674572 19.2165 0.811628 18.0836C0.624665 18.9636 0.520336 19.8592 0.5 20.7587L0.5 20.8587C0.50425 25.7128 2.32927 30.3888 5.61436 33.9624C8.89946 37.536 13.4056 39.7473 18.2422 40.1593C23.0789 40.5712 27.8941 39.1538 31.7362 36.1872C35.5783 33.2205 38.1678 28.9206 38.9928 24.137C39.0253 23.8869 39.0519 23.6393 39.0809 23.3867C39.4802 20.0865 39.0479 16.7388 37.8233 13.6482Z" fill="url(#paint1_radial_3581_136606)"/>
<path d="M37.8233 13.6482C36.981 11.6214 35.2723 9.433 33.9342 8.74121C34.8886 10.5895 35.5509 12.5745 35.8976 14.6256V14.6441L35.9011 14.6646C37.3953 18.9406 37.1792 23.6287 35.2978 27.749C33.0759 32.5165 27.6977 37.403 19.2792 37.1654C10.183 36.9078 2.17219 30.158 0.674572 21.3174C0.40196 19.9233 0.674572 19.2165 0.811628 18.0836C0.624665 18.9636 0.520336 19.8592 0.5 20.7587L0.5 20.8587C0.50425 25.7128 2.32927 30.3888 5.61436 33.9624C8.89946 37.536 13.4056 39.7473 18.2422 40.1593C23.0789 40.5712 27.8941 39.1538 31.7362 36.1872C35.5783 33.2205 38.1678 28.9206 38.9928 24.137C39.0253 23.8869 39.0519 23.6393 39.0809 23.3867C39.4802 20.0865 39.0479 16.7388 37.8233 13.6482Z" fill="url(#paint2_radial_3581_136606)"/>
<path d="M28.4023 15.9274C28.4444 15.9569 28.4834 15.9864 28.5229 16.0159C28.0359 15.1524 27.4297 14.3618 26.7221 13.6675C20.6967 7.64098 25.143 0.600585 25.8928 0.242938L25.9003 0.231934C21.0308 3.08311 19.3786 8.36128 19.2266 11.0014C19.4527 10.9859 19.6767 10.9668 19.9078 10.9668C21.6356 10.97 23.3318 11.4307 24.8238 12.302C26.3159 13.1733 27.5505 14.4241 28.4023 15.9274Z" fill="url(#paint3_radial_3581_136606)"/>
<path d="M19.9207 17.1303C19.8887 17.6125 18.185 19.2757 17.5893 19.2757C12.0765 19.2757 11.1816 22.6106 11.1816 22.6106C11.4257 25.4188 13.3825 27.7317 15.748 28.9552C15.8561 29.0112 15.9656 29.0618 16.0752 29.1113C16.2649 29.1953 16.4546 29.273 16.6444 29.3444C17.4562 29.6317 18.3065 29.7957 19.1669 29.8311C28.8294 30.2843 30.7012 18.2763 23.7283 14.7919C25.3733 14.5778 27.0391 14.9823 28.4027 15.9268C27.5509 14.4236 26.3162 13.1727 24.8242 12.3014C23.3322 11.4301 21.636 10.9695 19.9082 10.9663C19.6781 10.9663 19.453 10.9853 19.227 11.0008C17.2823 11.1345 15.4231 11.8511 13.8918 13.0572C14.1874 13.3073 14.521 13.6414 15.2238 14.3342C16.5393 15.6302 19.9132 16.9728 19.9207 17.1303Z" fill="url(#paint4_radial_3581_136606)"/>
<path d="M19.9207 17.1303C19.8887 17.6125 18.185 19.2757 17.5893 19.2757C12.0765 19.2757 11.1816 22.6106 11.1816 22.6106C11.4257 25.4188 13.3825 27.7317 15.748 28.9552C15.8561 29.0112 15.9656 29.0618 16.0752 29.1113C16.2649 29.1953 16.4546 29.273 16.6444 29.3444C17.4562 29.6317 18.3065 29.7957 19.1669 29.8311C28.8294 30.2843 30.7012 18.2763 23.7283 14.7919C25.3733 14.5778 27.0391 14.9823 28.4027 15.9268C27.5509 14.4236 26.3162 13.1727 24.8242 12.3014C23.3322 11.4301 21.636 10.9695 19.9082 10.9663C19.6781 10.9663 19.453 10.9853 19.227 11.0008C17.2823 11.1345 15.4231 11.8511 13.8918 13.0572C14.1874 13.3073 14.521 13.6414 15.2238 14.3342C16.5393 15.6302 19.9132 16.9728 19.9207 17.1303Z" fill="url(#paint5_radial_3581_136606)"/>
<path d="M12.9883 12.4133C13.1453 12.5133 13.2749 12.6003 13.3884 12.6789C12.9467 11.1327 12.9279 9.49635 13.3339 7.94043C11.5456 8.80675 9.95665 10.0348 8.66748 11.5469C8.76202 11.5444 11.5742 11.4939 12.9883 12.4133Z" fill="url(#paint6_radial_3581_136606)"/>
<path d="M0.677544 21.3178C2.17366 30.1585 10.186 36.9082 19.2822 37.1658C27.7007 37.4039 33.0789 32.5169 35.3008 27.7495C37.1821 23.6291 37.3983 18.9411 35.904 14.6651V14.6466C35.904 14.6321 35.901 14.6236 35.904 14.6281L35.9075 14.6606C36.5953 19.1509 34.3114 23.5012 30.7409 26.4429L30.7299 26.4679C23.773 32.1338 17.1153 29.8863 15.7677 28.969C15.6737 28.9239 15.5797 28.8771 15.4856 28.8284C11.4295 26.8896 9.75377 23.1941 10.1129 20.0248C9.15008 20.039 8.20378 19.7737 7.38868 19.261C6.57357 18.7482 5.92465 18.0101 5.52054 17.1361C6.58528 16.4838 7.79933 16.115 9.04699 16.065C10.2947 16.0149 11.5344 16.2851 12.648 16.85C14.9438 17.8922 17.5564 17.9949 19.927 17.1361C19.9195 16.9785 16.5456 15.6355 15.23 14.3399C14.5272 13.6472 14.1936 13.3135 13.898 13.0629C13.7382 12.9276 13.5712 12.801 13.3978 12.6838C13.2827 12.6052 13.1532 12.5202 12.9976 12.4182C11.5835 11.4988 8.77137 11.5493 8.67833 11.5518H8.66933C7.90101 10.5779 7.95504 7.36658 7.99905 6.6958C7.77176 6.78715 7.55479 6.90234 7.35179 7.03944C6.67353 7.52352 6.03946 8.0667 5.45701 8.66261C4.79091 9.33366 4.1822 10.0593 3.63726 10.832V10.835V10.8315C2.39087 12.5985 1.50683 14.5949 1.03619 16.7054C1.02669 16.7449 0.337904 19.7562 0.677544 21.3178Z" fill="url(#paint7_radial_3581_136606)"/>
<path d="M26.7236 13.6675C27.4314 14.3626 28.0376 15.1541 28.5244 16.0184C28.6309 16.099 28.7304 16.179 28.815 16.2565C33.2103 20.3082 30.9073 26.0356 30.7358 26.4432C34.3062 23.5015 36.5882 19.1512 35.9024 14.6609C33.7095 9.19364 29.9925 6.99023 26.9567 2.19226C26.8031 1.94966 26.6496 1.70656 26.5 1.44995C26.4145 1.30339 26.346 1.17134 26.2864 1.04979C26.1605 0.805963 26.0635 0.548283 25.9973 0.281971C25.9974 0.269682 25.993 0.25779 25.9848 0.248565C25.9767 0.239339 25.9655 0.233425 25.9533 0.23195C25.9413 0.228673 25.9287 0.228673 25.9168 0.23195C25.9143 0.23195 25.9103 0.236452 25.9073 0.237453C25.9043 0.238453 25.8978 0.242955 25.8933 0.244956C25.1435 0.600602 20.6971 7.641 26.7236 13.6675Z" fill="url(#paint8_radial_3581_136606)"/>
<path d="M28.8115 16.2534C28.7269 16.1759 28.6274 16.0958 28.5209 16.0153C28.4813 15.9858 28.4423 15.9563 28.4003 15.9268C27.0367 14.9822 25.3708 14.5778 23.7259 14.7918C30.6988 18.2782 28.828 30.2842 19.1645 29.831C18.3041 29.7957 17.4538 29.6316 16.642 29.3443C16.4522 29.2733 16.2625 29.1956 16.0727 29.1112C15.9632 29.0612 15.8536 29.0112 15.7456 28.9551L15.7591 28.9636C17.1067 29.8835 23.7624 32.1309 30.7213 26.4626L30.7323 26.4376C30.9058 26.0324 33.2088 20.3036 28.8115 16.2534Z" fill="url(#paint9_radial_3581_136606)"/>
<path d="M11.1815 22.611C11.1815 22.611 12.0764 19.2761 17.5891 19.2761C18.1849 19.2761 19.8901 17.6129 19.9206 17.1307C17.55 17.9896 14.9375 17.8869 12.6416 16.8446C11.528 16.2798 10.2883 16.0095 9.04062 16.0596C7.79296 16.1097 6.5789 16.4784 5.51416 17.1307C5.91827 18.0048 6.5672 18.7429 7.3823 19.2556C8.1974 19.7683 9.14371 20.0336 10.1065 20.0194C9.7474 23.1892 11.4231 26.8848 15.4793 28.8231C15.5698 28.8666 15.6548 28.9136 15.7479 28.9551C13.3804 27.7321 11.4256 25.4191 11.1815 22.611Z" fill="url(#paint10_radial_3581_136606)"/>
<path d="M37.8233 13.6485C36.981 11.6216 35.2723 9.43324 33.9342 8.74145C34.8886 10.5898 35.5509 12.5748 35.8976 14.6259L35.9011 14.6584C33.7092 9.19364 29.9921 6.99023 26.9564 2.19226C26.8028 1.94966 26.6493 1.70656 26.4997 1.44995C26.4142 1.30339 26.3456 1.17134 26.2861 1.04979C26.1602 0.805964 26.0632 0.548283 25.997 0.281971C25.9971 0.269682 25.9926 0.25779 25.9845 0.248565C25.9764 0.239339 25.9652 0.233425 25.953 0.23195C25.941 0.228673 25.9284 0.228673 25.9165 0.23195C25.9139 0.23195 25.9099 0.236452 25.9069 0.237453C25.9039 0.238453 25.8974 0.242955 25.8929 0.244956L25.9004 0.23195C21.0309 3.08312 19.3788 8.36129 19.2267 11.0014C19.4528 10.9859 19.6769 10.9669 19.908 10.9669C21.6358 10.97 23.3319 11.4307 24.824 12.302C26.316 13.1733 27.5507 14.4242 28.4025 15.9274C27.0388 14.9829 25.373 14.5784 23.7281 14.7924C30.7009 18.2789 28.8302 30.2848 19.1667 29.8316C18.3062 29.7963 17.456 29.6322 16.6441 29.3449C16.4544 29.2739 16.2646 29.1962 16.0749 29.1118C15.9654 29.0618 15.8558 29.0118 15.7478 28.9558L15.7613 28.9643C15.6672 28.9193 15.5732 28.8724 15.4792 28.8237C15.5697 28.8672 15.6547 28.9143 15.7478 28.9558C13.3803 27.7323 11.4255 25.4193 11.1814 22.6112C11.1814 22.6112 12.0763 19.2763 17.589 19.2763C18.1848 19.2763 19.89 17.6131 19.9205 17.1309C19.913 16.9733 16.5391 15.6303 15.2236 14.3348C14.5208 13.642 14.1871 13.3083 13.8915 13.0577C13.7317 12.9224 13.5648 12.7958 13.3913 12.6786C12.9496 11.1324 12.9307 9.49604 13.3368 7.94012C11.5485 8.80644 9.95953 10.0345 8.67036 11.5466H8.66136C7.89304 10.5727 7.94706 7.36138 7.99108 6.69061C7.76379 6.78196 7.54682 6.89715 7.34381 7.03425C6.66556 7.51833 6.03149 8.06151 5.44904 8.65742C4.78531 9.33036 4.17911 10.0577 3.63679 10.8318V10.8348V10.8313C2.3904 12.5983 1.50636 14.5947 1.03572 16.7052L1.00971 16.8333C0.973195 17.0039 0.809627 17.8702 0.786118 18.0563C0.786118 18.0703 0.786118 18.0418 0.786118 18.0563C0.636511 18.9506 0.540965 19.8531 0.5 20.7589L0.5 20.8589C0.50425 25.7131 2.32927 30.389 5.61436 33.9627C8.89946 37.5363 13.4056 39.7476 18.2422 40.1595C23.0789 40.5714 27.8941 39.154 31.7362 36.1874C35.5783 33.2208 38.1678 28.9208 38.9928 24.1373C39.0253 23.8872 39.0519 23.6396 39.0809 23.387C39.4802 20.0867 39.0479 16.739 37.8233 13.6485ZM35.9001 14.6444L35.9036 14.6649L35.9001 14.6444Z" fill="url(#paint11_linear_3581_136606)"/>
<defs>
<linearGradient id="paint0_linear_3581_136606" x1="35.2573" y1="6.4265" x2="3.07455" y2="37.4768" gradientUnits="userSpaceOnUse">
<stop offset="0.048" stop-color="#FFF44F"/>
<stop offset="0.111" stop-color="#FFE847"/>
<stop offset="0.225" stop-color="#FFC830"/>
<stop offset="0.368" stop-color="#FF980E"/>
<stop offset="0.401" stop-color="#FF8B16"/>
<stop offset="0.462" stop-color="#FF672A"/>
<stop offset="0.534" stop-color="#FF3647"/>
<stop offset="0.705" stop-color="#E31587"/>
</linearGradient>
<radialGradient id="paint1_radial_3581_136606" cx="0" cy="0" r="1" gradientUnits="userSpaceOnUse" gradientTransform="translate(33.7702 4.66843) scale(40.4151 40.4151)">
<stop offset="0.129" stop-color="#FFBD4F"/>
<stop offset="0.186" stop-color="#FFAC31"/>
<stop offset="0.247" stop-color="#FF9D17"/>
<stop offset="0.283" stop-color="#FF980E"/>
<stop offset="0.403" stop-color="#FF563B"/>
<stop offset="0.467" stop-color="#FF3750"/>
<stop offset="0.71" stop-color="#F5156C"/>
<stop offset="0.782" stop-color="#EB0878"/>
<stop offset="0.86" stop-color="#E50080"/>
</radialGradient>
<radialGradient id="paint2_radial_3581_136606" cx="0" cy="0" r="1" gradientUnits="userSpaceOnUse" gradientTransform="translate(19.0022 21.1913) scale(40.4151 40.4151)">
<stop offset="0.3" stop-color="#960E18"/>
<stop offset="0.351" stop-color="#B11927" stop-opacity="0.74"/>
<stop offset="0.435" stop-color="#DB293D" stop-opacity="0.343"/>
<stop offset="0.497" stop-color="#F5334B" stop-opacity="0.094"/>
<stop offset="0.53" stop-color="#FF3750" stop-opacity="0"/>
</radialGradient>
<radialGradient id="paint3_radial_3581_136606" cx="0" cy="0" r="1" gradientUnits="userSpaceOnUse" gradientTransform="translate(23.8744 -4.50306) scale(29.279 29.279)">
<stop offset="0.132" stop-color="#FFF44F"/>
<stop offset="0.252" stop-color="#FFDC3E"/>
<stop offset="0.506" stop-color="#FF9D12"/>
<stop offset="0.526" stop-color="#FF980E"/>
</radialGradient>
<radialGradient id="paint4_radial_3581_136606" cx="0" cy="0" r="1" gradientUnits="userSpaceOnUse" gradientTransform="translate(14.5321 31.7476) scale(19.2434 19.2434)">
<stop offset="0.353" stop-color="#3A8EE6"/>
<stop offset="0.472" stop-color="#5C79F0"/>
<stop offset="0.669" stop-color="#9059FF"/>
<stop offset="1" stop-color="#C139E6"/>
</radialGradient>
<radialGradient id="paint5_radial_3581_136606" cx="0" cy="0" r="1" gradientUnits="userSpaceOnUse" gradientTransform="translate(21.2108 17.8788) rotate(-13.5916) scale(10.2027 11.9449)">
<stop offset="0.206" stop-color="#9059FF" stop-opacity="0"/>
<stop offset="0.278" stop-color="#8C4FF3" stop-opacity="0.064"/>
<stop offset="0.747" stop-color="#7716A8" stop-opacity="0.45"/>
<stop offset="0.975" stop-color="#6E008B" stop-opacity="0.6"/>
</radialGradient>
<radialGradient id="paint6_radial_3581_136606" cx="0" cy="0" r="1" gradientUnits="userSpaceOnUse" gradientTransform="translate(18.4925 3.01545) scale(13.8437 13.8437)">
<stop stop-color="#FFE226"/>
<stop offset="0.121" stop-color="#FFDB27"/>
<stop offset="0.295" stop-color="#FFC82A"/>
<stop offset="0.502" stop-color="#FFA930"/>
<stop offset="0.732" stop-color="#FF7E37"/>
<stop offset="0.792" stop-color="#FF7139"/>
</radialGradient>
<radialGradient id="paint7_radial_3581_136606" cx="0" cy="0" r="1" gradientUnits="userSpaceOnUse" gradientTransform="translate(29.3738 -5.76557) scale(59.0648 59.0648)">
<stop offset="0.113" stop-color="#FFF44F"/>
<stop offset="0.456" stop-color="#FF980E"/>
<stop offset="0.622" stop-color="#FF5634"/>
<stop offset="0.716" stop-color="#FF3647"/>
<stop offset="0.904" stop-color="#E31587"/>
</radialGradient>
<radialGradient id="paint8_radial_3581_136606" cx="0" cy="0" r="1" gradientUnits="userSpaceOnUse" gradientTransform="translate(24.3956 -2.48145) rotate(83.976) scale(43.29 28.4108)">
<stop stop-color="#FFF44F"/>
<stop offset="0.06" stop-color="#FFE847"/>
<stop offset="0.168" stop-color="#FFC830"/>
<stop offset="0.304" stop-color="#FF980E"/>
<stop offset="0.356" stop-color="#FF8B16"/>
<stop offset="0.455" stop-color="#FF672A"/>
<stop offset="0.57" stop-color="#FF3647"/>
<stop offset="0.737" stop-color="#E31587"/>
</radialGradient>
<radialGradient id="paint9_radial_3581_136606" cx="0" cy="0" r="1" gradientUnits="userSpaceOnUse" gradientTransform="translate(18.1657 8.14212) scale(36.8752)">
<stop offset="0.137" stop-color="#FFF44F"/>
<stop offset="0.48" stop-color="#FF980E"/>
<stop offset="0.592" stop-color="#FF5634"/>
<stop offset="0.655" stop-color="#FF3647"/>
<stop offset="0.904" stop-color="#E31587"/>
</radialGradient>
<radialGradient id="paint10_radial_3581_136606" cx="0" cy="0" r="1" gradientUnits="userSpaceOnUse" gradientTransform="translate(27.8999 10.3007) scale(40.3596 40.3596)">
<stop offset="0.094" stop-color="#FFF44F"/>
<stop offset="0.231" stop-color="#FFE141"/>
<stop offset="0.509" stop-color="#FFAF1E"/>
<stop offset="0.626" stop-color="#FF980E"/>
</radialGradient>
<linearGradient id="paint11_linear_3581_136606" x1="34.8706" y1="6.26043" x2="7.48637" y2="33.6442" gradientUnits="userSpaceOnUse">
<stop offset="0.167" stop-color="#FFF44F" stop-opacity="0.8"/>
<stop offset="0.266" stop-color="#FFF44F" stop-opacity="0.634"/>
<stop offset="0.489" stop-color="#FFF44F" stop-opacity="0.217"/>
<stop offset="0.6" stop-color="#FFF44F" stop-opacity="0"/>
</linearGradient>
</defs>
</svg>
