<svg width="205" height="60" viewBox="0 0 205 60" fill="none" xmlns="http://www.w3.org/2000/svg">
<path d="M196.793 59.5H7.95068C3.79803 59.5 0.396973 56.1794 0.396973 52.125V7.875C0.396973 3.82059 3.79803 0.500001 7.95068 0.500001H196.793C200.946 0.500001 204.347 3.82059 204.347 7.875V52.125C204.347 56.1794 200.946 59.5 196.793 59.5Z" fill="black"/>
<path d="M196.793 1.68184C200.291 1.68184 203.137 4.46037 203.137 7.875V52.125C203.137 55.5396 200.291 58.3182 196.793 58.3182H7.95068C4.45331 58.3182 1.60745 55.5396 1.60745 52.125V7.875C1.60745 4.46037 4.45331 1.68184 7.95068 1.68184H196.793ZM196.793 0.500001H7.95068C3.79803 0.500001 0.396973 3.82059 0.396973 7.875V52.125C0.396973 56.1794 3.79803 59.5 7.95068 59.5H196.793C200.946 59.5 204.347 56.1794 204.347 52.125V7.875C204.347 3.82059 200.946 0.500001 196.793 0.500001Z" fill="#A6A6A6"/>
<path d="M72.0325 15.6095C72.0325 16.8411 71.6548 17.8275 70.9108 18.5632C70.0553 19.4353 68.9412 19.8741 67.5758 19.8741C66.2709 19.8741 65.1568 19.4279 64.2428 18.5484C63.3269 17.6561 62.8699 16.5609 62.8699 15.25C62.8699 13.9391 63.3269 12.8439 64.2428 11.9589C65.1568 11.072 66.2709 10.6259 67.5758 10.6259C68.2255 10.6259 68.8449 10.7568 69.4359 11.0001C70.0251 11.2454 70.5048 11.5772 70.8522 11.9865L70.0629 12.7646C69.4567 12.0658 68.6315 11.721 67.5758 11.721C66.6241 11.721 65.7988 12.0455 65.0982 12.7001C64.4052 13.3564 64.0577 14.2064 64.0577 15.25C64.0577 16.2935 64.4052 17.1509 65.0982 17.8073C65.7988 18.4544 66.6241 18.7863 67.5758 18.7863C68.5861 18.7863 69.4359 18.4544 70.1063 17.7999C70.5482 17.3666 70.7994 16.7692 70.8655 16.0059H67.5758V14.9402H71.9645C72.0174 15.1707 72.0325 15.3938 72.0325 15.6095Z" fill="white" stroke="white" stroke-width="0.16" stroke-miterlimit="10"/>
<path d="M78.9951 11.9146H74.8726V14.7171H78.589V15.7828H74.8726V18.5853H78.9951V19.6712H73.7056V10.8286H78.9951V11.9146Z" fill="white" stroke="white" stroke-width="0.16" stroke-miterlimit="10"/>
<path d="M83.9088 19.6712H82.7417V11.9146H80.2131V10.8286H86.4393V11.9146H83.9088V19.6712Z" fill="white" stroke="white" stroke-width="0.16" stroke-miterlimit="10"/>
<path d="M90.9451 19.6712V10.8286H92.1102V19.6712H90.9451Z" fill="white" stroke="white" stroke-width="0.16" stroke-miterlimit="10"/>
<path d="M97.275 19.6712H96.1174V11.9146H93.5793V10.8286H99.813V11.9146H97.275V19.6712Z" fill="white" stroke="white" stroke-width="0.16" stroke-miterlimit="10"/>
<path d="M111.601 18.5337C110.708 19.4279 109.601 19.8741 108.281 19.8741C106.953 19.8741 105.847 19.4279 104.954 18.5337C104.062 17.6413 103.618 16.5461 103.618 15.25C103.618 13.9538 104.062 12.8586 104.954 11.9663C105.847 11.072 106.953 10.6259 108.281 10.6259C109.593 10.6259 110.7 11.072 111.593 11.9736C112.492 12.8734 112.936 13.9612 112.936 15.25C112.936 16.5461 112.492 17.6413 111.601 18.5337ZM105.817 17.7925C106.489 18.4544 107.307 18.7863 108.281 18.7863C109.248 18.7863 110.073 18.4544 110.738 17.7925C111.408 17.1306 111.748 16.2806 111.748 15.25C111.748 14.2193 111.408 13.3694 110.738 12.7074C110.073 12.0455 109.248 11.7137 108.281 11.7137C107.307 11.7137 106.489 12.0455 105.817 12.7074C105.146 13.3694 104.806 14.2193 104.806 15.25C104.806 16.2806 105.146 17.1306 105.817 17.7925Z" fill="white" stroke="white" stroke-width="0.16" stroke-miterlimit="10"/>
<path d="M114.573 19.6712V10.8286H115.989L120.393 17.7058H120.444L120.393 16.0059V10.8286H121.558V19.6712H120.342L115.731 12.4548H115.68L115.731 14.1621V19.6712H114.573Z" fill="white" stroke="white" stroke-width="0.16" stroke-miterlimit="10"/>
<path d="M103.331 32.5849C99.7829 32.5849 96.8841 35.2215 96.8841 38.8592C96.8841 42.4674 99.7829 45.1316 103.331 45.1316C106.887 45.1316 109.786 42.4674 109.786 38.8592C109.786 35.2215 106.887 32.5849 103.331 32.5849ZM103.331 42.661C101.384 42.661 99.7092 41.092 99.7092 38.8592C99.7092 36.5969 101.384 35.0555 103.331 35.0555C105.278 35.0555 106.961 36.5969 106.961 38.8592C106.961 41.092 105.278 42.661 103.331 42.661ZM89.2643 32.5849C85.7084 32.5849 82.8173 35.2215 82.8173 38.8592C82.8173 42.4674 85.7084 45.1316 89.2643 45.1316C92.8183 45.1316 95.7114 42.4674 95.7114 38.8592C95.7114 35.2215 92.8183 32.5849 89.2643 32.5849ZM89.2643 42.661C87.3155 42.661 85.6348 41.092 85.6348 38.8592C85.6348 36.5969 87.3155 35.0555 89.2643 35.0555C91.2113 35.0555 92.8863 36.5969 92.8863 38.8592C92.8863 41.092 91.2113 42.661 89.2643 42.661ZM72.5253 34.5079V37.174H79.0461C78.8553 38.6638 78.3455 39.7589 77.5636 40.5223C76.6119 41.4441 75.1295 42.4674 72.5253 42.4674C68.5124 42.4674 65.3701 39.3054 65.3701 35.3874C65.3701 31.4694 68.5124 28.3074 72.5253 28.3074C74.6951 28.3074 76.2739 29.1353 77.439 30.2083L79.3633 28.3295C77.7336 26.8103 75.5657 25.6432 72.5253 25.6432C67.0225 25.6432 62.3977 30.0147 62.3977 35.3874C62.3977 40.7601 67.0225 45.1316 72.5253 45.1316C75.4996 45.1316 77.7336 44.1803 79.4898 42.3955C81.2895 40.6384 81.8504 38.1678 81.8504 36.1728C81.8504 35.5533 81.7975 34.9836 81.7031 34.5079H72.5253ZM140.973 36.5748C140.443 35.1717 138.805 32.5849 135.47 32.5849C132.166 32.5849 129.414 35.1274 129.414 38.8592C129.414 42.3734 132.137 45.1316 135.788 45.1316C138.739 45.1316 140.443 43.3745 141.143 42.3513L138.953 40.926C138.222 41.9696 137.227 42.661 135.788 42.661C134.358 42.661 133.333 42.0212 132.675 40.7601L141.27 37.2883L140.973 36.5748ZM132.211 38.6638C132.137 36.2448 134.135 35.0058 135.567 35.0058C136.688 35.0058 137.64 35.5533 137.957 36.3369L132.211 38.6638ZM125.226 44.75H128.051V26.3125H125.226V44.75ZM120.599 33.9825H120.505C119.87 33.2487 118.66 32.5849 117.126 32.5849C113.908 32.5849 110.966 35.3432 110.966 38.8795C110.966 42.3955 113.908 45.1316 117.126 45.1316C118.66 45.1316 119.87 44.4623 120.505 43.7064H120.599V44.6062C120.599 47.0049 119.287 48.2937 117.17 48.2937C115.444 48.2937 114.373 47.0768 113.931 46.0535L111.474 47.0547C112.182 48.7177 114.057 50.7643 117.17 50.7643C120.482 50.7643 123.277 48.8615 123.277 44.2319V32.9666H120.599V33.9825ZM117.368 42.661C115.421 42.661 113.791 41.0698 113.791 38.8795C113.791 36.6688 115.421 35.0555 117.368 35.0555C119.287 35.0555 120.799 36.6688 120.799 38.8795C120.799 41.0698 119.287 42.661 117.368 42.661ZM154.2 26.3125H147.443V44.75H150.26V37.764H154.2C157.329 37.764 160.398 35.5533 160.398 32.0373C160.398 28.5231 157.321 26.3125 154.2 26.3125ZM154.273 35.1993H150.26V28.8771H154.273C156.377 28.8771 157.578 30.5826 157.578 32.0373C157.578 33.4644 156.377 35.1993 154.273 35.1993ZM171.69 32.5499C169.655 32.5499 167.538 33.4275 166.667 35.3727L169.167 36.3959C169.706 35.3727 170.695 35.0408 171.741 35.0408C173.203 35.0408 174.685 35.8981 174.708 37.4118V37.6054C174.198 37.3178 173.107 36.8919 171.764 36.8919C169.071 36.8919 166.327 38.3393 166.327 41.0403C166.327 43.511 168.533 45.1021 171.012 45.1021C172.908 45.1021 173.955 44.2669 174.612 43.2953H174.708V44.7205H177.429V37.6478C177.429 34.3789 174.929 32.5499 171.69 32.5499ZM171.35 42.6536C170.429 42.6536 169.145 42.2074 169.145 41.092C169.145 39.6649 170.746 39.1173 172.132 39.1173C173.373 39.1173 173.955 39.3847 174.708 39.7368C174.487 41.4441 172.982 42.6536 171.35 42.6536ZM187.344 32.9537L184.105 40.9463H184.009L180.66 32.9537H177.622L182.653 44.1231L179.782 50.3384H182.726L190.478 32.9537H187.344ZM161.946 44.75H164.771V26.3125H161.946V44.75Z" fill="white"/>
<path d="M16.1615 11.6197C15.7178 12.0732 15.4609 12.7794 15.4609 13.6939V46.3135C15.4609 47.228 15.7178 47.9342 16.1615 48.3877L16.2711 48.4873L34.9929 30.2157V29.7843L16.2711 11.5127L16.1615 11.6197Z" fill="url(#paint0_linear_433_21348)"/>
<path d="M41.2266 36.3093L34.9929 30.2157V29.7843L41.2342 23.6907L41.3739 23.77L48.7652 27.876C50.8746 29.0413 50.8746 30.9588 48.7652 32.1314L41.3739 36.23L41.2266 36.3093Z" fill="url(#paint1_linear_433_21348)"/>
<path d="M41.374 36.23L34.993 30L16.1616 48.3877C16.8622 49.1068 18.0047 49.1934 19.304 48.4744L41.374 36.23Z" fill="url(#paint2_linear_433_21348)"/>
<path d="M41.374 23.77L19.304 11.5256C18.0047 10.8139 16.8622 10.9006 16.1616 11.6197L34.993 30L41.374 23.77Z" fill="url(#paint3_linear_433_21348)"/>
<defs>
<linearGradient id="paint0_linear_433_21348" x1="33.3307" y1="46.6532" x2="8.5837" y2="21.3066" gradientUnits="userSpaceOnUse">
<stop stop-color="#00A0FF"/>
<stop offset="0.0066" stop-color="#00A1FF"/>
<stop offset="0.2601" stop-color="#00BEFF"/>
<stop offset="0.5122" stop-color="#00D2FF"/>
<stop offset="0.7604" stop-color="#00DFFF"/>
<stop offset="1" stop-color="#00E3FF"/>
</linearGradient>
<linearGradient id="paint1_linear_433_21348" x1="51.512" y1="29.9979" x2="14.9567" y2="29.9979" gradientUnits="userSpaceOnUse">
<stop stop-color="#FFE000"/>
<stop offset="0.4087" stop-color="#FFBD00"/>
<stop offset="0.7754" stop-color="#FFA500"/>
<stop offset="1" stop-color="#FF9C00"/>
</linearGradient>
<linearGradient id="paint2_linear_433_21348" x1="37.9042" y1="26.6132" x2="4.34533" y2="-7.7588" gradientUnits="userSpaceOnUse">
<stop stop-color="#FF3A44"/>
<stop offset="1" stop-color="#C31162"/>
</linearGradient>
<linearGradient id="paint3_linear_433_21348" x1="11.4214" y1="59.2401" x2="26.4069" y2="43.8916" gradientUnits="userSpaceOnUse">
<stop stop-color="#32A071"/>
<stop offset="0.0685" stop-color="#2DA771"/>
<stop offset="0.4762" stop-color="#15CF74"/>
<stop offset="0.8009" stop-color="#06E775"/>
<stop offset="1" stop-color="#00F076"/>
</linearGradient>
</defs>
</svg>
