<svg width="31" height="30" viewBox="0 0 31 30" fill="none" xmlns="http://www.w3.org/2000/svg">
<path d="M7.78467 23.4438H23.8969C25.9404 23.4438 27.0045 22.3892 27.0045 20.374V8.91364C27.0045 6.89844 25.9404 5.84375 23.8969 5.84375H7.78467C5.75063 5.84375 4.68652 6.88902 4.68652 8.91364V20.374C4.68652 22.3892 5.75063 23.4438 7.78467 23.4438ZM7.90709 21.5699C7.04074 21.5699 6.56048 21.1179 6.56048 20.2044V9.08315C6.56048 8.16971 7.04074 7.7177 7.90709 7.7177H23.7745C24.6408 7.7177 25.1211 8.16971 25.1211 9.08315V14.1871H22.8893C22.4938 14.1871 22.2772 14.3754 22.1548 14.7238L21.5615 16.3812L19.5463 10.2603C19.358 9.70466 18.5387 9.70466 18.2939 10.2885L16.693 14.1871H14.5931C14.1975 14.1871 13.981 14.3754 13.8585 14.7238L13.2653 16.3812L11.2501 10.2603C11.0712 9.70466 10.2425 9.70466 9.99763 10.2885L8.40618 14.1871H6.56989V15.5054H8.82994C9.22545 15.5054 9.4232 15.3171 9.56445 14.9687L10.6191 12.4167L12.6438 18.9143C12.8133 19.4699 13.7173 19.4605 13.9056 18.8861L14.9791 15.5054H17.0791C17.4746 15.5054 17.6724 15.3171 17.8136 14.9687L18.9154 12.4073L20.94 18.9143C21.1095 19.4699 22.0135 19.4605 22.1925 18.8861L23.266 15.5054H25.1211V20.2044C25.1211 21.1179 24.6408 21.5699 23.7745 21.5699H7.90709Z"/>
</svg>
