<svg width="63" height="76" viewBox="0 0 63 76" fill="none" xmlns="http://www.w3.org/2000/svg">
<path d="M25.7116 64.0128L4.19775 29.1084H59.0827L37.5689 64.0128" stroke="#EDC872" stroke-miterlimit="10"/>
<path d="M27.9482 64.0128L11.4899 29.1084" stroke="#EDC872" stroke-miterlimit="10"/>
<path d="M30.5526 64.0128L19.2314 29.1084" stroke="#EDC872" stroke-miterlimit="10"/>
<path d="M35.3322 64.0128L51.7957 29.1084" stroke="#EDC872" stroke-miterlimit="10"/>
<path d="M32.7279 64.0128L44.0491 29.1084" stroke="#EDC872" stroke-miterlimit="10"/>
<path d="M24.3175 64.0999H38.2225V72.8683C38.2225 73.5483 37.9535 74.2004 37.4747 74.6812C36.9959 75.1621 36.3464 75.4322 35.6693 75.4322H26.8503C26.1731 75.4322 25.5237 75.1621 25.0449 74.6812C24.566 74.2004 24.297 73.5483 24.297 72.8683V64.0999H24.3175Z" fill="#EDC872"/>
<path d="M38.6413 63.1616H23.7915C23.5151 63.1616 23.291 63.3865 23.291 63.6641V65.4895C23.291 65.7671 23.5151 65.9921 23.7915 65.9921H38.6413C38.9177 65.9921 39.1417 65.7671 39.1417 65.4895V63.6641C39.1417 63.3865 38.9177 63.1616 38.6413 63.1616Z" fill="#D29404"/>
<path d="M24.3175 67.9508H38.2225" stroke="#D29404" stroke-miterlimit="10"/>
<path d="M24.3175 70.2993H38.2225" stroke="#D29404" stroke-miterlimit="10"/>
<path d="M24.3175 72.653H38.2225" stroke="#D29404" stroke-miterlimit="10"/>
<path d="M6.41908 34.2054H56.7745C61.4725 28.4008 63.2088 22.5039 62.9279 17.3865H0.0461426C0.132954 22.6475 2.03768 28.5546 6.41908 34.2054Z" fill="#FF8786"/>
<path d="M31.8853 14.4329C17.1122 -9.07252 -0.224487 1.00856 0.0461591 17.3865H62.9279C62.0905 2.36228 43.8397 -5.94975 31.8853 14.4329Z" fill="#E46863"/>
<path d="M6.41907 34.2054C11.3469 40.5586 19.405 46.5939 31.5432 51.0294C43.8397 46.1683 51.9029 40.2356 56.7745 34.2054H6.41907Z" fill="#FF9F9E"/>
</svg>
