<svg width="31" height="30" viewBox="0 0 31 30" fill="none" xmlns="http://www.w3.org/2000/svg">
<path d="M20.1745 4.97266C18.2629 4.97266 16.9094 5.71382 15.9991 6.52681C15.0898 5.71382 13.7362 4.97266 11.8246 4.97266C7.74212 4.97266 5 8.72226 5 12.2239C5 14.3545 6.58132 16.9276 9.7019 19.8703C11.3543 21.4075 13.1157 22.8231 14.9724 24.1061C15.2751 24.3127 15.6331 24.4232 15.9996 24.4232C16.3661 24.4232 16.724 24.3127 17.0268 24.1061C18.8834 22.823 20.6448 21.4074 22.2972 19.8703C25.4169 16.9276 26.9991 14.351 26.9991 12.2239C26.9991 8.72226 24.257 4.97266 20.1745 4.97266ZM21.0944 18.5956C19.5088 20.0696 17.8191 21.4275 16.0385 22.6589C16.0274 22.6682 16.0133 22.6733 15.9987 22.6733C15.9841 22.6733 15.97 22.6682 15.9588 22.6589C14.1782 21.4276 12.4886 20.0696 10.903 18.5956C8.18716 16.0331 6.75127 13.8307 6.75127 12.2239C6.75127 9.56855 8.78903 6.72481 11.8237 6.72481C13.2518 6.72481 14.4301 7.2706 15.3281 8.34642C15.4102 8.44509 15.5131 8.52448 15.6294 8.57898C15.7456 8.63348 15.8725 8.66176 16.0009 8.66181C16.1294 8.66189 16.2564 8.63367 16.3729 8.57917C16.4893 8.52466 16.5923 8.4452 16.6746 8.34642C17.5699 7.2706 18.7482 6.72481 20.1789 6.72481C23.2127 6.72481 25.2514 9.56855 25.2514 12.2239C25.247 13.8342 23.8102 16.0331 21.0944 18.5956ZM17.5025 13.3751C17.5025 13.5593 17.5757 13.7361 17.7059 13.8663C17.8362 13.9966 18.0129 14.0698 18.1972 14.0698C18.3814 14.0698 18.5582 13.9966 18.6884 13.8663C18.8187 13.7361 18.8919 13.5593 18.8919 13.3751C18.8919 12.2931 17.9799 11.3601 16.6965 11.1069V10.6216C16.6965 10.4373 16.6233 10.2606 16.493 10.1303C16.3627 10.0001 16.186 9.92686 16.0018 9.92686C15.8175 9.92686 15.6408 10.0001 15.5105 10.1303C15.3802 10.2606 15.307 10.4373 15.307 10.6216V11.1069C14.0245 11.3636 13.1125 12.2931 13.1125 13.3751C13.1125 14.457 14.0245 15.3901 15.307 15.6433V17.4909C14.8278 17.3201 14.5019 16.9977 14.5019 16.6674C14.5019 16.4831 14.4287 16.3064 14.2984 16.1761C14.1681 16.0458 13.9914 15.9727 13.8072 15.9727C13.6229 15.9727 13.4462 16.0458 13.3159 16.1761C13.1857 16.3064 13.1125 16.4831 13.1125 16.6674C13.1125 17.7485 14.0245 18.6824 15.307 18.9355V19.42C15.307 19.6043 15.3802 19.781 15.5105 19.9113C15.6408 20.0415 15.8175 20.1147 16.0018 20.1147C16.186 20.1147 16.3627 20.0415 16.493 19.9113C16.6233 19.781 16.6965 19.6043 16.6965 19.42V18.9355C17.9799 18.6789 18.8919 17.7485 18.8919 16.6674C18.8919 15.5863 17.9799 14.6524 16.6965 14.3992V12.5472C17.1739 12.7128 17.5025 13.0369 17.5025 13.3751ZM15.307 14.2082C14.8278 14.0374 14.5019 13.7141 14.5019 13.3839C14.5019 13.0536 14.8278 12.7224 15.307 12.5568V14.2082ZM17.4972 16.6674C17.4972 17.0047 17.1713 17.3288 16.6921 17.4944V15.8395C17.1731 16.0051 17.5025 16.3292 17.5025 16.6674H17.4972Z" />
</svg>
