<svg width="187" height="148" viewBox="0 0 187 148" fill="none" xmlns="http://www.w3.org/2000/svg">
<g clip-path="url(#clip0_3380_135844)">
<path d="M175.249 0H11.9092C8.98721 0.0132217 6.18943 1.18324 4.12795 3.25409C2.06648 5.32493 0.90915 8.128 0.90918 11.05V136.26C0.909165 137.709 1.19534 139.143 1.75126 140.481C2.30719 141.819 3.12192 143.034 4.14866 144.056C5.17541 145.078 6.39395 145.887 7.73431 146.437C9.07466 146.987 10.5104 147.267 11.9592 147.26H175.249C176.698 147.267 178.134 146.987 179.474 146.437C180.814 145.887 182.033 145.078 183.06 144.056C184.086 143.034 184.901 141.819 185.457 140.481C186.013 139.143 186.299 137.709 186.299 136.26V11.05C186.299 8.11936 185.135 5.30874 183.063 3.23647C180.99 1.16419 178.18 0 175.249 0V0ZM181.299 136.26C181.286 137.856 180.643 139.382 179.51 140.506C178.376 141.63 176.845 142.26 175.249 142.26H11.9092C10.3227 142.244 8.80567 141.607 7.68382 140.485C6.56197 139.364 5.92481 137.846 5.90918 136.26V11.05C5.91173 9.45487 6.54312 7.92505 7.66636 6.79245C8.78961 5.65985 10.3141 5.01579 11.9092 5H175.249C176.044 5 176.83 5.15648 177.564 5.46053C178.298 5.76457 178.965 6.21021 179.527 6.772C180.089 7.3338 180.535 8.00075 180.839 8.73477C181.143 9.46879 181.299 10.2555 181.299 11.05V136.26ZM115.299 50.83V52.83C115.299 53.448 115.054 54.0406 114.617 54.4776C114.18 54.9145 113.587 55.16 112.969 55.16H21.6292C21.0112 55.16 20.4186 54.9145 19.9816 54.4776C19.5447 54.0406 19.2992 53.448 19.2992 52.83V50.83C19.2992 50.524 19.3594 50.221 19.4765 49.9384C19.5936 49.6557 19.7653 49.3988 19.9816 49.1824C20.198 48.9661 20.4548 48.7945 20.7375 48.6774C21.0202 48.5603 21.3232 48.5 21.6292 48.5H112.969C113.275 48.5 113.578 48.5603 113.861 48.6774C114.144 48.7945 114.4 48.9661 114.617 49.1824C114.833 49.3988 115.005 49.6557 115.122 49.9384C115.239 50.221 115.299 50.524 115.299 50.83V50.83ZM60.7992 62.91C60.8005 63.2168 60.7412 63.5209 60.6247 63.8047C60.5082 64.0886 60.3368 64.3466 60.1203 64.564C59.9038 64.7814 59.6465 64.954 59.3631 65.0717C59.0798 65.1894 58.776 65.25 58.4692 65.25H21.6292C21.3224 65.25 21.0186 65.1894 20.7352 65.0717C20.4519 64.954 20.1946 64.7814 19.9781 64.564C19.7616 64.3466 19.5902 64.0886 19.4737 63.8047C19.3572 63.5209 19.2979 63.2168 19.2992 62.91V62.91C19.2992 62.292 19.5447 61.6994 19.9816 61.2624C20.4186 60.8255 21.0112 60.58 21.6292 60.58H58.4692C59.0871 60.58 59.6798 60.8255 60.1167 61.2624C60.5537 61.6994 60.7992 62.292 60.7992 62.91V62.91ZM60.7992 73.63C60.8045 73.9393 60.7481 74.2466 60.6334 74.5339C60.5187 74.8213 60.3479 75.0829 60.131 75.3035C59.9142 75.5241 59.6555 75.6993 59.3702 75.8189C59.0848 75.9385 58.7786 76 58.4692 76H21.6292C21.0112 76 20.4186 75.7545 19.9816 75.3176C19.5447 74.8806 19.2992 74.288 19.2992 73.67C19.2992 73.052 19.5447 72.4594 19.9816 72.0224C20.4186 71.5855 21.0112 71.34 21.6292 71.34H58.4692C59.0803 71.3399 59.6669 71.5799 60.1028 72.0082C60.5386 72.4366 60.7887 73.019 60.7992 73.63ZM60.7992 84.35C60.7992 84.968 60.5537 85.5606 60.1167 85.9976C59.6798 86.4345 59.0871 86.68 58.4692 86.68H21.6292C21.0112 86.68 20.4186 86.4345 19.9816 85.9976C19.5447 85.5606 19.2992 84.968 19.2992 84.35C19.2965 84.0423 19.3549 83.7372 19.4708 83.4522C19.5867 83.1672 19.7579 82.908 19.9745 82.6895C20.1911 82.471 20.4489 82.2976 20.7329 82.1793C21.0169 82.0609 21.3215 82 21.6292 82H58.4692C58.7768 82 59.0815 82.0609 59.3655 82.1793C59.6495 82.2976 59.9072 82.471 60.1238 82.6895C60.3405 82.908 60.5117 83.1672 60.6276 83.4522C60.7435 83.7372 60.8018 84.0423 60.7992 84.35ZM60.7992 95.07C60.7992 95.688 60.5537 96.2806 60.1167 96.7176C59.6798 97.1545 59.0871 97.4 58.4692 97.4H21.6292C21.0112 97.4 20.4186 97.1545 19.9816 96.7176C19.5447 96.2806 19.2992 95.688 19.2992 95.07C19.2992 94.764 19.3594 94.461 19.4765 94.1783C19.5936 93.8957 19.7653 93.6388 19.9816 93.4224C20.198 93.2061 20.4548 93.0345 20.7375 92.9174C21.0202 92.8003 21.3232 92.74 21.6292 92.74H58.4692C58.7752 92.74 59.0781 92.8003 59.3608 92.9174C59.6435 93.0345 59.9004 93.2061 60.1167 93.4224C60.3331 93.6388 60.5047 93.8957 60.6218 94.1783C60.7389 94.461 60.7992 94.764 60.7992 95.07ZM60.7992 105.79C60.7992 106.408 60.5537 107.001 60.1167 107.438C59.6798 107.875 59.0871 108.12 58.4692 108.12H21.6292C21.0112 108.12 20.4186 107.875 19.9816 107.438C19.5447 107.001 19.2992 106.408 19.2992 105.79C19.2992 105.172 19.5447 104.579 19.9816 104.142C20.4186 103.705 21.0112 103.46 21.6292 103.46H58.4692C58.7752 103.46 59.0781 103.52 59.3608 103.637C59.6435 103.754 59.9004 103.926 60.1167 104.142C60.3331 104.359 60.5047 104.616 60.6218 104.898C60.7389 105.181 60.7992 105.484 60.7992 105.79ZM60.7992 116.51C60.7992 117.128 60.5537 117.721 60.1167 118.158C59.6798 118.595 59.0871 118.84 58.4692 118.84H21.6292C21.0112 118.84 20.4186 118.595 19.9816 118.158C19.5447 117.721 19.2992 117.128 19.2992 116.51C19.2992 115.892 19.5447 115.299 19.9816 114.862C20.4186 114.425 21.0112 114.18 21.6292 114.18H58.4692C58.7752 114.18 59.0781 114.24 59.3608 114.357C59.6435 114.474 59.9004 114.646 60.1167 114.862C60.3331 115.079 60.5047 115.336 60.6218 115.618C60.7389 115.901 60.7992 116.204 60.7992 116.51V116.51ZM60.7992 127.23C60.7992 127.848 60.5537 128.441 60.1167 128.878C59.6798 129.315 59.0871 129.56 58.4692 129.56H21.6292C21.0112 129.56 20.4186 129.315 19.9816 128.878C19.5447 128.441 19.2992 127.848 19.2992 127.23C19.2979 126.923 19.3572 126.619 19.4737 126.335C19.5902 126.051 19.7616 125.793 19.9781 125.576C20.1946 125.359 20.4519 125.186 20.7352 125.068C21.0186 124.951 21.3224 124.89 21.6292 124.89H58.4692C58.776 124.89 59.0798 124.951 59.3631 125.068C59.6465 125.186 59.9038 125.359 60.1203 125.576C60.3368 125.793 60.5082 126.051 60.6247 126.335C60.7412 126.619 60.8005 126.923 60.7992 127.23V127.23ZM114.799 62.91C114.8 63.2168 114.741 63.5209 114.625 63.8047C114.508 64.0886 114.337 64.3466 114.12 64.564C113.904 64.7814 113.646 64.954 113.363 65.0717C113.08 65.1894 112.776 65.25 112.469 65.25H75.6292C75.3224 65.25 75.0186 65.1894 74.7352 65.0717C74.4519 64.954 74.1946 64.7814 73.9781 64.564C73.7616 64.3466 73.5902 64.0886 73.4737 63.8047C73.3572 63.5209 73.2979 63.2168 73.2992 62.91V62.91C73.2992 62.292 73.5447 61.6994 73.9816 61.2624C74.4186 60.8255 75.0112 60.58 75.6292 60.58H112.469C113.087 60.58 113.68 60.8255 114.117 61.2624C114.554 61.6994 114.799 62.292 114.799 62.91V62.91ZM114.799 73.63C114.799 74.248 114.554 74.8406 114.117 75.2776C113.68 75.7145 113.087 75.96 112.469 75.96H75.6292C75.0112 75.96 74.4186 75.7145 73.9816 75.2776C73.5447 74.8406 73.2992 74.248 73.2992 73.63C73.2992 73.0121 73.5447 72.4194 73.9816 71.9824C74.4186 71.5455 75.0112 71.3 75.6292 71.3H112.469C113.087 71.3 113.68 71.5455 114.117 71.9824C114.554 72.4194 114.799 73.0121 114.799 73.63V73.63ZM114.799 84.35C114.799 84.968 114.554 85.5606 114.117 85.9976C113.68 86.4345 113.087 86.68 112.469 86.68H75.6292C75.0112 86.68 74.4186 86.4345 73.9816 85.9976C73.5447 85.5606 73.2992 84.968 73.2992 84.35C73.2965 84.0423 73.3549 83.7372 73.4708 83.4522C73.5867 83.1672 73.7579 82.908 73.9745 82.6895C74.1911 82.471 74.4489 82.2976 74.7329 82.1793C75.0169 82.0609 75.3215 82 75.6292 82H112.469C112.777 82 113.081 82.0609 113.365 82.1793C113.649 82.2976 113.907 82.471 114.124 82.6895C114.34 82.908 114.512 83.1672 114.628 83.4522C114.744 83.7372 114.802 84.0423 114.799 84.35V84.35ZM114.799 95.07C114.799 95.688 114.554 96.2806 114.117 96.7176C113.68 97.1545 113.087 97.4 112.469 97.4H75.6292C75.0112 97.4 74.4186 97.1545 73.9816 96.7176C73.5447 96.2806 73.2992 95.688 73.2992 95.07C73.2992 94.764 73.3594 94.461 73.4765 94.1783C73.5936 93.8957 73.7653 93.6388 73.9816 93.4224C74.198 93.2061 74.4548 93.0345 74.7375 92.9174C75.0202 92.8003 75.3232 92.74 75.6292 92.74H112.469C112.775 92.74 113.078 92.8003 113.361 92.9174C113.644 93.0345 113.9 93.2061 114.117 93.4224C114.333 93.6388 114.505 93.8957 114.622 94.1783C114.739 94.461 114.799 94.764 114.799 95.07V95.07ZM114.799 105.79C114.799 106.408 114.554 107.001 114.117 107.438C113.68 107.875 113.087 108.12 112.469 108.12H75.6292C75.0112 108.12 74.4186 107.875 73.9816 107.438C73.5447 107.001 73.2992 106.408 73.2992 105.79C73.2992 105.172 73.5447 104.579 73.9816 104.142C74.4186 103.705 75.0112 103.46 75.6292 103.46H112.469C112.775 103.46 113.078 103.52 113.361 103.637C113.644 103.754 113.9 103.926 114.117 104.142C114.333 104.359 114.505 104.616 114.622 104.898C114.739 105.181 114.799 105.484 114.799 105.79V105.79ZM114.799 116.51C114.799 117.128 114.554 117.721 114.117 118.158C113.68 118.595 113.087 118.84 112.469 118.84H75.6292C75.0112 118.84 74.4186 118.595 73.9816 118.158C73.5447 117.721 73.2992 117.128 73.2992 116.51C73.2992 115.892 73.5447 115.299 73.9816 114.862C74.4186 114.425 75.0112 114.18 75.6292 114.18H112.469C112.775 114.18 113.078 114.24 113.361 114.357C113.644 114.474 113.9 114.646 114.117 114.862C114.333 115.079 114.505 115.336 114.622 115.618C114.739 115.901 114.799 116.204 114.799 116.51V116.51ZM114.799 127.23C114.799 127.848 114.554 128.441 114.117 128.878C113.68 129.315 113.087 129.56 112.469 129.56H75.6292C75.0112 129.56 74.4186 129.315 73.9816 128.878C73.5447 128.441 73.2992 127.848 73.2992 127.23C73.2979 126.923 73.3572 126.619 73.4737 126.335C73.5902 126.051 73.7616 125.793 73.9781 125.576C74.1946 125.359 74.4519 125.186 74.7352 125.068C75.0186 124.951 75.3224 124.89 75.6292 124.89H112.469C112.776 124.89 113.08 124.951 113.363 125.068C113.646 125.186 113.904 125.359 114.12 125.576C114.337 125.793 114.508 126.051 114.625 126.335C114.741 126.619 114.8 126.923 114.799 127.23V127.23ZM167.799 62.91C167.8 63.2168 167.741 63.5209 167.625 63.8047C167.508 64.0886 167.337 64.3466 167.12 64.564C166.904 64.7814 166.646 64.954 166.363 65.0717C166.08 65.1894 165.776 65.25 165.469 65.25H128.629C128.322 65.25 128.019 65.1894 127.735 65.0717C127.452 64.954 127.195 64.7814 126.978 64.564C126.762 64.3466 126.59 64.0886 126.474 63.8047C126.357 63.5209 126.298 63.2168 126.299 62.91V62.91C126.299 62.604 126.359 62.301 126.477 62.0183C126.594 61.7357 126.765 61.4788 126.982 61.2624C127.198 61.0461 127.455 60.8744 127.738 60.7574C128.02 60.6403 128.323 60.58 128.629 60.58H165.469C166.087 60.58 166.68 60.8255 167.117 61.2624C167.554 61.6994 167.799 62.292 167.799 62.91V62.91ZM167.799 73.63C167.799 74.248 167.554 74.8406 167.117 75.2776C166.68 75.7145 166.087 75.96 165.469 75.96H128.629C128.323 75.96 128.02 75.8997 127.738 75.7826C127.455 75.6655 127.198 75.4939 126.982 75.2776C126.765 75.0612 126.594 74.8043 126.477 74.5217C126.359 74.239 126.299 73.936 126.299 73.63C126.299 73.324 126.359 73.021 126.477 72.7383C126.594 72.4557 126.765 72.1988 126.982 71.9824C127.198 71.7661 127.455 71.5944 127.738 71.4774C128.02 71.3603 128.323 71.3 128.629 71.3H165.469C166.087 71.3 166.68 71.5455 167.117 71.9824C167.554 72.4194 167.799 73.0121 167.799 73.63V73.63ZM167.799 85.43V109.43C167.8 109.659 167.756 109.887 167.67 110.099C167.583 110.311 167.455 110.504 167.293 110.667C167.131 110.829 166.939 110.959 166.727 111.047C166.516 111.135 166.289 111.18 166.059 111.18H128.059C127.83 111.18 127.603 111.135 127.391 111.047C127.179 110.959 126.987 110.829 126.825 110.667C126.664 110.504 126.536 110.311 126.449 110.099C126.362 109.887 126.318 109.659 126.319 109.43V85.43C126.318 85.2007 126.362 84.9733 126.449 84.7611C126.536 84.5488 126.664 84.3558 126.825 84.1932C126.987 84.0305 127.179 83.9015 127.391 83.8134C127.603 83.7253 127.83 83.68 128.059 83.68H166.059C166.289 83.68 166.516 83.7253 166.727 83.8134C166.939 83.9015 167.131 84.0305 167.293 84.1932C167.455 84.3558 167.583 84.5488 167.67 84.7611C167.756 84.9733 167.8 85.2007 167.799 85.43V85.43ZM167.799 127.23C167.799 127.848 167.554 128.441 167.117 128.878C166.68 129.315 166.087 129.56 165.469 129.56H128.629C128.323 129.56 128.02 129.5 127.738 129.383C127.455 129.266 127.198 129.094 126.982 128.878C126.765 128.661 126.594 128.404 126.477 128.122C126.359 127.839 126.299 127.536 126.299 127.23C126.298 126.923 126.357 126.619 126.474 126.335C126.59 126.051 126.762 125.793 126.978 125.576C127.195 125.359 127.452 125.186 127.735 125.068C128.019 124.951 128.322 124.89 128.629 124.89H165.469C165.776 124.89 166.08 124.951 166.363 125.068C166.646 125.186 166.904 125.359 167.12 125.576C167.337 125.793 167.508 126.051 167.625 126.335C167.741 126.619 167.8 126.923 167.799 127.23V127.23Z" fill="white" fill-opacity="0.3"/>
<path d="M165.56 17.5H21.0398C19.5265 17.5 18.2998 18.7267 18.2998 20.24V39.76C18.2998 41.2733 19.5265 42.5 21.0398 42.5H165.56C167.073 42.5 168.3 41.2733 168.3 39.76V20.24C168.3 18.7267 167.073 17.5 165.56 17.5Z" fill="white" fill-opacity="0.3"/>
<path d="M165.56 18.5C165.788 18.5 166.015 18.545 166.226 18.6324C166.437 18.7199 166.629 18.8481 166.79 19.0096C166.952 19.1712 167.08 19.363 167.167 19.5741C167.255 19.7852 167.3 20.0115 167.3 20.24V39.76C167.3 40.2215 167.116 40.6641 166.79 40.9904C166.464 41.3167 166.021 41.5 165.56 41.5H21.0398C20.5783 41.5 20.1358 41.3167 19.8094 40.9904C19.4831 40.6641 19.2998 40.2215 19.2998 39.76V20.24C19.2998 20.0115 19.3448 19.7852 19.4323 19.5741C19.5197 19.363 19.6479 19.1712 19.8094 19.0096C19.971 18.8481 20.1628 18.7199 20.3739 18.6324C20.585 18.545 20.8113 18.5 21.0398 18.5H165.56ZM165.56 16.5H21.0398C20.0487 16.5026 19.099 16.8975 18.3981 17.5983C17.6973 18.2992 17.3024 19.2489 17.2998 20.24V39.76C17.3024 40.7511 17.6973 41.7008 18.3981 42.4017C19.099 43.1025 20.0487 43.4974 21.0398 43.5H165.56C166.551 43.4974 167.501 43.1025 168.201 42.4017C168.902 41.7008 169.297 40.7511 169.3 39.76V20.24C169.297 19.2489 168.902 18.2992 168.201 17.5983C167.501 16.8975 166.551 16.5026 165.56 16.5V16.5Z" fill="#E46863"/>
<path d="M128.016 37.6871L134.382 49.3955C134.411 49.4528 134.434 49.513 134.45 49.5751C134.45 49.6574 136.096 57.4306 127.627 62.0466C116.502 68.0916 112.836 63.6103 111.976 62.0915C111.88 61.9123 111.727 61.7702 111.542 61.6875L96.3394 55.7847C95.6365 55.5116 95.018 55.0579 94.5464 54.4695C94.0749 53.881 93.7669 53.1785 93.6536 52.433C93.5388 51.688 93.6222 50.9258 93.8954 50.2232C94.1685 49.5206 94.6218 48.9023 95.2097 48.4304C95.7983 47.9581 96.5011 47.6492 97.2471 47.535C97.9931 47.4207 98.7561 47.5051 99.4591 47.7796L104.861 49.8818L97.1698 35.4053C96.9568 34.9753 96.8306 34.5074 96.7985 34.0286C96.7664 33.5498 96.829 33.0693 96.9828 32.6147C97.2887 31.6979 97.945 30.9395 98.8083 30.5049C99.6431 30.014 100.639 29.8741 101.576 30.1159C102.042 30.2337 102.481 30.4424 102.866 30.73C103.251 31.0176 103.575 31.3784 103.821 31.7917L108.467 40.3355C108.706 39.7363 109.097 39.2091 109.6 38.8054C110.103 38.4016 110.703 38.1349 111.34 38.0313C111.975 37.9253 112.627 37.9854 113.233 38.2056C113.839 38.4258 114.377 38.7987 114.796 39.2881C115.028 38.6769 115.415 38.1363 115.918 37.7193C116.422 37.3023 117.025 37.0231 117.669 36.909C118.314 36.7922 118.978 36.8468 119.595 37.0673C120.212 37.2879 120.761 37.6668 121.185 38.1659C121.497 37.3173 122.106 36.6104 122.898 36.1759C123.333 35.9368 123.811 35.7866 124.304 35.7339C124.797 35.6813 125.296 35.7272 125.771 35.8691C126.73 36.1554 127.537 36.8088 128.016 37.6871V37.6871Z" fill="white"/>
</g>
<defs>
<clipPath id="clip0_3380_135844">
<rect width="185.44" height="147.31" fill="white" transform="translate(0.859375)"/>
</clipPath>
</defs>
</svg>
