<svg width="75" height="18" viewBox="0 0 75 18" fill="none" xmlns="http://www.w3.org/2000/svg">
<path d="M28.5522 4.02588H24.473C24.1938 4.02588 23.9564 4.22868 23.9129 4.50424L22.2631 14.9644C22.2303 15.1708 22.3901 15.3568 22.5995 15.3568H24.5469C24.8261 15.3568 25.0635 15.1541 25.107 14.8779L25.552 12.0566C25.5949 11.7805 25.8329 11.5777 26.1114 11.5777H27.4028C30.0898 11.5777 31.6406 10.2774 32.0456 7.70067C32.2281 6.57336 32.0534 5.68762 31.5255 5.0673C30.9458 4.38614 29.9175 4.02588 28.5522 4.02588ZM29.0228 7.84621C28.7997 9.30993 27.6813 9.30993 26.5999 9.30993H25.9844L26.4162 6.57635C26.4419 6.41113 26.585 6.28945 26.752 6.28945H27.0342C27.7708 6.28945 28.4657 6.28945 28.8247 6.70936C29.0389 6.95987 29.1045 7.33206 29.0228 7.84621Z" fill="#253B80"/>
<path d="M40.744 7.79846H38.7906C38.6242 7.79846 38.4805 7.92013 38.4548 8.08535L38.3683 8.63171L38.2318 8.43369C37.8089 7.81993 36.8659 7.61475 35.9246 7.61475C33.766 7.61475 31.9224 9.24965 31.5633 11.543C31.3766 12.687 31.6421 13.781 32.291 14.5438C32.8863 15.2453 33.738 15.5375 34.7514 15.5375C36.4907 15.5375 37.4552 14.4192 37.4552 14.4192L37.3681 14.962C37.3353 15.1695 37.4951 15.3556 37.7033 15.3556H39.4628C39.7426 15.3556 39.9788 15.1528 40.0229 14.8767L41.0787 8.19093C41.1121 7.98515 40.9528 7.79846 40.744 7.79846ZM38.0212 11.6003C37.8327 12.7163 36.947 13.4654 35.8173 13.4654C35.25 13.4654 34.7967 13.2835 34.5057 12.9388C34.217 12.5964 34.1072 12.1091 34.1991 11.5663C34.375 10.4599 35.2757 9.68625 36.3881 9.68625C36.9428 9.68625 37.3937 9.87056 37.6908 10.2183C37.9884 10.5696 38.1065 11.0599 38.0212 11.6003Z" fill="#253B80"/>
<path d="M51.149 7.79883H49.1861C48.9988 7.79883 48.8228 7.89188 48.7167 8.04755L46.0093 12.0355L44.8617 8.20323C44.7896 7.96345 44.5683 7.79883 44.3178 7.79883H42.3888C42.1544 7.79883 41.9916 8.02787 42.0661 8.24856L44.2283 14.5937L42.1955 17.4633C42.0357 17.6893 42.1967 18.0001 42.4729 18.0001H44.4335C44.6196 18.0001 44.7937 17.9094 44.8993 17.7567L51.4282 8.33266C51.5844 8.1072 51.424 7.79883 51.149 7.79883Z" fill="#253B80"/>
<path d="M57.6469 4.02588H53.5671C53.2885 4.02588 53.0512 4.22868 53.0076 4.50424L51.3578 14.9644C51.325 15.1708 51.4848 15.3568 51.693 15.3568H53.7866C53.981 15.3568 54.1474 15.2149 54.1779 15.0216L54.6461 12.0566C54.689 11.7805 54.927 11.5777 55.2056 11.5777H56.4963C59.184 11.5777 60.7342 10.2774 61.1398 7.70067C61.3229 6.57336 61.1469 5.68762 60.619 5.0673C60.0399 4.38614 59.0122 4.02588 57.6469 4.02588ZM58.1175 7.84621C57.895 9.30993 56.7766 9.30993 55.6947 9.30993H55.0797L55.5122 6.57635C55.5378 6.41113 55.6798 6.28945 55.8474 6.28945H56.1295C56.8655 6.28945 57.561 6.28945 57.9201 6.70936C58.1342 6.95987 58.1992 7.33206 58.1175 7.84621Z" fill="#179BD7"/>
<path d="M69.8401 7.79846H67.8879C67.7203 7.79846 67.5778 7.92013 67.5527 8.08535L67.4662 8.63171L67.329 8.43369C66.9061 7.81993 65.9637 7.61475 65.0225 7.61475C62.8639 7.61475 61.0209 9.24965 60.6618 11.543C60.4757 12.687 60.7399 13.781 61.3889 14.5438C61.9853 15.2453 62.8359 15.5375 63.8493 15.5375C65.5886 15.5375 66.553 14.4192 66.553 14.4192L66.4659 14.962C66.4331 15.1695 66.593 15.3556 66.8024 15.3556H68.5613C68.8399 15.3556 69.0773 15.1528 69.1208 14.8767L70.1771 8.19093C70.2093 7.98515 70.0495 7.79846 69.8401 7.79846ZM67.1173 11.6003C66.93 12.7163 66.0431 13.4654 64.9134 13.4654C64.3473 13.4654 63.8928 13.2835 63.6017 12.9388C63.3131 12.5964 63.2045 12.1091 63.2952 11.5663C63.4723 10.4599 64.3718 9.68625 65.4842 9.68625C66.0389 9.68625 66.4898 9.87056 66.7868 10.2183C67.0857 10.5696 67.2038 11.0599 67.1173 11.6003Z" fill="#179BD7"/>
<path d="M72.1434 4.31288L70.4691 14.9645C70.4363 15.1709 70.5962 15.357 70.8043 15.357H72.4876C72.7673 15.357 73.0047 15.1542 73.0476 14.878L74.6986 4.41846C74.7314 4.21208 74.5716 4.02539 74.3634 4.02539H72.4786C72.3122 4.02599 72.169 4.14767 72.1434 4.31288Z" fill="#179BD7"/>
<path d="M5.32213 17.3893L5.63408 15.4078L4.93921 15.3917H1.62109L3.92701 0.770691C3.93417 0.726553 3.95743 0.685397 3.99143 0.656171C4.02543 0.626944 4.06897 0.61084 4.1143 0.61084H9.7091C11.5665 0.61084 12.8483 0.997346 13.5175 1.76022C13.8312 2.1181 14.0311 2.49208 14.1277 2.90364C14.2291 3.33547 14.2309 3.85141 14.1319 4.48068L14.1247 4.52661V4.92981L14.4384 5.10756C14.7027 5.24773 14.9126 5.40817 15.0737 5.59189C15.3421 5.89787 15.5157 6.28676 15.589 6.74783C15.6648 7.22201 15.6397 7.78626 15.5157 8.42507C15.3725 9.15991 15.1411 9.79992 14.8285 10.3236C14.541 10.8061 14.1748 11.2064 13.74 11.5165C13.3249 11.8112 12.8316 12.0349 12.2739 12.178C11.7335 12.3188 11.1173 12.3897 10.4416 12.3897H10.0061C9.69479 12.3897 9.39238 12.5019 9.15499 12.7029C8.917 12.9081 8.75954 13.1884 8.71123 13.495L8.67842 13.6733L8.12729 17.1656L8.10224 17.2939C8.09568 17.3344 8.08434 17.3547 8.06764 17.3684C8.05273 17.3809 8.03126 17.3893 8.01038 17.3893H5.32213Z" fill="#253B80"/>
<path d="M14.7348 4.57324C14.7181 4.68001 14.6991 4.78916 14.6776 4.9013C13.9398 8.68942 11.4155 9.99805 8.19167 9.99805H6.55021C6.15595 9.99805 5.82372 10.2844 5.76228 10.6732L4.92187 16.0032L4.68388 17.5141C4.64392 17.7693 4.84075 17.9996 5.09842 17.9996H8.00975C8.3545 17.9996 8.64736 17.7491 8.70164 17.4091L8.73027 17.2612L9.27842 13.7826L9.31361 13.5917C9.36729 13.2506 9.66075 13 10.0055 13H10.4409C13.2616 13 15.4697 11.8548 16.1151 8.5409C16.3847 7.15651 16.2451 6.00057 15.5317 5.1876C15.3158 4.94245 15.048 4.73906 14.7348 4.57324Z" fill="#179BD7"/>
<path d="M13.9634 4.26532C13.8507 4.23251 13.7344 4.20269 13.6151 4.17585C13.4952 4.1496 13.3723 4.12634 13.2459 4.10606C12.8033 4.03449 12.3184 4.00049 11.7989 4.00049H7.4137C7.30574 4.00049 7.20315 4.02494 7.11129 4.06908C6.90909 4.1663 6.75879 4.35777 6.7224 4.59218L5.78954 10.5007L5.7627 10.6731C5.82413 10.2842 6.15636 9.9979 6.55062 9.9979H8.19208C11.416 9.9979 13.9402 8.68867 14.678 4.90114C14.7001 4.78901 14.7186 4.67986 14.7353 4.57309C14.5486 4.47408 14.3464 4.38938 14.1287 4.31721C14.075 4.29932 14.0195 4.28202 13.9634 4.26532Z" fill="#222D65"/>
<path d="M6.72265 4.59215C6.75903 4.35774 6.90934 4.16628 7.11154 4.06965C7.20399 4.02552 7.30599 4.00106 7.41395 4.00106H11.7991C12.3186 4.00106 12.8036 4.03506 13.2461 4.10663C13.3726 4.12691 13.4955 4.15018 13.6154 4.17642C13.7346 4.20326 13.851 4.23308 13.9637 4.26589C14.0198 4.28259 14.0752 4.29989 14.1295 4.31718C14.3472 4.38936 14.5494 4.47465 14.7361 4.57307C14.9556 3.17317 14.7343 2.22003 13.9774 1.35695C13.143 0.406786 11.6369 0 9.70973 0H4.11492C3.72126 0 3.38545 0.286301 3.32461 0.67579L0.994239 15.4471C0.948312 15.7394 1.17377 16.003 1.46843 16.003H4.92253L5.78978 10.5007L6.72265 4.59215Z" fill="#253B80"/>
</svg>
