<svg width="40" height="41" viewBox="0 0 40 41" fill="none" xmlns="http://www.w3.org/2000/svg">
<path d="M39.46 1.6138L38.8836 1.03747C38.5776 0.730973 38.164 0.556005 37.731 0.549805H37.2655L1.64365 11.0125C1.16831 11.1507 0.752913 11.444 0.463665 11.8458C0.174417 12.2475 0.0279659 12.7345 0.047653 13.2291V13.3843C0.047653 21.2091 18.18 40.4498 27.2018 40.4498H27.357C27.8516 40.4695 28.3386 40.323 28.7403 40.0338C29.1421 39.7445 29.4354 39.3291 29.5736 38.8538L39.9476 3.25414C40.0227 2.9622 40.017 2.65534 39.9311 2.36641C39.8452 2.07747 39.6823 1.81732 39.46 1.6138ZM14.456 20.4998C13.7984 20.4998 13.1555 20.3048 12.6087 19.9394C12.0619 19.5741 11.6357 19.0548 11.3841 18.4472C11.1324 17.8397 11.0666 17.1711 11.1949 16.5261C11.3232 15.8811 11.6398 15.2887 12.1049 14.8237C12.5699 14.3587 13.1623 14.042 13.8073 13.9137C14.4523 13.7854 15.1208 13.8512 15.7284 14.1029C16.336 14.3546 16.8553 14.7807 17.2206 15.3275C17.586 15.8743 17.781 16.5172 17.781 17.1748C17.781 18.0566 17.4307 18.9024 16.8071 19.5259C16.1836 20.1495 15.3378 20.4998 14.456 20.4998ZM24.431 29.3665C23.5541 29.3665 22.697 29.1064 21.9679 28.6193C21.2389 28.1322 20.6707 27.4398 20.3351 26.6297C19.9996 25.8196 19.9118 24.9282 20.0828 24.0682C20.2539 23.2082 20.6761 22.4183 21.2961 21.7983C21.9162 21.1783 22.7061 20.756 23.5661 20.585C24.4261 20.4139 25.3175 20.5017 26.1275 20.8373C26.9376 21.1728 27.63 21.741 28.1172 22.4701C28.6043 23.1992 28.8643 24.0563 28.8643 24.9331C28.8643 26.1089 28.3972 27.2366 27.5658 28.068C26.7344 28.8994 25.6068 29.3665 24.431 29.3665ZM25.5393 11.6331C24.8765 11.6325 24.2291 11.4337 23.6801 11.0624C23.1311 10.6912 22.7056 10.1643 22.4581 9.54947L28.8643 7.70964C28.8861 7.90854 28.8861 8.10923 28.8643 8.30814C28.8643 9.18998 28.514 10.0357 27.8904 10.6593C27.2669 11.2828 26.4212 11.6331 25.5393 11.6331Z" fill="#C85743"/>
</svg>
