<svg width="42" height="42" viewBox="0 0 42 42" fill="none" xmlns="http://www.w3.org/2000/svg">
<path d="M41.2593 21.2295C41.2593 26.5338 39.1521 31.6209 35.4014 35.3716C31.6507 39.1224 26.5636 41.2295 21.2592 41.2295C15.9549 41.2295 10.8678 39.1223 7.11712 35.3716C3.3664 31.6209 1.25928 26.5338 1.25928 21.2295C1.25928 15.9252 3.3664 10.8381 7.11712 7.08738C10.8678 3.33665 15.9549 1.22951 21.2592 1.22949C26.5636 1.22949 31.6507 3.33662 35.4014 7.08735C39.1521 10.8381 41.2593 15.9252 41.2593 21.2295Z" fill="url(#paint0_linear_3581_136626)" stroke="#CDCDCD" stroke-width="0.753985" stroke-linecap="round" stroke-linejoin="round"/>
<path d="M39.6918 21.2302C39.6918 26.1189 37.7498 30.8074 34.2929 34.2642C30.8361 37.721 26.1477 39.663 21.259 39.663C16.3703 39.663 11.6818 37.721 8.225 34.2642C4.76819 30.8073 2.82617 26.1189 2.82617 21.2302C2.82617 16.3415 4.76819 11.6531 8.225 8.19624C11.6818 4.73941 16.3703 2.79738 21.259 2.79736C26.1477 2.79736 30.8361 4.73939 34.2929 8.19622C37.7498 11.653 39.6918 16.3415 39.6918 21.2302Z" fill="url(#paint1_radial_3581_136626)"/>
<path d="M21.2595 3.7583C21.2242 3.75822 21.1892 3.76511 21.1565 3.77859C21.1239 3.79207 21.0942 3.81186 21.0692 3.83684C21.0442 3.86182 21.0244 3.89148 21.011 3.92413C20.9975 3.95678 20.9906 3.99177 20.9907 4.02709V7.1269C20.9906 7.16222 20.9975 7.19721 21.011 7.22986C21.0244 7.26251 21.0442 7.29218 21.0692 7.31715C21.0942 7.34213 21.1239 7.36193 21.1565 7.3754C21.1892 7.38888 21.2242 7.39578 21.2595 7.39569C21.2948 7.39576 21.3298 7.38885 21.3624 7.37537C21.395 7.36188 21.4247 7.34208 21.4496 7.31711C21.4746 7.29213 21.4944 7.26247 21.5079 7.22983C21.5213 7.19719 21.5282 7.16221 21.5281 7.1269V4.02703C21.5282 3.99172 21.5213 3.95674 21.5078 3.9241C21.4944 3.89147 21.4746 3.86181 21.4496 3.83684C21.4246 3.81187 21.395 3.79208 21.3623 3.7786C21.3297 3.76512 21.2947 3.75823 21.2594 3.7583H21.2595ZM19.5013 3.86939C19.4832 3.86745 19.4648 3.86754 19.4467 3.86965C19.4116 3.87323 19.3775 3.88372 19.3464 3.90051C19.3153 3.9173 19.2879 3.94007 19.2656 3.96749C19.2434 3.99492 19.2268 4.02647 19.2168 4.06033C19.2068 4.09419 19.2035 4.1297 19.2073 4.16481L19.3427 5.46166C19.3463 5.49679 19.3568 5.53087 19.3736 5.56193C19.3904 5.593 19.4132 5.62044 19.4406 5.64269C19.468 5.66494 19.4996 5.68155 19.5334 5.69157C19.5673 5.70159 19.6028 5.70482 19.6379 5.70108C19.673 5.6975 19.7071 5.68701 19.7382 5.67021C19.7693 5.65342 19.7967 5.63065 19.819 5.60322C19.8412 5.57579 19.8578 5.54423 19.8678 5.51036C19.8778 5.47649 19.8811 5.44098 19.8773 5.40586L19.742 4.10907C19.7357 4.04748 19.7083 3.98995 19.6644 3.94626C19.6205 3.90257 19.5629 3.87541 19.5013 3.86939H19.5013ZM23.0299 3.87067C22.9682 3.87666 22.9106 3.90379 22.8667 3.94745C22.8228 3.99112 22.7954 4.04863 22.789 4.11022L22.6527 5.40694C22.6489 5.44207 22.6521 5.47758 22.6621 5.51146C22.6721 5.54534 22.6887 5.57691 22.711 5.60435C22.7332 5.6318 22.7606 5.65459 22.7917 5.67141C22.8227 5.68823 22.8568 5.69874 22.892 5.70236C22.9271 5.70613 22.9626 5.70292 22.9964 5.69293C23.0303 5.68294 23.0619 5.66635 23.0893 5.64413C23.1167 5.62191 23.1395 5.59448 23.1563 5.56343C23.1731 5.53238 23.1836 5.49832 23.1873 5.46319L23.3236 4.16634C23.3274 4.13123 23.3242 4.09572 23.3142 4.06185C23.3042 4.02798 23.2876 3.99642 23.2653 3.96898C23.2431 3.94154 23.2157 3.91877 23.1846 3.90196C23.1535 3.88516 23.1195 3.87465 23.0843 3.87105C23.0662 3.8692 23.0479 3.86909 23.0298 3.87073L23.0299 3.87067ZM17.6953 4.13129C17.6554 4.13139 17.616 4.14041 17.58 4.15768C17.544 4.17496 17.5123 4.20005 17.4872 4.23113C17.4622 4.26221 17.4444 4.2985 17.4351 4.33734C17.4259 4.37618 17.4254 4.41659 17.4338 4.45563L18.0757 7.48827C18.0829 7.52284 18.0969 7.55563 18.1169 7.58477C18.1368 7.61391 18.1623 7.63883 18.1919 7.65808C18.2215 7.67734 18.2547 7.69056 18.2894 7.69698C18.3241 7.70341 18.3598 7.70291 18.3943 7.69552C18.4289 7.68828 18.4616 7.6743 18.4908 7.65436C18.5199 7.63443 18.5448 7.60893 18.5641 7.57934C18.5834 7.54975 18.5966 7.51665 18.603 7.48194C18.6095 7.44722 18.609 7.41158 18.6016 7.37705L17.9596 4.34435C17.947 4.28376 17.9137 4.22941 17.8655 4.19055C17.8174 4.15168 17.7572 4.13067 17.6953 4.1311V4.13129ZM24.8358 4.13385C24.7739 4.13332 24.7137 4.15425 24.6655 4.19308C24.6173 4.23191 24.584 4.28624 24.5713 4.34684L23.9271 7.37903C23.9197 7.41356 23.9192 7.44921 23.9256 7.48394C23.932 7.51867 23.9452 7.55179 23.9644 7.58141C23.9837 7.61102 24.0086 7.63655 24.0377 7.65651C24.0668 7.67648 24.0996 7.69049 24.1342 7.69775C24.1687 7.70517 24.2043 7.70569 24.2391 7.69929C24.2738 7.69289 24.3069 7.6797 24.3365 7.66047C24.3661 7.64123 24.3917 7.61634 24.4116 7.58722C24.4316 7.5581 24.4456 7.52532 24.4529 7.49076L25.0971 4.4585C25.1055 4.41947 25.105 4.37906 25.0958 4.34022C25.0866 4.30137 25.0688 4.26508 25.0438 4.23399C25.0187 4.2029 24.987 4.17779 24.9511 4.1605C24.9151 4.1432 24.8757 4.13416 24.8358 4.13404V4.13385ZM15.9717 4.61729C15.9359 4.61404 15.8997 4.61826 15.8656 4.62968C15.832 4.64051 15.8009 4.65788 15.774 4.68078C15.7471 4.70368 15.725 4.73166 15.709 4.76312C15.6929 4.79458 15.6833 4.82889 15.6805 4.86409C15.6778 4.8993 15.682 4.93469 15.693 4.96825L16.0959 6.20841C16.1067 6.24202 16.1241 6.27316 16.147 6.30005C16.1699 6.32693 16.1979 6.34902 16.2294 6.36506C16.2609 6.38109 16.2952 6.39075 16.3304 6.39349C16.3656 6.39622 16.401 6.39197 16.4346 6.38098C16.4682 6.37014 16.4994 6.35277 16.5262 6.32986C16.5531 6.30694 16.5752 6.27895 16.5912 6.24748C16.6073 6.216 16.6169 6.18168 16.6196 6.14646C16.6224 6.11125 16.6181 6.07584 16.6071 6.04228L16.2042 4.80219C16.188 4.75189 16.1573 4.7075 16.1159 4.6746C16.0745 4.64171 16.0244 4.62177 15.9717 4.61729ZM26.5496 4.61793C26.4969 4.62241 26.4468 4.64236 26.4054 4.67525C26.3641 4.70815 26.3333 4.75253 26.3171 4.80283L25.9139 6.04285C25.903 6.07641 25.8987 6.11181 25.9014 6.14702C25.9042 6.18223 25.9138 6.21655 25.9298 6.24801C25.9459 6.27948 25.968 6.30747 25.9948 6.33037C26.0217 6.35328 26.0528 6.37065 26.0865 6.38149C26.12 6.39248 26.1554 6.39674 26.1906 6.39401C26.2258 6.39129 26.2601 6.38164 26.2916 6.36561C26.3231 6.34959 26.351 6.32751 26.374 6.30064C26.3969 6.27377 26.4142 6.24265 26.4251 6.20905L26.8283 4.96889C26.8393 4.93534 26.8435 4.89994 26.8408 4.86474C26.8381 4.82953 26.8284 4.79522 26.8124 4.76375C26.7964 4.73229 26.7743 4.7043 26.7474 4.68139C26.7206 4.65848 26.6894 4.6411 26.6558 4.63025C26.6216 4.6191 26.5855 4.61491 26.5496 4.61793ZM14.2673 5.24107C14.2313 5.24178 14.1958 5.24973 14.163 5.26444C14.1307 5.27871 14.1016 5.29923 14.0772 5.3248C14.0529 5.35037 14.0338 5.38049 14.0212 5.41345C14.0085 5.4464 14.0024 5.48153 14.0034 5.51682C14.0043 5.55211 14.0122 5.58687 14.0266 5.6191L15.2857 8.45178C15.3 8.48407 15.3205 8.51323 15.346 8.53758C15.3716 8.56192 15.4017 8.58098 15.4347 8.59365C15.4676 8.60632 15.5028 8.61236 15.5381 8.61142C15.5734 8.61047 15.6081 8.60257 15.6403 8.58815C15.6726 8.57389 15.7018 8.55338 15.7262 8.52782C15.7505 8.50225 15.7696 8.47213 15.7823 8.43917C15.795 8.40622 15.801 8.37109 15.8001 8.33579C15.7991 8.30049 15.7913 8.26573 15.7769 8.23349L14.5177 5.40088C14.4964 5.35251 14.4612 5.31152 14.4167 5.28308C14.3721 5.25463 14.3201 5.24 14.2673 5.24101V5.24107ZM28.2733 5.25052C28.2204 5.24951 28.1685 5.26409 28.1239 5.29246C28.0793 5.32083 28.0441 5.36172 28.0226 5.41001L26.7597 8.24096C26.7453 8.27318 26.7373 8.30793 26.7363 8.34323C26.7354 8.37852 26.7414 8.41366 26.754 8.44663C26.7666 8.47961 26.7857 8.50976 26.81 8.53536C26.8343 8.56096 26.8634 8.5815 26.8957 8.59581C26.9279 8.61026 26.9627 8.6182 26.998 8.61918C27.0333 8.62016 27.0684 8.61417 27.1014 8.60153C27.1344 8.58889 27.1645 8.56987 27.1901 8.54555C27.2157 8.52123 27.2363 8.4921 27.2506 8.45982L28.5135 5.629C28.5279 5.59678 28.5359 5.56202 28.5368 5.52672C28.5378 5.49141 28.5318 5.45626 28.5192 5.42328C28.5066 5.39031 28.4875 5.36015 28.4632 5.33454C28.4389 5.30894 28.4097 5.28839 28.3775 5.27408C28.3446 5.25938 28.3092 5.25137 28.2733 5.25052ZM12.6852 6.0781C12.6318 6.07425 12.5784 6.08667 12.5321 6.11372C12.5015 6.13132 12.4747 6.15478 12.4531 6.18278C12.4316 6.21077 12.4158 6.24274 12.4067 6.27685C12.3975 6.31097 12.3952 6.34654 12.3999 6.38155C12.4045 6.41656 12.4161 6.4503 12.4338 6.48084L13.0857 7.61009C13.1033 7.64071 13.1268 7.66755 13.1548 7.68908C13.1828 7.7106 13.2147 7.72638 13.2489 7.73552C13.283 7.74466 13.3185 7.74696 13.3536 7.74231C13.3886 7.73766 13.4223 7.72614 13.4528 7.70841C13.4835 7.69082 13.5103 7.66735 13.5318 7.63936C13.5534 7.61136 13.5691 7.57939 13.5783 7.54528C13.5874 7.51117 13.5897 7.47559 13.5851 7.44059C13.5804 7.40558 13.5689 7.37184 13.5512 7.3413L12.8993 6.21211C12.8774 6.17392 12.8464 6.14171 12.809 6.11834C12.7717 6.09496 12.7292 6.08114 12.6853 6.0781H12.6852ZM29.8336 6.0781C29.7897 6.08108 29.7472 6.09487 29.7099 6.11824C29.6725 6.14161 29.6416 6.17383 29.6197 6.21205L28.9677 7.3413C28.9499 7.37185 28.9384 7.4056 28.9338 7.44061C28.9291 7.47562 28.9315 7.5112 28.9406 7.54531C28.9497 7.57942 28.9655 7.61139 28.9871 7.63938C29.0086 7.66737 29.0355 7.69083 29.0661 7.70841C29.0966 7.72614 29.1304 7.73766 29.1654 7.74231C29.2004 7.74696 29.236 7.74466 29.2701 7.73552C29.3042 7.72638 29.3362 7.7106 29.3642 7.68908C29.3922 7.66755 29.4156 7.64071 29.4332 7.61009L30.0852 6.48078C30.1029 6.45023 30.1144 6.41649 30.1191 6.38149C30.1237 6.34648 30.1214 6.3109 30.1123 6.27679C30.1031 6.24268 30.0873 6.21071 30.0658 6.18271C30.0443 6.15472 30.0175 6.13125 29.9868 6.11366C29.9405 6.08677 29.8871 6.07439 29.8336 6.0781ZM11.1489 7.03624C11.0954 7.03817 11.0437 7.05602 11.0003 7.08751C10.9717 7.10818 10.9474 7.13431 10.9289 7.16439C10.9104 7.19447 10.898 7.22791 10.8925 7.26278C10.8869 7.29766 10.8883 7.33329 10.8966 7.36762C10.9048 7.40196 10.9198 7.43432 10.9406 7.46286L12.7608 9.97202C12.7815 10.0006 12.8076 10.0249 12.8377 10.0434C12.8678 10.0619 12.9012 10.0743 12.9361 10.0798C12.971 10.0854 13.0066 10.084 13.041 10.0757C13.0753 10.0675 13.1077 10.0525 13.1362 10.0317C13.1648 10.011 13.1891 9.98492 13.2076 9.95485C13.2261 9.92477 13.2385 9.89134 13.244 9.85647C13.2496 9.82161 13.2482 9.78598 13.2399 9.75166C13.2317 9.71733 13.2167 9.68497 13.1959 9.65643L11.3757 7.14727C11.3499 7.11158 11.3157 7.08279 11.2762 7.06343C11.2367 7.04408 11.193 7.03476 11.149 7.0363L11.1489 7.03624ZM31.3891 7.0499C31.3451 7.04829 31.3014 7.05754 31.2619 7.07684C31.2223 7.09614 31.1882 7.12489 31.1624 7.16055L29.3387 9.66728C29.3179 9.6958 29.3029 9.72814 29.2946 9.76247C29.2863 9.79679 29.2849 9.83242 29.2904 9.8673C29.2959 9.90218 29.3082 9.93564 29.3267 9.96574C29.3451 9.99584 29.3694 10.022 29.398 10.0427C29.4265 10.0635 29.4588 10.0785 29.4931 10.0868C29.5275 10.0951 29.5631 10.0966 29.598 10.0911C29.6328 10.0856 29.6663 10.0733 29.6964 10.0548C29.7265 10.0364 29.7527 10.0122 29.7734 9.98358L31.5969 7.47691C31.6177 7.44839 31.6327 7.41604 31.641 7.38172C31.6493 7.3474 31.6508 7.31177 31.6453 7.27689C31.6398 7.24201 31.6274 7.20856 31.6089 7.17846C31.5905 7.14836 31.5663 7.12221 31.5377 7.10149C31.4944 7.06984 31.4427 7.05187 31.3891 7.0499ZM9.7758 8.18784C9.74052 8.18593 9.70522 8.19104 9.67194 8.20288C9.63865 8.21472 9.60805 8.23304 9.5819 8.25679C9.5556 8.28036 9.53423 8.30889 9.51899 8.34074C9.50375 8.37259 9.49496 8.40714 9.4931 8.4424C9.49125 8.47766 9.49639 8.51294 9.5082 8.54622C9.52002 8.57949 9.5383 8.6101 9.56198 8.63629L10.4344 9.60548C10.458 9.63178 10.4865 9.65316 10.5184 9.66839C10.5502 9.68363 10.5848 9.69242 10.6201 9.69427C10.6553 9.69611 10.6906 9.69097 10.7239 9.67914C10.7572 9.66731 10.7878 9.64903 10.8139 9.62534C10.8402 9.60176 10.8616 9.57323 10.8769 9.54137C10.8921 9.50951 10.9009 9.47496 10.9027 9.43969C10.9046 9.40443 10.8995 9.36914 10.8876 9.33586C10.8758 9.30258 10.8575 9.27197 10.8339 9.24577L9.96153 8.27665C9.93796 8.25034 9.90942 8.22895 9.87756 8.21371C9.8457 8.19846 9.81114 8.18967 9.77586 8.18784H9.7758ZM32.745 8.18975C32.6738 8.19358 32.6069 8.22555 32.5593 8.27863L31.6869 9.24756C31.6632 9.27375 31.6449 9.30436 31.633 9.33764C31.6212 9.37092 31.616 9.40621 31.6179 9.44149C31.6197 9.47676 31.6285 9.51133 31.6437 9.5432C31.659 9.57507 31.6804 9.60361 31.7067 9.62719C31.7329 9.65088 31.7635 9.66916 31.7968 9.68098C31.83 9.69281 31.8653 9.69794 31.9006 9.69609C31.9359 9.69424 31.9704 9.68544 32.0023 9.6702C32.0341 9.65496 32.0627 9.63357 32.0862 9.60727L32.9588 8.63834C32.9824 8.61213 33.0007 8.58151 33.0125 8.54823C33.0244 8.51495 33.0295 8.47966 33.0276 8.44438C33.0258 8.40911 33.017 8.37455 33.0018 8.34269C32.9865 8.31083 32.9651 8.28229 32.9388 8.25871C32.9127 8.23501 32.8821 8.21672 32.8488 8.20488C32.8156 8.19305 32.7803 8.18791 32.7451 8.18975H32.745ZM8.45973 9.45199C8.42447 9.45389 8.38994 9.46272 8.35809 9.47797C8.32624 9.49322 8.29771 9.51459 8.27413 9.54087C8.25044 9.56706 8.23216 9.59768 8.22033 9.63096C8.20851 9.66424 8.20338 9.69952 8.20523 9.73479C8.20708 9.77006 8.21588 9.80462 8.23112 9.83647C8.24636 9.86833 8.26775 9.89687 8.29405 9.92044L10.5979 11.9944C10.6241 12.018 10.6548 12.0363 10.688 12.0481C10.7213 12.0599 10.7566 12.0651 10.7918 12.0632C10.8271 12.0614 10.8616 12.0526 10.8935 12.0373C10.9254 12.0221 10.9539 12.0007 10.9775 11.9744C11.0011 11.9483 11.0194 11.9176 11.0313 11.8844C11.0431 11.8511 11.0482 11.8158 11.0464 11.7806C11.0445 11.7453 11.0357 11.7107 11.0205 11.6789C11.0053 11.647 10.9839 11.6185 10.9576 11.5949L8.65363 9.52101C8.62744 9.4973 8.59682 9.47901 8.56353 9.46717C8.53025 9.45534 8.49495 9.4502 8.45967 9.45206L8.45973 9.45199ZM34.0674 9.46112C34.0322 9.45919 33.9968 9.46427 33.9635 9.47607C33.9302 9.48788 33.8996 9.50617 33.8734 9.52989L31.5682 11.6022C31.5419 11.6258 31.5205 11.6543 31.5052 11.6861C31.4899 11.7179 31.4811 11.7525 31.4792 11.7877C31.4773 11.823 31.4824 11.8583 31.4942 11.8916C31.506 11.9249 31.5242 11.9555 31.5479 11.9817C31.5714 12.008 31.6 12.0294 31.6318 12.0447C31.6637 12.06 31.6982 12.0688 31.7335 12.0707C31.7688 12.0725 31.8041 12.0674 31.8374 12.0556C31.8707 12.0438 31.9013 12.0256 31.9275 12.0019L34.2329 9.92957C34.2592 9.90601 34.2806 9.8775 34.2958 9.84565C34.3111 9.81381 34.3199 9.77927 34.3218 9.74401C34.3237 9.70874 34.3186 9.67346 34.3068 9.64018C34.295 9.6069 34.2767 9.57627 34.2531 9.55006C34.2295 9.52374 34.201 9.50233 34.1691 9.48707C34.1373 9.47181 34.1027 9.46299 34.0674 9.46112ZM7.36528 10.8594C7.32129 10.8578 7.27758 10.867 7.23803 10.8864C7.19849 10.9057 7.16432 10.9345 7.13856 10.9702C7.11773 10.9987 7.10274 11.0311 7.09445 11.0654C7.08617 11.0998 7.08475 11.1354 7.09028 11.1703C7.09581 11.2052 7.10818 11.2386 7.12667 11.2687C7.14517 11.2988 7.16943 11.3249 7.19806 11.3456L8.25293 12.112C8.28145 12.1328 8.31379 12.1478 8.34812 12.1561C8.38245 12.1644 8.41807 12.1658 8.45295 12.1603C8.48783 12.1548 8.52128 12.1424 8.55137 12.1239C8.58146 12.1055 8.6076 12.0812 8.62829 12.0526C8.64911 12.0241 8.66409 11.9917 8.67238 11.9574C8.68066 11.9231 8.68209 11.8874 8.67657 11.8525C8.67105 11.8177 8.6587 11.7842 8.64023 11.7541C8.62175 11.724 8.59752 11.6979 8.56891 11.6772L7.51397 10.9108C7.47065 10.8792 7.41886 10.8613 7.36528 10.8594ZM35.1608 10.8691C35.1073 10.871 35.0555 10.8889 35.0122 10.9204L33.9568 11.6861C33.9282 11.7068 33.9039 11.7329 33.8854 11.763C33.8669 11.7931 33.8545 11.8265 33.849 11.8614C33.8434 11.8963 33.8448 11.9319 33.853 11.9663C33.8613 12.0006 33.8763 12.033 33.897 12.0615C33.9177 12.0902 33.9438 12.1144 33.9739 12.1329C34.004 12.1514 34.0374 12.1638 34.0723 12.1694C34.1072 12.1749 34.1428 12.1735 34.1772 12.1652C34.2115 12.157 34.2439 12.142 34.2724 12.1212L35.3278 11.3554C35.3565 11.3348 35.3807 11.3086 35.3992 11.2786C35.4177 11.2485 35.4301 11.2151 35.4356 11.1802C35.4411 11.1453 35.4397 11.1097 35.4315 11.0754C35.4232 11.041 35.4083 11.0087 35.3875 10.9802C35.3617 10.9445 35.3276 10.9157 35.288 10.8963C35.2485 10.8769 35.2048 10.8676 35.1608 10.8691ZM6.34258 12.3605C6.29866 12.3634 6.25616 12.3772 6.21884 12.4006C6.18153 12.424 6.15057 12.4562 6.1287 12.4944C6.11097 12.5249 6.09945 12.5587 6.0948 12.5937C6.09015 12.6287 6.09246 12.6643 6.10159 12.6984C6.11073 12.7325 6.12651 12.7645 6.14804 12.7925C6.16956 12.8205 6.1964 12.8439 6.22702 12.8615L8.91157 14.4115C8.94211 14.4292 8.97586 14.4407 9.01086 14.4454C9.04587 14.45 9.08145 14.4477 9.11556 14.4386C9.14967 14.4294 9.18164 14.4136 9.20963 14.3921C9.23763 14.3706 9.2611 14.3437 9.27869 14.3131C9.29642 14.2826 9.30794 14.2488 9.31259 14.2138C9.31724 14.1788 9.31493 14.1433 9.3058 14.1091C9.29666 14.075 9.28088 14.0431 9.25935 14.0151C9.23783 13.9871 9.21099 13.9636 9.18037 13.946L6.49582 12.3961C6.44944 12.3692 6.39607 12.3568 6.34258 12.3605ZM36.1764 12.3605C36.1229 12.3566 36.0695 12.369 36.0231 12.3961L33.3386 13.946C33.308 13.9636 33.2812 13.9871 33.2597 14.0151C33.2381 14.0431 33.2224 14.075 33.2132 14.1091C33.2041 14.1433 33.2018 14.1788 33.2064 14.2138C33.2111 14.2488 33.2226 14.2826 33.2403 14.3131C33.2579 14.3437 33.2814 14.3706 33.3094 14.3921C33.3374 14.4136 33.3693 14.4294 33.4035 14.4386C33.4376 14.4477 33.4731 14.45 33.5081 14.4454C33.5432 14.4407 33.5769 14.4292 33.6074 14.4115L36.2921 12.8616C36.3227 12.844 36.3495 12.8205 36.371 12.7925C36.3926 12.7645 36.4083 12.7326 36.4175 12.6985C36.4266 12.6643 36.4289 12.6288 36.4243 12.5938C36.4196 12.5588 36.4081 12.525 36.3904 12.4945C36.3684 12.4563 36.3374 12.4241 36.3001 12.4007C36.2628 12.3774 36.2203 12.3636 36.1764 12.3605V12.3605ZM5.56921 13.9605C5.51636 13.9593 5.46436 13.9739 5.41976 14.0022C5.37516 14.0306 5.33996 14.0716 5.31861 14.1199C5.30416 14.1522 5.2962 14.1869 5.29521 14.2222C5.29422 14.2575 5.30021 14.2927 5.31284 14.3256C5.32547 14.3586 5.34449 14.3888 5.36881 14.4144C5.39313 14.44 5.42226 14.4605 5.45454 14.4749L6.64547 15.0061C6.67769 15.0205 6.71245 15.0285 6.74775 15.0295C6.78305 15.0304 6.81819 15.0245 6.85117 15.0118C6.88415 14.9992 6.91431 14.9802 6.93992 14.9559C6.96552 14.9315 6.98608 14.9024 7.00039 14.8701C7.01485 14.8379 7.0228 14.8031 7.02379 14.7678C7.02477 14.7325 7.01878 14.6974 7.00614 14.6644C6.9935 14.6314 6.97448 14.6013 6.95015 14.5757C6.92583 14.5501 6.89669 14.5295 6.8644 14.5152L5.67354 13.984C5.64069 13.9693 5.60521 13.9613 5.56921 13.9606V13.9605ZM36.9548 13.9716C36.9188 13.9724 36.8833 13.9803 36.8505 13.995L35.6593 14.5254C35.627 14.5396 35.5978 14.5602 35.5735 14.5857C35.5491 14.6113 35.5301 14.6415 35.5174 14.6744C35.5047 14.7074 35.4987 14.7425 35.4997 14.7778C35.5006 14.8131 35.5085 14.8479 35.523 14.8801C35.5373 14.9125 35.5578 14.9416 35.5834 14.9659C35.609 14.9903 35.6392 15.0093 35.6722 15.022C35.7051 15.0347 35.7403 15.0407 35.7756 15.0397C35.8109 15.0388 35.8457 15.0308 35.8779 15.0164L37.0691 14.486C37.1014 14.4717 37.1305 14.4512 37.1548 14.4256C37.1792 14.4 37.1982 14.3699 37.2109 14.3369C37.2235 14.304 37.2295 14.2688 37.2286 14.2335C37.2276 14.1982 37.2197 14.1635 37.2052 14.1312C37.1839 14.0829 37.1487 14.042 37.1042 14.0136C37.0596 13.9852 37.0077 13.9706 36.9548 13.9716ZM4.88005 15.6329C4.82741 15.6373 4.77725 15.6572 4.73588 15.6901C4.6945 15.7229 4.66377 15.7673 4.64752 15.8175C4.63651 15.8511 4.63223 15.8865 4.63493 15.9217C4.63763 15.9569 4.64725 15.9912 4.66325 16.0227C4.67925 16.0542 4.70131 16.0822 4.72816 16.1051C4.75501 16.128 4.78613 16.1454 4.81972 16.1563L7.76706 17.1167C7.80062 17.1277 7.83602 17.132 7.87124 17.1293C7.90645 17.1266 7.94079 17.117 7.97227 17.101C8.00376 17.085 8.03177 17.0629 8.0547 17.036C8.07763 17.0092 8.09503 16.978 8.10589 16.9444C8.11691 16.9109 8.12118 16.8755 8.11848 16.8403C8.11578 16.8051 8.10615 16.7707 8.09014 16.7393C8.07414 16.7078 8.05207 16.6798 8.02521 16.6569C7.99836 16.6339 7.96724 16.6165 7.93364 16.6057L4.98629 15.6452C4.95207 15.634 4.91594 15.6298 4.88005 15.6328V15.6329ZM37.6427 15.6444C37.6069 15.6411 37.5707 15.6454 37.5366 15.6568L34.5886 16.615C34.555 16.6259 34.5238 16.6433 34.4969 16.6662C34.4701 16.6891 34.448 16.7171 34.432 16.7486C34.4159 16.78 34.4063 16.8144 34.4036 16.8496C34.4009 16.8848 34.4051 16.9202 34.4161 16.9538C34.427 16.9874 34.4444 17.0185 34.4673 17.0454C34.4902 17.0722 34.5182 17.0943 34.5497 17.1103C34.5811 17.1263 34.6155 17.136 34.6507 17.1387C34.6859 17.1414 34.7213 17.1371 34.7548 17.1261L37.7027 16.1679C37.7364 16.1571 37.7675 16.1397 37.7944 16.1168C37.8213 16.0939 37.8434 16.0659 37.8594 16.0344C37.8754 16.003 37.8851 15.9686 37.8878 15.9334C37.8906 15.8982 37.8863 15.8628 37.8753 15.8292C37.8591 15.7789 37.8283 15.7345 37.787 15.7016C37.7456 15.6687 37.6954 15.6488 37.6427 15.6443V15.6444ZM4.45069 17.3883C4.38876 17.3878 4.32858 17.4087 4.28035 17.4476C4.23212 17.4864 4.19882 17.5407 4.18611 17.6013C4.17869 17.6359 4.17817 17.6715 4.18458 17.7063C4.19098 17.741 4.20418 17.7741 4.22342 17.8037C4.24266 17.8333 4.26755 17.8589 4.29668 17.8788C4.32581 17.8988 4.3586 17.9128 4.39316 17.9201L5.66862 18.1912C5.70315 18.1986 5.7388 18.1991 5.77353 18.1927C5.80826 18.1863 5.84138 18.1731 5.871 18.1539C5.90061 18.1346 5.92614 18.1097 5.9461 18.0806C5.96607 18.0515 5.98008 18.0187 5.98734 17.9841C5.99476 17.9496 5.99528 17.9139 5.98888 17.8792C5.98248 17.8445 5.96929 17.8114 5.95006 17.7817C5.93082 17.7521 5.90593 17.7266 5.87681 17.7066C5.84769 17.6867 5.81491 17.6727 5.78035 17.6654L4.50496 17.3943C4.48711 17.3905 4.46893 17.3886 4.45069 17.3885V17.3883ZM38.0688 17.3908C38.0506 17.3913 38.0325 17.3932 38.0146 17.3966L36.7391 17.6676C36.7046 17.6748 36.6718 17.6888 36.6427 17.7088C36.6136 17.7287 36.5887 17.7543 36.5694 17.7839C36.5502 17.8135 36.537 17.8466 36.5306 17.8813C36.5242 17.916 36.5247 17.9516 36.5321 17.9861C36.5394 18.0207 36.5534 18.0535 36.5734 18.0826C36.5933 18.1118 36.6188 18.1367 36.6484 18.1559C36.6781 18.1752 36.7112 18.1884 36.7459 18.1948C36.7806 18.2012 36.8163 18.2007 36.8508 18.1933L38.1262 17.9224C38.1608 17.9151 38.1936 17.9011 38.2227 17.8811C38.2518 17.8611 38.2767 17.8356 38.296 17.806C38.3152 17.7764 38.3284 17.7433 38.3348 17.7086C38.3413 17.6738 38.3407 17.6382 38.3334 17.6036C38.3206 17.5431 38.2873 17.4887 38.2391 17.4499C38.1909 17.4111 38.1307 17.3901 38.0688 17.3906V17.3908ZM4.12564 19.1541C4.06405 19.16 4.0064 19.1871 3.96249 19.2307C3.91858 19.2743 3.89111 19.3318 3.88475 19.3933C3.88095 19.4284 3.88412 19.464 3.89408 19.4978C3.90405 19.5317 3.92061 19.5633 3.94281 19.5908C3.96502 19.6183 3.99243 19.6411 4.02348 19.6579C4.05453 19.6748 4.0886 19.6853 4.12373 19.6889L7.20636 20.0148C7.24148 20.0186 7.27701 20.0154 7.3109 20.0055C7.34479 19.9955 7.37638 19.9789 7.40385 19.9567C7.43132 19.9345 7.45413 19.9071 7.47096 19.876C7.4878 19.845 7.49834 19.8109 7.50197 19.7758C7.50577 19.7406 7.50258 19.7051 7.49261 19.6712C7.48263 19.6373 7.46606 19.6058 7.44384 19.5783C7.42162 19.5508 7.3942 19.528 7.36314 19.5112C7.33208 19.4944 7.29801 19.4838 7.26287 19.4802L4.18017 19.1543C4.16205 19.1524 4.14378 19.1524 4.12564 19.1541ZM38.396 19.1773C38.3779 19.1753 38.3596 19.1754 38.3414 19.1775L35.2584 19.4992C35.2232 19.5028 35.1892 19.5133 35.1581 19.5301C35.127 19.5469 35.0996 19.5697 35.0773 19.5971C35.0551 19.6245 35.0385 19.6561 35.0285 19.6899C35.0184 19.7238 35.0152 19.7593 35.019 19.7944C35.0225 19.8295 35.033 19.8636 35.0498 19.8947C35.0666 19.9258 35.0894 19.9532 35.1168 19.9755C35.1443 19.9977 35.1758 20.0143 35.2097 20.0243C35.2435 20.0344 35.2791 20.0376 35.3142 20.0338L38.3972 19.712C38.4323 19.7085 38.4664 19.698 38.4975 19.6812C38.5285 19.6644 38.556 19.6416 38.5782 19.6142C38.6005 19.5868 38.6171 19.5552 38.6271 19.5214C38.6371 19.4875 38.6404 19.452 38.6366 19.4169C38.6304 19.3553 38.603 19.2978 38.5591 19.2541C38.5153 19.2104 38.4577 19.1832 38.396 19.1772V19.1773ZM4.07348 20.9616C4.03816 20.9615 4.00317 20.9684 3.97052 20.9819C3.93787 20.9953 3.9082 21.0151 3.88323 21.0401C3.85825 21.0651 3.83846 21.0948 3.82498 21.1274C3.8115 21.1601 3.8046 21.1951 3.80469 21.2304C3.80462 21.2657 3.81153 21.3007 3.82501 21.3333C3.8385 21.3659 3.8583 21.3956 3.88327 21.4205C3.90825 21.4455 3.93791 21.4653 3.97055 21.4788C4.00319 21.4922 4.03817 21.4991 4.07348 21.499H5.37742C5.41273 21.4991 5.44771 21.4922 5.48035 21.4787C5.513 21.4653 5.54265 21.4455 5.56763 21.4205C5.5926 21.3955 5.6124 21.3659 5.62589 21.3332C5.63937 21.3006 5.64628 21.2656 5.64621 21.2303C5.64629 21.195 5.63939 21.16 5.6259 21.1274C5.61242 21.0947 5.59263 21.0651 5.56765 21.0401C5.54268 21.0151 5.51302 20.9953 5.48037 20.9818C5.44772 20.9683 5.41274 20.9614 5.37742 20.9615L4.07348 20.9616ZM37.1415 20.9616C37.1061 20.9615 37.0712 20.9684 37.0385 20.9819C37.0059 20.9953 36.9762 21.0151 36.9512 21.0401C36.9262 21.0651 36.9064 21.0948 36.893 21.1274C36.8795 21.1601 36.8726 21.1951 36.8727 21.2304C36.8726 21.2657 36.8795 21.3007 36.893 21.3333C36.9065 21.3659 36.9263 21.3956 36.9513 21.4205C36.9762 21.4455 37.0059 21.4653 37.0385 21.4788C37.0712 21.4922 37.1062 21.4991 37.1415 21.499H38.4454C38.4807 21.4991 38.5157 21.4922 38.5483 21.4787C38.581 21.4653 38.6106 21.4455 38.6356 21.4205C38.6606 21.3955 38.6804 21.3659 38.6938 21.3332C38.7073 21.3006 38.7142 21.2656 38.7141 21.2303C38.7142 21.195 38.7073 21.16 38.6938 21.1273C38.6804 21.0947 38.6606 21.065 38.6356 21.0401C38.6106 21.0151 38.5809 20.9953 38.5483 20.9818C38.5156 20.9683 38.4807 20.9614 38.4453 20.9615L37.1415 20.9616ZM7.25923 22.4265C7.2411 22.4246 7.22281 22.4247 7.2047 22.4268L4.12156 22.7485C4.08643 22.7521 4.05235 22.7626 4.02128 22.7794C3.99022 22.7962 3.96277 22.8189 3.94053 22.8464C3.91828 22.8738 3.90167 22.9053 3.89165 22.9392C3.88163 22.9731 3.87839 23.0086 3.88213 23.0437C3.88572 23.0788 3.89621 23.1129 3.913 23.144C3.92979 23.175 3.95255 23.2025 3.97997 23.2247C4.0074 23.247 4.03895 23.2636 4.07281 23.2736C4.10667 23.2836 4.14218 23.2868 4.1773 23.2831L7.26044 22.9613C7.29557 22.9577 7.32965 22.9472 7.36072 22.9305C7.39178 22.9137 7.41923 22.8909 7.44147 22.8635C7.46372 22.836 7.48033 22.8045 7.49035 22.7706C7.50037 22.7368 7.5036 22.7013 7.49986 22.6662C7.49357 22.6046 7.46616 22.5471 7.42229 22.5034C7.37841 22.4597 7.32078 22.4326 7.25916 22.4265H7.25923ZM35.2579 22.4456C35.1963 22.4515 35.1386 22.4786 35.0947 22.5222C35.0508 22.5658 35.0233 22.6233 35.017 22.6849C35.0132 22.72 35.0164 22.7555 35.0263 22.7894C35.0363 22.8232 35.0528 22.8548 35.075 22.8823C35.0972 22.9097 35.1246 22.9325 35.1557 22.9494C35.1867 22.9662 35.2208 22.9768 35.2559 22.9804L38.3386 23.3063C38.3737 23.3101 38.4092 23.3069 38.4431 23.2969C38.477 23.2869 38.5086 23.2704 38.536 23.2482C38.5635 23.226 38.5863 23.1985 38.6031 23.1675C38.62 23.1364 38.6305 23.1024 38.6341 23.0672C38.6379 23.0321 38.6347 22.9966 38.6248 22.9627C38.6148 22.9289 38.5982 22.8973 38.576 22.8698C38.5538 22.8424 38.5264 22.8196 38.4953 22.8028C38.4643 22.7859 38.4302 22.7754 38.3951 22.7718L35.3125 22.4458C35.2944 22.4439 35.276 22.4438 35.2579 22.4456ZM5.72244 24.2612C5.70421 24.2613 5.68603 24.2632 5.66817 24.2669L4.39271 24.5379C4.35815 24.5451 4.32537 24.5591 4.29624 24.5791C4.26711 24.5991 4.24221 24.6246 4.22297 24.6542C4.20373 24.6838 4.19053 24.717 4.18413 24.7517C4.17773 24.7864 4.17825 24.8221 4.18566 24.8566C4.19292 24.8912 4.20693 24.9239 4.2269 24.9531C4.24687 24.9822 4.27239 25.0071 4.302 25.0263C4.33162 25.0456 4.36474 25.0588 4.39947 25.0652C4.4342 25.0716 4.46985 25.0711 4.50438 25.0636L5.77991 24.7928C5.81446 24.7855 5.84724 24.7715 5.87636 24.7516C5.90548 24.7316 5.93038 24.7061 5.94961 24.6765C5.96884 24.6468 5.98204 24.6137 5.98843 24.579C5.99483 24.5443 5.99431 24.5086 5.9869 24.4741C5.97419 24.4135 5.94091 24.3592 5.89271 24.3203C5.84451 24.2815 5.78435 24.2605 5.72244 24.261V24.2612ZM36.7961 24.2637C36.7342 24.2632 36.674 24.2841 36.6258 24.3229C36.5776 24.3617 36.5443 24.4161 36.5316 24.4766C36.5242 24.5112 36.5236 24.5468 36.53 24.5815C36.5364 24.6163 36.5496 24.6494 36.5688 24.679C36.588 24.7086 36.6129 24.7342 36.642 24.7542C36.6711 24.7741 36.7039 24.7882 36.7385 24.7954L38.014 25.0665C38.0485 25.0739 38.0842 25.0744 38.1189 25.0681C38.1536 25.0617 38.1867 25.0485 38.2164 25.0293C38.246 25.01 38.2715 24.9852 38.2915 24.956C38.3115 24.9269 38.3255 24.8941 38.3328 24.8596C38.3402 24.8251 38.3407 24.7894 38.3343 24.7546C38.3279 24.7199 38.3147 24.6868 38.2955 24.6571C38.2763 24.6275 38.2514 24.602 38.2222 24.582C38.1931 24.562 38.1603 24.548 38.1257 24.5407L36.8503 24.2697C36.8325 24.2659 36.8143 24.2639 36.7961 24.2639V24.2637ZM7.87024 25.3222C7.83439 25.319 7.79826 25.3232 7.76412 25.3346L4.81608 26.2929C4.78248 26.3037 4.75135 26.3211 4.72448 26.344C4.69761 26.3669 4.67553 26.3949 4.65951 26.4264C4.64349 26.4578 4.63384 26.4922 4.63111 26.5274C4.62839 26.5626 4.63264 26.598 4.64363 26.6315C4.65447 26.6651 4.67185 26.6963 4.69475 26.7231C4.71766 26.75 4.74565 26.7721 4.77711 26.7881C4.80858 26.8042 4.8429 26.8138 4.87811 26.8165C4.91331 26.8193 4.94871 26.815 4.98227 26.804L7.93019 25.8457C7.9638 25.8349 7.99493 25.8175 8.02181 25.7946C8.04869 25.7717 8.07078 25.7437 8.08681 25.7122C8.10285 25.6808 8.11251 25.6464 8.11525 25.6112C8.11799 25.576 8.11374 25.5406 8.10277 25.5071C8.08653 25.4568 8.0558 25.4124 8.01443 25.3795C7.97306 25.3466 7.9229 25.3267 7.87024 25.3222V25.3222ZM34.6456 25.3317C34.5929 25.3362 34.5428 25.3561 34.5014 25.3889C34.46 25.4218 34.4293 25.4661 34.4131 25.5164C34.402 25.5499 34.3978 25.5853 34.4005 25.6205C34.4032 25.6557 34.4128 25.6901 34.4288 25.7216C34.4448 25.753 34.4669 25.781 34.4937 25.804C34.5206 25.8269 34.5517 25.8443 34.5853 25.8552L37.5326 26.8155C37.5661 26.8266 37.6015 26.8308 37.6368 26.8281C37.672 26.8254 37.7063 26.8158 37.7378 26.7998C37.7693 26.7838 37.7973 26.7617 37.8202 26.7349C37.8432 26.708 37.8606 26.6769 37.8714 26.6433C37.8824 26.6097 37.8867 26.5743 37.884 26.5391C37.8813 26.5039 37.8717 26.4696 37.8557 26.4381C37.8397 26.4066 37.8176 26.3786 37.7907 26.3557C37.7639 26.3328 37.7328 26.3154 37.6992 26.3045L34.7518 25.3441C34.7176 25.3329 34.6815 25.3287 34.6456 25.3317ZM6.74533 27.4211C6.70934 27.4218 6.67386 27.4297 6.641 27.4444L5.44969 27.9748C5.41741 27.9891 5.38827 28.0096 5.36394 28.0352C5.33962 28.0608 5.32058 28.0909 5.30794 28.1239C5.29529 28.1569 5.28928 28.192 5.29024 28.2273C5.29121 28.2626 5.29914 28.2974 5.31357 28.3296C5.32787 28.3619 5.3484 28.391 5.37398 28.4153C5.39957 28.4397 5.42971 28.4587 5.46268 28.4714C5.49564 28.484 5.53078 28.49 5.56608 28.4891C5.60138 28.4881 5.63614 28.4802 5.66837 28.4658L6.85968 27.9355C6.89196 27.9212 6.9211 27.9006 6.94543 27.875C6.96975 27.8494 6.98878 27.8193 7.00143 27.7863C7.01408 27.7534 7.02009 27.7182 7.01912 27.6829C7.01816 27.6476 7.01023 27.6129 6.9958 27.5807C6.97441 27.5323 6.93923 27.4914 6.89465 27.463C6.85008 27.4346 6.79811 27.42 6.74526 27.421L6.74533 27.4211ZM35.7691 27.4313C35.7163 27.4302 35.6643 27.4447 35.6197 27.473C35.5751 27.5014 35.5398 27.5423 35.5185 27.5907C35.504 27.6229 35.4961 27.6577 35.4951 27.693C35.4941 27.7283 35.5001 27.7634 35.5127 27.7964C35.5254 27.8294 35.5444 27.8595 35.5687 27.8851C35.5931 27.9108 35.6222 27.9313 35.6545 27.9456L36.8452 28.4768C36.8774 28.4913 36.9122 28.4992 36.9475 28.5002C36.9828 28.5012 37.018 28.4952 37.051 28.4826C37.084 28.47 37.1141 28.4509 37.1397 28.4266C37.1653 28.4023 37.1859 28.3731 37.2002 28.3408C37.2146 28.3086 37.2226 28.2738 37.2236 28.2386C37.2246 28.2033 37.2186 28.1681 37.2059 28.1351C37.1933 28.1022 37.1743 28.072 37.1499 28.0464C37.1256 28.0208 37.0965 28.0003 37.0642 27.986L35.8735 27.4548C35.8406 27.44 35.8051 27.4321 35.7691 27.4313ZM9.06468 28.0137C9.01118 28.0098 8.95776 28.0222 8.91145 28.0493L6.22696 29.5992C6.19634 29.6168 6.1695 29.6403 6.14797 29.6683C6.12645 29.6963 6.11067 29.7283 6.10153 29.7624C6.09239 29.7965 6.09008 29.8321 6.09474 29.8671C6.09939 29.9021 6.11091 29.9358 6.12863 29.9664C6.14623 29.997 6.16969 30.0238 6.19768 30.0453C6.22567 30.0668 6.25764 30.0826 6.29174 30.0917C6.32584 30.1009 6.36141 30.1032 6.39641 30.0985C6.43141 30.0939 6.46515 30.0824 6.49569 30.0647L9.18017 28.5149C9.21079 28.4973 9.23763 28.4738 9.25915 28.4458C9.28067 28.4178 9.29645 28.3858 9.30558 28.3517C9.31472 28.3176 9.31703 28.282 9.31238 28.247C9.30773 28.212 9.29622 28.1782 9.2785 28.1477C9.25659 28.1095 9.22562 28.0773 9.18832 28.0539C9.15101 28.0306 9.10853 28.0167 9.06461 28.0137H9.06468ZM33.4542 28.0137C33.4103 28.0167 33.3677 28.0304 33.3304 28.0538C33.2931 28.0772 33.2621 28.1094 33.2402 28.1476C33.2225 28.1782 33.2109 28.2119 33.2063 28.2469C33.2016 28.282 33.2039 28.3175 33.2131 28.3517C33.2222 28.3858 33.238 28.4178 33.2595 28.4458C33.281 28.4738 33.3079 28.4973 33.3385 28.5149L36.0231 30.0647C36.0536 30.0824 36.0874 30.0939 36.1224 30.0986C36.1574 30.1032 36.193 30.1009 36.2271 30.0918C36.2612 30.0826 36.2932 30.0668 36.3212 30.0453C36.3492 30.0238 36.3726 29.997 36.3902 29.9664C36.408 29.9358 36.4195 29.9021 36.4241 29.8671C36.4288 29.8321 36.4265 29.7965 36.4174 29.7624C36.4082 29.7283 36.3924 29.6963 36.3709 29.6683C36.3494 29.6403 36.3225 29.6168 36.2919 29.5992L33.6073 28.0493C33.561 28.0224 33.5077 28.01 33.4542 28.0137ZM8.39512 30.2882C8.34152 30.2901 8.28971 30.308 8.24636 30.3396L7.19098 31.1053C7.16235 31.126 7.13808 31.1521 7.11958 31.1822C7.10107 31.2123 7.08869 31.2457 7.08314 31.2806C7.0776 31.3155 7.07899 31.3511 7.08725 31.3854C7.09552 31.4198 7.11048 31.4521 7.13128 31.4807C7.15195 31.5093 7.17808 31.5335 7.20815 31.552C7.23822 31.5705 7.27166 31.5829 7.30652 31.5885C7.34139 31.594 7.37701 31.5926 7.41134 31.5844C7.44567 31.5761 7.47803 31.5611 7.50657 31.5404L8.56208 30.7746C8.5907 30.7539 8.61496 30.7278 8.63347 30.6977C8.65197 30.6676 8.66436 30.6342 8.66991 30.5993C8.67546 30.5645 8.67408 30.5289 8.66583 30.4945C8.65758 30.4602 8.64263 30.4278 8.62184 30.3993C8.59606 30.3636 8.56189 30.3348 8.52234 30.3154C8.48278 30.296 8.43907 30.2867 8.39506 30.2882H8.39512ZM34.1173 30.2973C34.0733 30.2957 34.0296 30.305 33.99 30.3243C33.9505 30.3436 33.9163 30.3724 33.8905 30.4081C33.8697 30.4366 33.8547 30.469 33.8464 30.5033C33.8382 30.5377 33.8368 30.5733 33.8423 30.6082C33.8478 30.6431 33.8602 30.6765 33.8787 30.7066C33.8972 30.7367 33.9214 30.7628 33.95 30.7835L35.0049 31.55C35.0334 31.5708 35.0658 31.5858 35.1001 31.5941C35.1344 31.6024 35.1701 31.6038 35.205 31.5982C35.2398 31.5927 35.2733 31.5803 35.3034 31.5619C35.3334 31.5434 35.3596 31.5191 35.3803 31.4905C35.4011 31.462 35.416 31.4296 35.4243 31.3953C35.4326 31.361 35.434 31.3254 35.4285 31.2905C35.423 31.2556 35.4106 31.2222 35.3922 31.1921C35.3737 31.162 35.3495 31.1359 35.3209 31.1152L34.266 30.3487C34.2227 30.3171 34.1709 30.2991 34.1173 30.2972V30.2973ZM10.7853 30.39C10.7501 30.3881 10.7148 30.3932 10.6815 30.405C10.6482 30.4168 10.6176 30.4351 10.5914 30.4588L8.28607 32.5311C8.25976 32.5547 8.23836 32.5832 8.2231 32.615C8.20784 32.6469 8.19902 32.6814 8.19715 32.7167C8.19527 32.7519 8.20038 32.7872 8.21218 32.8205C8.22397 32.8538 8.24223 32.8844 8.26589 32.9106C8.28945 32.9369 8.31796 32.9583 8.34981 32.9736C8.38165 32.9889 8.41619 32.9977 8.45145 32.9995C8.48672 33.0014 8.522 32.9963 8.55528 32.9845C8.58856 32.9727 8.61919 32.9545 8.6454 32.9308L10.9507 30.8585C10.977 30.8349 10.9984 30.8064 11.0137 30.7746C11.0289 30.7427 11.0377 30.7082 11.0396 30.6729C11.0415 30.6377 11.0364 30.6024 11.0246 30.5691C11.0128 30.5358 10.9945 30.5052 10.9709 30.479C10.9473 30.4527 10.9188 30.4312 10.887 30.416C10.8551 30.4007 10.8206 30.3919 10.7853 30.39ZM31.727 30.3974C31.6558 30.4013 31.589 30.4332 31.5413 30.4862C31.5176 30.5124 31.4993 30.5431 31.4875 30.5763C31.4757 30.6096 31.4705 30.6449 31.4724 30.6802C31.4743 30.7154 31.483 30.75 31.4983 30.7819C31.5135 30.8137 31.5349 30.8422 31.5612 30.8658L33.8651 32.9397C33.8913 32.9634 33.9219 32.9817 33.9552 32.9935C33.9885 33.0053 34.0238 33.0104 34.059 33.0086C34.0943 33.0067 34.1289 32.9979 34.1607 32.9827C34.1926 32.9675 34.2211 32.9461 34.2447 32.9198C34.2684 32.8936 34.2866 32.863 34.2985 32.8297C34.3103 32.7965 34.3154 32.7612 34.3136 32.7259C34.3117 32.6907 34.3029 32.6561 34.2877 32.6243C34.2724 32.5924 34.2511 32.5639 34.2248 32.5403L31.9208 30.4663C31.8946 30.4426 31.864 30.4244 31.8308 30.4125C31.7975 30.4007 31.7623 30.3956 31.727 30.3974H31.727ZM12.9725 32.3661C12.9285 32.3645 12.8847 32.3738 12.8452 32.3931C12.8056 32.4124 12.7714 32.4411 12.7456 32.4768L10.9221 34.9835C10.9013 35.012 10.8862 35.0443 10.8779 35.0786C10.8696 35.1129 10.8682 35.1486 10.8737 35.1835C10.8792 35.2183 10.8915 35.2518 10.9099 35.2819C10.9284 35.312 10.9526 35.3382 10.9812 35.3589C11.0097 35.3797 11.0421 35.3947 11.0764 35.403C11.1107 35.4113 11.1463 35.4128 11.1812 35.4073C11.2161 35.4018 11.2495 35.3895 11.2796 35.371C11.3098 35.3526 11.3359 35.3284 11.3566 35.2998L13.1802 32.793C13.2011 32.7645 13.2161 32.7322 13.2244 32.6979C13.2327 32.6635 13.2341 32.6279 13.2286 32.593C13.2232 32.5581 13.2108 32.5247 13.1924 32.4946C13.1739 32.4645 13.1497 32.4383 13.1211 32.4176C13.0778 32.386 13.026 32.368 12.9725 32.3661ZM29.5315 32.3774C29.478 32.3793 29.4261 32.3971 29.3828 32.4286C29.3542 32.4493 29.3299 32.4754 29.3114 32.5055C29.2929 32.5356 29.2805 32.569 29.275 32.6039C29.2694 32.6388 29.2708 32.6744 29.2791 32.7087C29.2873 32.743 29.3023 32.7754 29.3231 32.8039L31.1432 35.3131C31.1639 35.3417 31.19 35.366 31.2201 35.3845C31.2502 35.403 31.2836 35.4154 31.3185 35.421C31.3534 35.4265 31.389 35.4251 31.4233 35.4169C31.4577 35.4086 31.49 35.3937 31.5186 35.3729C31.5472 35.3522 31.5715 35.3261 31.59 35.296C31.6085 35.2659 31.6209 35.2325 31.6264 35.1976C31.632 35.1627 31.6306 35.1271 31.6223 35.0928C31.6141 35.0584 31.5991 35.026 31.5783 34.9975L29.7581 32.4883C29.7324 32.4527 29.6982 32.4239 29.6587 32.4045C29.6192 32.3852 29.5755 32.3758 29.5315 32.3774H29.5315ZM10.6184 32.7645C10.5472 32.7684 10.4804 32.8003 10.4327 32.8534L9.56025 33.8225C9.53657 33.8487 9.51829 33.8793 9.50646 33.9126C9.49464 33.9458 9.4895 33.9811 9.49134 34.0164C9.49319 34.0517 9.50198 34.0862 9.51721 34.1181C9.53245 34.1499 9.55382 34.1785 9.58011 34.202C9.6063 34.2257 9.63691 34.244 9.67019 34.2558C9.70347 34.2676 9.73875 34.2728 9.77401 34.2709C9.80928 34.2691 9.84383 34.2603 9.87568 34.245C9.90753 34.2298 9.93605 34.2084 9.95961 34.1821L10.8322 33.2131C10.8559 33.1869 10.8742 33.1563 10.886 33.123C10.8978 33.0897 10.9029 33.0544 10.9011 33.0192C10.8992 32.9839 10.8904 32.9493 10.8752 32.9175C10.86 32.8856 10.8386 32.8571 10.8123 32.8335C10.7861 32.8098 10.7555 32.7915 10.7222 32.7797C10.689 32.7679 10.6537 32.7627 10.6184 32.7646V32.7645ZM31.8989 32.7658C31.8637 32.7639 31.8284 32.769 31.7951 32.7808C31.7618 32.7927 31.7313 32.811 31.7051 32.8347C31.6788 32.8583 31.6575 32.8868 31.6422 32.9187C31.627 32.9505 31.6182 32.9851 31.6163 33.0203C31.6145 33.0556 31.6196 33.0909 31.6314 33.1241C31.6432 33.1574 31.6615 33.188 31.6852 33.2142L32.5575 34.1834C32.581 34.2097 32.6096 34.2311 32.6414 34.2463C32.6733 34.2616 32.7078 34.2704 32.7431 34.2722C32.7784 34.2741 32.8136 34.2689 32.8469 34.2571C32.8802 34.2453 32.9108 34.227 32.937 34.2033C32.9633 34.1797 32.9847 34.1512 32.9999 34.1193C33.0152 34.0875 33.024 34.0529 33.0258 34.0176C33.0277 33.9824 33.0225 33.9471 33.0107 33.9138C32.9989 33.8805 32.9806 33.8499 32.9569 33.8237L32.0846 32.8546C32.061 32.8283 32.0325 32.8069 32.0006 32.7916C31.9687 32.7764 31.9341 32.7676 31.8988 32.7658L31.8989 32.7658ZM15.519 33.8407C15.4661 33.8396 15.4141 33.8541 15.3696 33.8824C15.325 33.9108 15.2898 33.9518 15.2684 34.0001L14.0054 36.8311C13.991 36.8633 13.983 36.898 13.9821 36.9333C13.9811 36.9686 13.9871 37.0038 13.9997 37.0367C14.0124 37.0697 14.0314 37.0998 14.0557 37.1255C14.08 37.1511 14.1091 37.1716 14.1414 37.1859C14.1736 37.2004 14.2084 37.2083 14.2437 37.2093C14.279 37.2103 14.3141 37.2043 14.3471 37.1917C14.3801 37.179 14.4103 37.16 14.4359 37.1357C14.4615 37.1114 14.482 37.0823 14.4963 37.05L15.7593 34.2191C15.7738 34.1869 15.7817 34.1521 15.7827 34.1168C15.7837 34.0815 15.7777 34.0464 15.765 34.0134C15.7524 33.9804 15.7334 33.9502 15.7091 33.9246C15.6847 33.899 15.6556 33.8785 15.6233 33.8642C15.5904 33.8494 15.555 33.8415 15.519 33.8407ZM26.983 33.8485C26.947 33.8492 26.9115 33.8571 26.8786 33.8718C26.8463 33.8861 26.8171 33.9066 26.7928 33.9322C26.7684 33.9578 26.7494 33.9879 26.7367 34.0209C26.724 34.0538 26.718 34.089 26.7189 34.1243C26.7198 34.1596 26.7277 34.1943 26.7422 34.2266L28.0012 37.0592C28.0155 37.0915 28.036 37.1206 28.0616 37.145C28.0872 37.1693 28.1173 37.1884 28.1503 37.201C28.1833 37.2137 28.2184 37.2197 28.2537 37.2188C28.289 37.2179 28.3238 37.21 28.356 37.1955C28.3883 37.1813 28.4174 37.1608 28.4418 37.1352C28.4661 37.1096 28.4852 37.0795 28.4979 37.0465C28.5105 37.0136 28.5166 36.9785 28.5156 36.9432C28.5147 36.9079 28.5068 36.8731 28.4924 36.8409L27.2333 34.0083C27.212 33.96 27.1768 33.919 27.1323 33.8906C27.0877 33.8622 27.0358 33.8475 26.983 33.8485ZM13.2997 34.716C13.2557 34.719 13.2132 34.7328 13.1759 34.7562C13.1386 34.7795 13.1077 34.8117 13.0858 34.85L12.4339 35.9792C12.4161 36.0098 12.4046 36.0435 12.4 36.0785C12.3953 36.1135 12.3976 36.1491 12.4067 36.1832C12.4159 36.2173 12.4317 36.2493 12.4532 36.2773C12.4747 36.3053 12.5016 36.3287 12.5322 36.3463C12.5627 36.3641 12.5965 36.3756 12.6315 36.3802C12.6665 36.3849 12.7021 36.3826 12.7362 36.3734C12.7703 36.3643 12.8022 36.3485 12.8302 36.327C12.8582 36.3055 12.8817 36.2786 12.8993 36.248L13.5513 35.1187C13.569 35.0881 13.5805 35.0544 13.5852 35.0194C13.5898 34.9844 13.5875 34.9488 13.5784 34.9147C13.5692 34.8806 13.5534 34.8486 13.5319 34.8206C13.5104 34.7926 13.4835 34.7692 13.4529 34.7516C13.4065 34.7247 13.3532 34.7123 13.2997 34.716ZM29.2193 34.716C29.1658 34.7122 29.1125 34.7246 29.0662 34.7516C29.0355 34.7692 29.0087 34.7927 28.9872 34.8207C28.9657 34.8487 28.9499 34.8807 28.9407 34.9148C28.9316 34.9489 28.9293 34.9845 28.9339 35.0195C28.9386 35.0545 28.9501 35.0882 28.9678 35.1188L29.6198 36.248C29.6374 36.2786 29.6608 36.3055 29.6888 36.327C29.7168 36.3485 29.7488 36.3643 29.7829 36.3734C29.817 36.3826 29.8526 36.3849 29.8876 36.3802C29.9226 36.3756 29.9564 36.3641 29.9869 36.3463C30.0175 36.3287 30.0444 36.3053 30.0659 36.2773C30.0874 36.2493 30.1032 36.2173 30.1123 36.1832C30.1215 36.1491 30.1238 36.1135 30.1191 36.0785C30.1145 36.0435 30.1029 36.0098 30.0852 35.9792L29.4333 34.85C29.4114 34.8118 29.3804 34.7796 29.343 34.7562C29.3057 34.7329 29.2632 34.7191 29.2193 34.716ZM18.3306 34.7565C18.2687 34.756 18.2085 34.7769 18.1603 34.8157C18.1121 34.8545 18.0788 34.9088 18.0661 34.9694L17.4219 38.0017C17.4145 38.0362 17.414 38.0719 17.4204 38.1066C17.4268 38.1413 17.44 38.1744 17.4592 38.204C17.4785 38.2337 17.5034 38.2592 17.5325 38.2792C17.5616 38.2991 17.5944 38.3131 17.629 38.3204C17.6635 38.3278 17.6992 38.3283 17.7339 38.3219C17.7686 38.3155 17.8018 38.3023 17.8314 38.2831C17.861 38.2639 17.8865 38.239 17.9065 38.2098C17.9265 38.1807 17.9405 38.1479 17.9478 38.1133L18.592 35.0811C18.6004 35.0421 18.5999 35.0017 18.5907 34.9628C18.5815 34.924 18.5637 34.8877 18.5386 34.8566C18.5136 34.8255 18.4819 34.8004 18.4459 34.7831C18.4099 34.7658 18.3705 34.7568 18.3306 34.7567V34.7565ZM24.1789 34.7584C24.139 34.7585 24.0996 34.7675 24.0637 34.7848C24.0277 34.8021 23.996 34.8272 23.971 34.8582C23.9459 34.8893 23.9281 34.9256 23.9189 34.9644C23.9096 35.0032 23.9092 35.0436 23.9175 35.0826L24.5594 38.1153C24.5667 38.1499 24.5807 38.1827 24.6006 38.2118C24.6206 38.241 24.6461 38.2659 24.6757 38.2852C24.7053 38.3044 24.7384 38.3177 24.7731 38.3241C24.8078 38.3305 24.8435 38.33 24.878 38.3226C24.9126 38.3154 24.9454 38.3014 24.9746 38.2815C25.0037 38.2615 25.0286 38.236 25.0479 38.2064C25.0672 38.1768 25.0804 38.1437 25.0868 38.109C25.0932 38.0742 25.0927 38.0386 25.0853 38.004L24.4432 34.9715C24.4306 34.9109 24.3973 34.8566 24.3491 34.8177C24.301 34.7789 24.2408 34.7578 24.1789 34.7583V34.7584ZM21.2595 35.0642C21.2242 35.0642 21.1892 35.0711 21.1565 35.0845C21.1239 35.098 21.0942 35.1178 21.0693 35.1428C21.0443 35.1678 21.0245 35.1974 21.011 35.2301C20.9976 35.2627 20.9907 35.2977 20.9907 35.333V38.4328C20.9907 38.4682 20.9976 38.5031 21.011 38.5358C21.0245 38.5684 21.0443 38.5981 21.0693 38.6231C21.0943 38.6481 21.1239 38.6679 21.1566 38.6813C21.1892 38.6948 21.2242 38.7017 21.2595 38.7016C21.2948 38.7017 21.3298 38.6948 21.3625 38.6813C21.3951 38.6678 21.4247 38.648 21.4497 38.623C21.4747 38.5981 21.4945 38.5684 21.5079 38.5358C21.5214 38.5031 21.5283 38.4681 21.5282 38.4328V35.3331C21.5283 35.2978 21.5214 35.2628 21.5079 35.2301C21.4944 35.1975 21.4747 35.1678 21.4497 35.1429C21.4247 35.1179 21.3951 35.0981 21.3624 35.0846C21.3298 35.0711 21.2948 35.0642 21.2595 35.0643V35.0642ZM16.3264 36.066C16.2737 36.0704 16.2235 36.0904 16.1822 36.1233C16.1408 36.1561 16.11 36.2005 16.0938 36.2508L15.6907 37.4909C15.6797 37.5245 15.6755 37.5599 15.6782 37.5951C15.6809 37.6303 15.6906 37.6646 15.7066 37.6961C15.7226 37.7276 15.7447 37.7556 15.7716 37.7785C15.7985 37.8014 15.8296 37.8188 15.8632 37.8296C15.8968 37.8406 15.9322 37.8448 15.9674 37.8421C16.0026 37.8394 16.0369 37.8297 16.0684 37.8137C16.0999 37.7976 16.1279 37.7755 16.1508 37.7486C16.1737 37.7218 16.191 37.6906 16.2019 37.657L16.6049 36.417C16.6159 36.3834 16.6202 36.3481 16.6175 36.3129C16.6147 36.2776 16.6051 36.2433 16.5891 36.2119C16.573 36.1804 16.551 36.1524 16.5241 36.1295C16.4972 36.1066 16.4661 36.0892 16.4325 36.0784C16.3983 36.0672 16.3622 36.063 16.3264 36.066ZM26.1905 36.0666C26.1547 36.0634 26.1186 36.0675 26.0844 36.0789C26.0508 36.0897 26.0197 36.1071 25.9928 36.13C25.9659 36.1529 25.9438 36.1809 25.9278 36.2124C25.9117 36.2438 25.9021 36.2782 25.8993 36.3134C25.8966 36.3486 25.9008 36.384 25.9118 36.4176L26.3147 37.6577C26.3255 37.6913 26.3429 37.7224 26.3658 37.7493C26.3887 37.7762 26.4167 37.7983 26.4482 37.8143C26.4797 37.8303 26.514 37.84 26.5492 37.8427C26.5844 37.8454 26.6198 37.8412 26.6534 37.8302C26.687 37.8194 26.7182 37.802 26.745 37.7791C26.7719 37.7562 26.794 37.7282 26.8101 37.6968C26.8261 37.6653 26.8358 37.631 26.8385 37.5958C26.8413 37.5606 26.837 37.5252 26.8261 37.4916L26.423 36.2514C26.4068 36.2012 26.3761 36.1568 26.3347 36.1239C26.2934 36.091 26.2432 36.0711 26.1906 36.0666H26.1905ZM19.5726 36.7572C19.511 36.7632 19.4533 36.7903 19.4094 36.834C19.3655 36.8776 19.338 36.9351 19.3317 36.9967L19.1954 38.2935C19.1916 38.3286 19.1948 38.3641 19.2048 38.398C19.2148 38.4319 19.2314 38.4634 19.2536 38.4908C19.2758 38.5183 19.3033 38.5411 19.3343 38.5579C19.3654 38.5747 19.3994 38.5852 19.4346 38.5888C19.4697 38.5926 19.5052 38.5894 19.5391 38.5794C19.5729 38.5694 19.6045 38.5528 19.632 38.5306C19.6594 38.5084 19.6822 38.4809 19.699 38.4499C19.7158 38.4188 19.7264 38.3848 19.73 38.3496L19.8663 37.0529C19.8701 37.0178 19.8669 36.9823 19.8569 36.9484C19.8469 36.9145 19.8303 36.883 19.8081 36.8555C19.7859 36.8281 19.7584 36.8053 19.7274 36.7885C19.6963 36.7716 19.6622 36.7611 19.6271 36.7575C19.609 36.7556 19.5907 36.7555 19.5726 36.7572ZM22.9356 36.7585C22.9175 36.7566 22.8991 36.7567 22.881 36.7588C22.8458 36.7624 22.8118 36.7728 22.7807 36.7896C22.7496 36.8064 22.7222 36.8292 22.6999 36.8566C22.6777 36.884 22.6611 36.9156 22.6511 36.9495C22.6411 36.9833 22.6378 37.0188 22.6416 37.0539L22.777 38.3509C22.7806 38.386 22.7911 38.4201 22.8079 38.4512C22.8247 38.4822 22.8475 38.5097 22.8749 38.5319C22.9023 38.5541 22.9339 38.5707 22.9677 38.5807C23.0016 38.5907 23.0371 38.594 23.0722 38.5902C23.1073 38.5866 23.1414 38.5761 23.1725 38.5593C23.2036 38.5425 23.231 38.5198 23.2533 38.4923C23.2755 38.4649 23.2921 38.4334 23.3021 38.3995C23.3121 38.3656 23.3154 38.3301 23.3116 38.295L23.1763 36.9981C23.17 36.9366 23.1426 36.879 23.0987 36.8354C23.0548 36.7917 22.9972 36.7645 22.9356 36.7585H22.9356Z" fill="#F4F2F3"/>
<g opacity="0.409" filter="url(#filter0_f_3581_136626)">
<path d="M33.8548 10.4795L19.1515 19.0222L9.85498 33.6575L23.455 23.5841L33.8548 10.4795Z" fill="black"/>
</g>
<path d="M23.3664 23.4359L19.1519 19.0224L34.1022 8.96533L23.3664 23.4359Z" fill="#FF5150"/>
<path d="M23.3663 23.436L19.1518 19.0225L8.41602 33.4931L23.3663 23.436Z" fill="#F1F1F1"/>
<path opacity="0.243" d="M8.41602 33.493L23.3663 23.4359L34.1022 8.96533L8.41602 33.493Z" fill="black"/>
<defs>
<filter id="filter0_f_3581_136626" x="4.39597" y="5.02048" width="34.918" height="34.0962" filterUnits="userSpaceOnUse" color-interpolation-filters="sRGB">
<feFlood flood-opacity="0" result="BackgroundImageFix"/>
<feBlend mode="normal" in="SourceGraphic" in2="BackgroundImageFix" result="shape"/>
<feGaussianBlur stdDeviation="2.72951" result="effect1_foregroundBlur_3581_136626"/>
</filter>
<linearGradient id="paint0_linear_3581_136626" x1="21.2586" y1="41.2291" x2="21.2586" y2="1.22939" gradientUnits="userSpaceOnUse">
<stop stop-color="#BDBDBD"/>
<stop offset="1" stop-color="white"/>
</linearGradient>
<radialGradient id="paint1_radial_3581_136626" cx="0" cy="0" r="1" gradientUnits="userSpaceOnUse" gradientTransform="translate(21.3421 18.5424) scale(20 19.9999)">
<stop stop-color="#06C2E7"/>
<stop offset="0.25" stop-color="#0DB8EC"/>
<stop offset="0.5" stop-color="#12AEF1"/>
<stop offset="0.75" stop-color="#1F86F9"/>
<stop offset="1" stop-color="#107DDD"/>
</radialGradient>
</defs>
</svg>
