<svg width="31" height="30" viewBox="0 0 31 30" fill="none" xmlns="http://www.w3.org/2000/svg">
<path d="M19.3485 11.1641C20.3655 11.1641 21.2413 10.5237 21.6085 9.63853H24.7067C25.1775 9.63853 25.573 9.22419 25.573 8.7251C25.573 8.226 25.1775 7.82108 24.7067 7.82108H21.6085C21.2507 6.92648 20.3749 6.28613 19.3485 6.28613C18.3221 6.28613 17.4463 6.92648 17.0884 7.82108H7.003C6.50391 7.82108 6.1084 8.226 6.1084 8.7251C6.1084 9.22419 6.50391 9.63853 7.003 9.63853H17.0884C17.4557 10.5237 18.3315 11.1641 19.3485 11.1641ZM19.3485 9.88337C18.6987 9.88337 18.1902 9.36544 18.1902 8.7251C18.1902 8.06592 18.6987 7.55741 19.3485 7.55741C20.0077 7.55741 20.5068 8.06592 20.5068 8.7251C20.5068 9.36544 20.0077 9.88337 19.3485 9.88337ZM6.97475 13.6972C6.50391 13.6972 6.1084 14.1021 6.1084 14.6012C6.1084 15.0909 6.50391 15.5052 6.97475 15.5052H10.1765C10.5437 16.4092 11.4195 17.0402 12.4459 17.0402C13.463 17.0402 14.3387 16.4092 14.706 15.5052H24.6784C25.1775 15.5052 25.573 15.1003 25.573 14.6012C25.573 14.1021 25.1775 13.6972 24.6784 13.6972H14.706C14.3387 12.8026 13.463 12.1717 12.4459 12.1717C11.4195 12.1717 10.5437 12.8026 10.1765 13.6972H6.97475ZM12.4459 15.7689C11.7962 15.7689 11.2783 15.251 11.2783 14.6012C11.2783 13.942 11.7962 13.4429 12.4459 13.4429C13.0957 13.4429 13.6042 13.942 13.6042 14.6012C13.6042 15.251 13.0957 15.7689 12.4459 15.7689ZM19.3485 22.9163C20.3749 22.9163 21.2507 22.2759 21.6085 21.3813H24.7067C25.1775 21.3813 25.573 20.9764 25.573 20.4773C25.573 19.9688 25.1775 19.5733 24.7067 19.5733H21.6085C21.2507 18.6787 20.3749 18.0384 19.3485 18.0384C18.3315 18.0384 17.4463 18.6787 17.0884 19.5733H7.003C6.50391 19.5733 6.1084 19.9782 6.1084 20.4773C6.1084 20.967 6.50391 21.3813 7.003 21.3813H17.0884C17.4463 22.2759 18.3221 22.9163 19.3485 22.9163ZM19.3485 21.6356C18.6987 21.6356 18.1902 21.1177 18.1902 20.4773C18.1902 19.8181 18.6987 19.3191 19.3485 19.3191C20.0077 19.3191 20.5068 19.8181 20.5068 20.4773C20.5068 21.1177 20.0077 21.6356 19.3485 21.6356Z" />
</svg>
