<svg width="25" height="30" viewBox="0 0 25 30" fill="none" xmlns="http://www.w3.org/2000/svg">
<g clip-path="url(#clip0_145_37386)">
<path d="M12.3188 0.37134C15.8142 0.370197 18.5569 0.860889 20.6048 1.95047L20.6749 1.9884L20.7405 2.01634C23.0219 3.01363 24.5448 5.45816 24.5764 8.20536L24.5769 8.29221V14.4719C24.5769 18.3116 23.0656 21.655 20.523 24.4674C18.8042 26.3685 16.7813 27.8604 14.7237 28.9985C13.2043 29.8386 11.435 29.8386 9.91533 28.9982C7.8581 27.8604 5.83511 26.3685 4.11641 24.4674C1.57379 21.655 0.0625 18.3116 0.0625 14.4719V8.29221C0.0625 5.50977 1.59344 3.02412 3.89886 2.01634L3.96572 1.98775L4.03698 1.94944C6.05468 0.878373 8.74772 0.386497 12.1716 0.3717L12.3188 0.37134ZM11.6369 9.17611C10.4168 9.23935 8.99028 9.53255 8.69617 10.4924C8.4599 11.2642 8.97113 11.8774 9.45556 12.0675C9.93551 12.2561 10.5464 12.2579 11.1647 12.2478L11.3335 12.2449C11.4741 12.2424 11.6145 12.2402 11.7533 12.2402C14.2536 12.2402 16.2599 12.5508 17.518 13.9451C18.2704 14.7789 18.9617 16.0998 18.9203 17.8072C18.8008 22.7028 14.4746 24.2563 9.76729 23.6549C8.77731 23.5285 7.88157 23.3136 7.0454 23.0307C8.06266 24.0005 9.11955 24.7742 10.0177 25.3518L10.2078 25.4726C10.239 25.4923 10.2701 25.5116 10.3009 25.5308L10.4828 25.6427L10.6588 25.7484L10.8285 25.8483L10.9913 25.9421C11.0178 25.9573 11.044 25.9722 11.07 25.9867L11.2217 26.0716C11.9184 26.4567 12.721 26.4567 13.4176 26.0716C13.4423 26.0579 13.4673 26.0441 13.4926 26.0299L13.6481 25.9421L13.8109 25.8483L13.9805 25.7484L14.1565 25.6427L14.3385 25.5308C14.3693 25.5116 14.4003 25.4923 14.4316 25.4726L14.6216 25.3518C17.0168 23.8114 20.5406 20.877 21.4308 16.5485L21.4343 16.5723C21.2518 15.3084 20.8473 14.2839 20.3422 13.2759C20.0152 12.8338 19.7636 12.3636 19.4462 11.9597C19.1328 11.56 18.7089 11.2298 18.2972 10.9456C17.4544 10.363 16.5525 9.88686 15.3761 9.58602C14.3076 9.31318 13.0293 9.10441 11.6369 9.17611ZM12.1823 3.63975C11.8173 3.64136 11.463 3.64886 11.1194 3.66225L10.8637 3.67339L10.612 3.68677C8.23985 3.82421 6.41016 4.26103 5.12291 4.99722C3.85415 5.46997 2.99836 6.79723 2.99836 8.29221V14.4719C2.99836 14.6322 3.002 14.7909 3.00914 14.9481L2.99238 14.9135C3.29826 15.5533 3.66731 16.1229 4.10109 16.6217C5.17566 17.8579 6.87982 18.8321 8.69693 19.1898C9.63786 19.3748 10.6634 19.5563 11.813 19.5563C11.86 19.5563 11.9071 19.5563 11.9545 19.556L12.0493 19.5553C12.2076 19.5538 12.3673 19.55 12.526 19.5426L12.6211 19.5378L12.716 19.5319C13.867 19.4542 14.9234 19.1395 15.0264 17.9164C15.0276 17.9024 15.0268 17.8871 15.0264 17.8731C14.9835 16.9633 14.1644 16.5462 13.2346 16.5135C13.0398 16.5068 12.8424 16.5017 12.6446 16.4975L12.3478 16.4916C11.6558 16.4788 10.972 16.4705 10.3911 16.4274C8.49359 16.2861 7.00083 15.695 6.00936 14.6363C5.1255 13.5624 4.5277 12.1943 4.74369 10.2989C4.93288 8.64232 5.67618 7.4245 6.65196 6.5873C7.60589 5.76878 8.92709 5.25704 10.5275 5.05506C12.0807 4.85945 13.8561 4.90274 15.3959 5.22777C16.8358 5.5316 18.1831 5.97925 19.3297 6.69466C20.1408 7.20088 20.9418 7.80652 21.6411 8.51502V8.29221C21.6411 6.79723 20.7853 5.46997 19.5165 4.99722C17.9356 4.09096 15.5367 3.63837 12.3197 3.6394L12.1823 3.63975Z" fill="url(#paint0_linear_145_37386)"/>
</g>
<defs>
<linearGradient id="paint0_linear_145_37386" x1="23.0507" y1="0.371337" x2="-2.76545" y2="25.079" gradientUnits="userSpaceOnUse">
<stop stop-color="#DD533D"/>
<stop offset="1" stop-color="#C53E38"/>
</linearGradient>
<clipPath id="clip0_145_37386">
<rect width="24.5144" height="29.2571" fill="white" transform="translate(0.0625 0.371338)"/>
</clipPath>
</defs>
</svg>
