<svg width="240" height="70" viewBox="0 0 240 70" fill="none" xmlns="http://www.w3.org/2000/svg">
<g clip-path="url(#clip0_270_380)">
<path d="M32.7584 0.532109C41.8459 0.52947 48.9769 1.66253 54.3012 4.17853L54.4837 4.26611L54.6542 4.33064C60.5856 6.63351 64.5453 12.2783 64.6272 18.6219L64.6284 18.8224V33.0921C64.6284 41.9584 60.6991 49.6787 54.0885 56.173C49.6201 60.563 44.3605 64.0079 39.0109 66.6359C35.0607 68.5757 30.4606 68.5757 26.5095 66.6355C21.1609 64.0079 15.9012 60.563 11.4327 56.173C4.82208 49.6787 0.892841 41.9584 0.892841 33.0921V18.8224C0.892841 12.3974 4.87319 6.65773 10.8671 4.33062L11.0409 4.26459L11.2262 4.17614C16.4721 1.70291 23.4737 0.567099 32.3756 0.532932L32.7584 0.532109ZM30.9854 20.8635C27.8131 21.0095 24.1043 21.6866 23.3397 23.9029C22.7255 25.6852 24.0545 27.1011 25.3141 27.5401C26.5619 27.9756 28.1501 27.9797 29.7579 27.9564L30.1964 27.9497C30.5621 27.944 30.9272 27.9389 31.2881 27.9389C37.7887 27.9389 43.0049 28.656 46.2757 31.8756C48.2322 33.8011 50.0294 36.8514 49.9218 40.794C49.6111 52.0982 38.3632 55.6855 26.1245 54.297C23.5506 54.005 21.2219 53.5087 19.0479 52.8555C21.6927 55.095 24.4405 56.8814 26.7756 58.2153L27.2698 58.4943C27.3511 58.5397 27.4317 58.5845 27.5118 58.6286L27.9848 58.887L28.4425 59.1314L28.8835 59.3617L29.3067 59.5785C29.3759 59.6134 29.444 59.6477 29.5115 59.6814L29.9061 59.8773C31.7171 60.7667 33.8041 60.7667 35.6152 59.8773C35.6793 59.8459 35.7442 59.8137 35.81 59.7812L36.2145 59.5785L36.6377 59.3617L37.0787 59.1314L37.5364 58.887L38.0094 58.6286C38.0895 58.5845 38.1702 58.5397 38.2514 58.4943L38.7456 58.2153C44.9727 54.6584 54.1343 47.8824 56.4489 37.8872L56.4579 37.9424C55.9835 35.0237 54.9318 32.6582 53.6187 30.3306C52.7684 29.3096 52.1141 28.2239 51.2887 27.2912C50.4743 26.3682 49.3721 25.6058 48.3017 24.9494C46.1104 23.6041 43.7655 22.5046 40.707 21.81C37.9292 21.1801 34.6056 20.6979 30.9854 20.8635ZM32.4035 8.07931C31.4544 8.08301 30.5333 8.10031 29.64 8.13125L28.9751 8.15699L28.3206 8.18786C22.1532 8.50525 17.3963 9.51392 14.0495 11.2139C10.7508 12.3055 8.52585 15.3703 8.52585 18.8224V33.0921C8.52585 33.4623 8.53533 33.8287 8.55391 34.1916L8.51033 34.1119C9.30559 35.5893 10.2651 36.9044 11.3929 38.0564C14.1867 40.9106 18.6174 43.1603 23.3417 43.9863C25.7881 44.4135 28.4545 44.8329 31.4435 44.8329C31.5654 44.8329 31.6881 44.8329 31.8112 44.8322L32.0575 44.8304C32.4692 44.8266 32.8843 44.8183 33.297 44.8014L33.5444 44.7899L33.7909 44.7765C36.7837 44.5969 39.5301 43.8705 39.798 41.0459C39.801 41.0135 39.799 40.9782 39.798 40.9459C39.6865 38.8453 37.5567 37.882 35.1393 37.8065C34.6328 37.7909 34.1196 37.7793 33.6053 37.7694L32.8337 37.756C31.0346 37.7264 29.2568 37.7071 27.7466 37.6077C22.8131 37.2815 18.932 35.9165 16.3542 33.472C14.0563 30.9919 12.5021 27.833 13.0636 23.456C13.5555 19.6309 15.488 16.8188 18.025 14.8856C20.5051 12.9955 23.9402 11.8139 28.1009 11.3475C32.1394 10.8958 36.7552 10.9957 40.7588 11.7463C44.5025 12.4478 48.0052 13.4815 50.9862 15.1335C53.0952 16.3024 55.1776 17.7009 56.9957 19.337V18.8224C56.9957 15.3703 54.7703 12.3055 51.4718 11.2139C47.3616 9.12121 41.1247 8.07611 32.7606 8.0785L32.4035 8.07931Z" fill="#C85743"/>
<path d="M97.2291 52.3779C94.7753 52.3779 92.6083 51.9677 90.7281 51.1472C88.8479 50.2952 87.366 49.0961 86.2825 47.5499C85.199 45.9721 84.6413 44.063 84.6095 41.8226H91.0627C91.1264 43.3688 91.6841 44.6784 92.7358 45.7512C93.8193 46.7926 95.3011 47.3132 97.1813 47.3132C98.8066 47.3132 100.097 46.9346 101.053 46.1772C102.009 45.3883 102.487 44.347 102.487 43.0532C102.487 41.6964 102.057 40.6392 101.197 39.8819C100.368 39.1246 99.2527 38.5092 97.8505 38.0359C96.4484 37.5626 94.9506 37.0577 93.3572 36.5212C90.7759 35.6377 88.8001 34.5017 87.4298 33.1132C86.0913 31.7248 85.4221 29.8788 85.4221 27.5752C85.3902 25.6188 85.8523 23.9464 86.8084 22.5579C87.7963 21.1379 89.1347 20.0492 90.8237 19.2919C92.5127 18.503 94.4566 18.1085 96.6555 18.1085C98.8862 18.1085 100.846 18.503 102.535 19.2919C104.256 20.0807 105.594 21.1852 106.55 22.6052C107.538 24.0252 108.064 25.7135 108.128 27.6699H101.579C101.547 26.5024 101.085 25.4768 100.193 24.5932C99.3324 23.6781 98.1214 23.2206 96.5599 23.2206C95.2214 23.189 94.0901 23.5204 93.166 24.2146C92.2737 24.8772 91.8275 25.8555 91.8275 27.1492C91.8275 28.2537 92.1781 29.1372 92.8792 29.7999C93.5803 30.431 94.5363 30.9675 95.7473 31.4092C96.9582 31.851 98.3445 32.3244 99.906 32.8292C101.563 33.3972 103.077 34.0599 104.447 34.8172C105.817 35.5746 106.917 36.5844 107.745 37.8466C108.574 39.0772 108.988 40.6708 108.988 42.6272C108.988 44.3628 108.542 45.9721 107.65 47.4552C106.758 48.9384 105.435 50.1375 103.682 51.0526C101.93 51.9361 99.7785 52.3779 97.2291 52.3779Z" fill="#040415"/>
<path d="M124.078 51.8099C121.593 51.8099 119.601 51.2103 118.103 50.0112C116.605 48.8121 115.856 46.6821 115.856 43.6212V33.3972H111.793V28.3326H115.856L116.573 22.0372H121.975V28.3326H128.38V33.3972H121.975V43.6686C121.975 44.8046 122.214 45.5935 122.692 46.0352C123.202 46.4454 124.062 46.6506 125.273 46.6506H128.237V51.8099H124.078Z" fill="#040415"/>
<path d="M141.139 52.3779C139.099 52.3779 137.426 52.0623 136.12 51.4312C134.813 50.7685 133.841 49.9007 133.204 48.8279C132.566 47.755 132.248 46.5716 132.248 45.2779C132.248 43.1005 133.108 41.3334 134.829 39.9765C136.55 38.6196 139.131 37.9412 142.573 37.9412H148.596V37.3732C148.596 35.7639 148.134 34.5805 147.21 33.8232C146.285 33.0659 145.138 32.6872 143.768 32.6872C142.525 32.6872 141.441 32.987 140.517 33.5865C139.593 34.1545 139.019 35.0065 138.796 36.1425H132.821C132.981 34.4385 133.554 32.9554 134.542 31.6932C135.562 30.431 136.868 29.4685 138.462 28.8059C140.055 28.1116 141.84 27.7645 143.816 27.7645C147.194 27.7645 149.855 28.6007 151.798 30.2732C153.742 31.9456 154.714 34.3123 154.714 37.3732V51.8099H149.504L148.93 48.0232C148.229 49.2854 147.241 50.3267 145.967 51.1472C144.724 51.9676 143.115 52.3779 141.139 52.3779ZM142.525 47.6445C144.278 47.6445 145.632 47.0765 146.588 45.9405C147.576 44.8045 148.197 43.4003 148.452 41.7279H143.242C141.617 41.7279 140.454 42.0276 139.752 42.6272C139.051 43.1952 138.701 43.9052 138.701 44.7572C138.701 45.6723 139.051 46.3823 139.752 46.8872C140.454 47.3921 141.378 47.6445 142.525 47.6445Z" fill="#040415"/>
<path d="M159.884 51.8099V28.3325H165.286L165.764 32.3085C166.496 30.9201 167.548 29.8156 168.918 28.9952C170.321 28.1747 171.962 27.7645 173.842 27.7645C176.774 27.7645 179.052 28.6796 180.678 30.5099C182.303 32.3401 183.116 35.0223 183.116 38.5565V51.8099H176.997V39.1245C176.997 37.105 176.583 35.5587 175.754 34.4859C174.926 33.413 173.635 32.8765 171.882 32.8765C170.161 32.8765 168.743 33.4761 167.628 34.6752C166.544 35.8743 166.003 37.5467 166.003 39.6925V51.8099H159.884Z" fill="#040415"/>
<path d="M198.718 52.3779C196.487 52.3779 194.496 51.8415 192.743 50.7686C190.99 49.6957 189.604 48.2284 188.584 46.3666C187.564 44.5048 187.054 42.3906 187.054 40.0239C187.054 37.6572 187.564 35.5588 188.584 33.7286C189.604 31.8668 190.99 30.4152 192.743 29.3739C194.496 28.301 196.487 27.7646 198.718 27.7646C200.503 27.7646 202.064 28.0959 203.403 28.7586C204.741 29.4213 205.824 30.3521 206.653 31.5512V17.7299H212.772V51.8099H207.322L206.653 48.4492C205.888 49.4906 204.868 50.4057 203.594 51.1946C202.351 51.9835 200.726 52.3779 198.718 52.3779ZM200.009 47.0766C201.984 47.0766 203.594 46.4297 204.837 45.1359C206.111 43.8106 206.749 42.1224 206.749 40.0713C206.749 38.0201 206.111 36.3477 204.837 35.0539C203.594 33.7286 201.984 33.0659 200.009 33.0659C198.065 33.0659 196.455 33.7128 195.181 35.0066C193.906 36.3004 193.269 37.9728 193.269 40.0239C193.269 42.075 193.906 43.7632 195.181 45.0886C196.455 46.4139 198.065 47.0766 200.009 47.0766Z" fill="#040415"/>
<path d="M228.132 52.3779C226.029 52.3779 224.18 52.0465 222.587 51.3839C220.994 50.6896 219.719 49.743 218.763 48.5439C217.807 47.3447 217.233 45.9563 217.042 44.3785H223.208C223.4 45.2936 223.909 46.0825 224.738 46.7452C225.598 47.3763 226.698 47.6919 228.036 47.6919C229.375 47.6919 230.347 47.4236 230.952 46.8872C231.59 46.3507 231.908 45.7354 231.908 45.0412C231.908 44.0314 231.462 43.353 230.57 43.0059C229.678 42.6272 228.435 42.2643 226.841 41.9172C225.822 41.6963 224.786 41.4281 223.734 41.1125C222.683 40.797 221.711 40.4025 220.818 39.9292C219.958 39.4243 219.257 38.7932 218.715 38.0359C218.173 37.247 217.902 36.2845 217.902 35.1485C217.902 33.0659 218.731 31.3145 220.388 29.8945C222.077 28.4745 224.435 27.7645 227.463 27.7645C230.267 27.7645 232.498 28.4114 234.155 29.7052C235.844 30.999 236.848 32.7819 237.166 35.0539H231.382C231.032 33.3183 229.709 32.4505 227.415 32.4505C226.268 32.4505 225.375 32.6714 224.738 33.1132C224.133 33.555 223.83 34.1072 223.83 34.7699C223.83 35.4641 224.292 36.0163 225.216 36.4265C226.14 36.8368 227.367 37.2154 228.897 37.5625C230.554 37.9412 232.068 38.3672 233.438 38.8405C234.84 39.2823 235.955 39.9607 236.784 40.8759C237.613 41.7594 238.027 43.0374 238.027 44.7099C238.059 46.1614 237.676 47.471 236.88 48.6385C236.083 49.8061 234.936 50.7212 233.438 51.3839C231.94 52.0465 230.171 52.3779 228.132 52.3779Z" fill="#040415"/>
</g>
<defs>
<clipPath id="clip0_270_380">
<rect width="239.008" height="69.0278" fill="white" transform="translate(0.892841 0.532104)"/>
</clipPath>
</defs>
</svg>
