<svg width="63" height="67" viewBox="0 0 63 67" fill="none" xmlns="http://www.w3.org/2000/svg">
<path d="M31.4753 0.312505C40.3869 0.309901 47.3795 1.42801 52.6006 3.91079L52.7795 3.99721L52.9467 4.06088C58.7631 6.33336 62.6459 11.9036 62.7264 18.1635L62.7275 18.3614V32.4427C62.7275 41.192 58.8744 48.8104 52.392 55.2189C48.01 59.5507 42.8525 62.9503 37.6066 65.5437C33.733 67.4579 29.2221 67.4579 25.3476 65.5429C20.1026 62.9503 14.945 59.5507 10.5631 55.2189C4.08061 48.8104 0.227539 41.192 0.227539 32.4427V18.3614C0.227539 12.0212 4.13072 6.35726 10.0084 4.06087L10.1789 3.99572L10.3606 3.90843C15.5048 1.46785 22.3707 0.347041 31.1 0.313325L31.4753 0.312505ZM29.7367 20.3755C26.6261 20.5196 22.9891 21.1877 22.2393 23.3748C21.6369 25.1335 22.9403 26.5307 24.1754 26.9639C25.399 27.3937 26.9564 27.3978 28.533 27.3748L28.9632 27.3681C29.3217 27.3625 29.6797 27.3574 30.0335 27.3574C36.4082 27.3574 41.5232 28.0651 44.7307 31.2423C46.649 33.1423 48.4115 36.1522 48.3061 40.0427C48.0014 51.1979 36.9715 54.7379 24.9702 53.3675C22.4462 53.0794 20.1625 52.5897 18.0306 51.9453C20.6241 54.155 23.3187 55.918 25.6086 57.2341L26.0932 57.5094C26.1729 57.5542 26.252 57.5983 26.3305 57.6419L26.7944 57.8969L27.2432 58.1379L27.6756 58.3655L28.0907 58.5792C28.1584 58.6139 28.2253 58.6478 28.2914 58.6809L28.6783 58.8743C30.4543 59.7519 32.5007 59.7519 34.2768 58.8743C34.3396 58.8431 34.4033 58.8115 34.4678 58.7792L34.8644 58.5792L35.2795 58.3655L35.7119 58.1379L36.1606 57.8969L36.6246 57.6419C36.7031 57.5983 36.7822 57.5542 36.8618 57.5094L37.3464 57.2341C43.4529 53.7242 52.4369 47.0377 54.7064 37.1744L54.7154 37.2288C54.2502 34.3488 53.2189 32.0144 51.9311 29.7175C51.0975 28.71 50.4561 27.6387 49.6467 26.7182C48.8479 25.8074 47.767 25.0552 46.7174 24.4074C44.5686 23.0799 42.2693 21.995 39.2698 21.3095C36.5458 20.6878 33.2868 20.2121 29.7367 20.3755ZM31.1273 7.76006C30.1968 7.76373 29.2934 7.78081 28.4174 7.81133L27.7654 7.83671L27.1237 7.8672C21.0759 8.18038 16.4111 9.17574 13.1292 10.8532C9.89445 11.9305 7.71258 14.9548 7.71258 18.3614V32.4427C7.71258 32.808 7.72187 33.1696 7.74008 33.5277L7.69734 33.4489C8.47719 34.9069 9.41809 36.2046 10.524 37.3414C13.2637 40.1581 17.6085 42.378 22.2412 43.1932C24.6402 43.6147 27.2548 44.0283 30.1859 44.0283C30.3055 44.0283 30.4257 44.0283 30.5464 44.0275L30.7882 44.026C31.1918 44.0224 31.5989 44.0139 32.0036 43.9971L32.2461 43.9862L32.4879 43.9725C35.4226 43.7955 38.1158 43.0786 38.3784 40.2915C38.3814 40.2595 38.3794 40.2248 38.3784 40.1928C38.2691 38.1198 36.1807 37.1693 33.8101 37.0949C33.3135 37.0794 32.8102 37.0679 32.3058 37.0582L31.5491 37.0449C29.7849 37.0157 28.0417 36.9968 26.5607 36.8986C21.7228 36.5766 17.917 35.2297 15.3892 32.8174C13.1358 30.3702 11.6117 27.2529 12.1623 22.9339C12.6447 19.1591 14.5398 16.3842 17.0275 14.4765C19.4596 12.6114 22.828 11.4453 26.9082 10.9851C30.8683 10.5393 35.3947 10.638 39.3205 11.3786C42.9916 12.0709 46.4264 13.0909 49.3498 14.7211C51.4178 15.8746 53.46 17.2546 55.2428 18.8691V18.3614C55.2428 14.9548 53.0607 11.9305 49.826 10.8532C45.7955 8.78821 39.6795 7.75691 31.4775 7.75925L31.1273 7.76006Z" fill="url(#paint0_linear_3373_135718)"/>
<defs>
<linearGradient id="paint0_linear_3373_135718" x1="58.8365" y1="0.312498" x2="0.0916543" y2="63.2187" gradientUnits="userSpaceOnUse">
<stop stop-color="#DD533D"/>
<stop offset="1" stop-color="#C53E38"/>
</linearGradient>
</defs>
</svg>
