<svg width="44" height="41" viewBox="0 0 44 41" fill="none" xmlns="http://www.w3.org/2000/svg">
<path d="M42.919 14.3664C42.6284 14.2113 42.2773 14.2291 42.0046 14.4109L12.5935 34.0183C12.2192 34.2678 12.0891 34.7562 12.2905 35.1591L13.1817 36.9416C13.2905 37.1608 13.4848 37.323 13.7183 37.3943C13.8038 37.4211 13.8912 37.4335 13.9785 37.4335C14.13 37.4335 14.2797 37.3961 14.4152 37.3195L42.935 21.2771C43.2149 21.1202 43.3895 20.8225 43.3895 20.4999V15.1524C43.3895 14.8245 43.2077 14.5214 42.919 14.3664Z" fill="#C85743"/>
<path d="M13.9786 19.6089C12.6399 19.6089 5.9574 19.7372 5.9574 22.2826C5.9574 24.828 12.6399 24.9563 13.9786 24.9563C15.3172 24.9563 21.9998 24.828 21.9998 22.2826C21.9998 19.7372 15.3172 19.6089 13.9786 19.6089Z" fill="#C85743"/>
<path d="M42.9477 0.12258C42.6732 -0.0378441 42.3363 -0.041409 42.06 0.11545L13.5402 16.1578C13.1106 16.3985 12.9591 16.9421 13.2015 17.3717C13.4422 17.7995 13.9858 17.9546 14.4154 17.7104L15.7951 16.9332H18.4421C18.4421 17.0687 18.4634 17.2024 18.5276 17.3325C18.6845 17.6444 18.9982 17.8245 19.3262 17.8245C19.4599 17.8245 19.5953 17.7942 19.7237 17.73L42.896 6.14382C43.1972 5.99231 43.388 5.68394 43.388 5.34705V0.890832C43.3897 0.575332 43.2222 0.283004 42.9477 0.12258Z" fill="#C85743"/>
<path d="M13.9786 16.0437C6.35666 16.0437 0.609924 18.7263 0.609924 22.2824C0.609924 25.8385 6.35666 28.5211 13.9786 28.5211C15.2905 28.5211 16.5899 28.4356 17.843 28.2662C17.9767 28.2484 18.105 28.1985 18.2173 28.1236L22.4026 25.334C20.2904 26.1967 17.3011 26.7386 13.9768 26.7386C7.57767 26.7386 2.39063 24.744 2.39063 22.2824C2.39063 19.8208 7.57767 17.8262 13.9768 17.8262C20.3759 17.8262 25.563 19.8208 25.563 22.2824C25.563 22.7227 25.3901 23.1469 25.0817 23.5498L26.8481 22.3733C27.1708 22.1576 27.3169 21.7601 27.2118 21.3876C26.333 18.2914 20.7681 16.0437 13.9786 16.0437Z" fill="#C85743"/>
<path d="M25.5646 22.2826C25.5646 22.7229 25.3917 23.1471 25.0815 23.55L25.8694 23.0241C26.1956 22.8067 26.3417 22.4002 26.2277 22.0241C26.1136 21.648 25.7678 21.3914 25.3738 21.3914H25.3293C25.4844 21.6801 25.5646 21.9778 25.5646 22.2826Z" fill="#C85743"/>
<path d="M26.9052 32.8458C26.6307 32.6854 26.2938 32.6836 26.0175 32.8387L15.2869 38.8742C14.8876 39.0988 14.4331 39.2182 13.9768 39.2182C13.7094 39.2182 13.4474 39.179 13.1943 39.1005C12.4973 38.8866 11.9127 38.3911 11.5865 37.7405L10.6952 35.958C10.0945 34.7548 10.4849 33.2843 11.6043 32.5374L22.4062 25.3362C20.2939 26.1989 17.3047 26.7408 13.9786 26.7408C7.57945 26.7408 2.39241 24.7462 2.39241 22.2846C2.39241 21.9797 2.47262 21.6821 2.62592 21.3933H1.50117C1.0092 21.3933 0.609924 21.7926 0.609924 22.2846V34.762C0.609924 38.318 6.35666 41.0007 13.9786 41.0007C21.6005 41.0007 27.3472 38.318 27.3472 34.762V33.6158C27.3472 33.2985 27.1797 33.0062 26.9052 32.8458Z" fill="#C85743"/>
</svg>
