<svg width="48" height="49" viewBox="0 0 48 49" fill="none" xmlns="http://www.w3.org/2000/svg">
<path fill-rule="evenodd" clip-rule="evenodd" d="M18.75 45.5C18.1533 45.5 17.581 45.2629 17.159 44.841C16.7371 44.419 16.5 43.8467 16.5 43.25V23C16.5 18.0364 21 18.4663 21 15.5V14.75C21 14.5511 21.079 14.3603 21.2197 14.2197C21.3603 14.079 21.5511 14 21.75 14H26.25C26.4489 14 26.6397 14.079 26.7803 14.2197C26.921 14.3603 27 14.5511 27 14.75V15.5C27 18.4663 31.5 18.0364 31.5 23V43.25C31.5 43.8467 31.2629 44.419 30.841 44.841C30.419 45.2629 29.8467 45.5 29.25 45.5H18.75ZM26.25 12.5H21.75C21.5511 12.5 21.3603 12.421 21.2197 12.2803C21.079 12.1397 21 11.9489 21 11.75V5C21 4.60218 21.158 4.22064 21.4393 3.93934C21.7206 3.65804 22.1022 3.5 22.5 3.5H25.5C25.8978 3.5 26.2794 3.65804 26.5607 3.93934C26.842 4.22064 27 4.60218 27 5V11.75C27 11.9489 26.921 12.1397 26.7803 12.2803C26.6397 12.421 26.4489 12.5 26.25 12.5Z" fill="#C85743"/>
</svg>
