<svg width="44" height="32" viewBox="0 0 44 32" fill="none" xmlns="http://www.w3.org/2000/svg">
<path d="M37.9998 0.979848L35.0798 0.679848C26.3429 -0.220106 17.5367 -0.220106 8.79981 0.679848L5.99981 0.979848C4.33131 1.16843 2.79272 1.97122 1.68361 3.23191C0.574504 4.49259 -0.0257215 6.12092 -0.00019456 7.79985V24.1998C-0.0257215 25.8788 0.574504 27.5071 1.68361 28.7678C2.79272 30.0285 4.33131 30.8313 5.99981 31.0198L8.91981 31.3198C17.6567 32.2198 26.4629 32.2198 35.1998 31.3198L37.9998 31.0198C39.6683 30.8313 41.2069 30.0285 42.316 28.7678C43.4251 27.5071 44.0253 25.8788 43.9998 24.1998V7.79985C44.0253 6.12092 43.4251 4.49259 42.316 3.23191C41.2069 1.97122 39.6683 1.16843 37.9998 0.979848ZM27.9998 17.2398L20.2198 22.4398C19.997 22.5622 19.7467 22.6259 19.4925 22.625C19.2382 22.624 18.9884 22.5585 18.7665 22.4345C18.5445 22.3106 18.3577 22.1322 18.2236 21.9162C18.0895 21.7003 18.0125 21.4538 17.9998 21.1998V10.7998C18.0003 10.5278 18.0748 10.2609 18.2153 10.028C18.3558 9.79496 18.557 9.60458 18.7975 9.47718C19.0379 9.34978 19.3084 9.29017 19.5801 9.30474C19.8518 9.3193 20.1144 9.40748 20.3398 9.55985L28.1198 14.7598C28.3262 14.8943 28.4957 15.0781 28.613 15.2946C28.7304 15.5112 28.7918 15.7536 28.7918 15.9998C28.7918 16.2461 28.7304 16.4885 28.613 16.705C28.4957 16.9216 28.3262 17.1054 28.1198 17.2398H27.9998Z" fill="#C85743"/>
</svg>
